<svg width="448" height="361" viewBox="0 0 448 361" fill="none" xmlns="http://www.w3.org/2000/svg">
<path d="M294.784 202.117C285.333 207.774 268.495 214.861 251.288 207.577L240.165 202.869L262.455 177.935C244.668 158.364 234.828 132.88 234.855 106.459C234.882 80.0379 244.774 54.5749 262.601 35.0403C280.428 15.5056 304.909 3.30147 331.267 0.809903C357.625 -1.68166 383.968 5.71819 405.153 21.5651C426.338 37.412 440.845 60.5686 445.843 86.5148C450.841 112.461 445.97 139.335 432.182 161.891C418.394 184.446 396.679 201.065 371.273 208.503C345.868 215.941 318.597 213.664 294.784 202.117V202.117ZM252.077 106.4C252.028 118.579 254.505 130.637 259.352 141.815C264.199 152.993 271.312 163.049 280.243 171.351L286.391 177.117L272.365 192.807C279.671 191.328 286.034 187.384 289.26 185.093L293.688 181.949L298.449 184.56C311.611 191.751 326.375 195.52 341.38 195.519C390.622 195.519 430.684 155.54 430.684 106.4C430.684 57.2594 390.622 17.2807 341.38 17.2807C292.139 17.2807 252.077 57.2594 252.077 106.4V106.4Z" fill="#3F3D56"/>
<path d="M243.419 106.4C243.419 52.4087 287.278 8.64035 341.38 8.64035C395.483 8.64035 439.342 52.4087 439.342 106.4C439.342 160.391 395.483 204.159 341.38 204.159C324.915 204.183 308.711 200.046 294.28 192.133C287.508 196.941 270.989 206.532 254.669 199.623L274.313 177.648C264.548 168.517 256.767 157.481 251.452 145.225C246.138 132.969 243.404 119.754 243.419 106.4Z" fill="#F35A5E"/>
<path opacity="0.1" d="M422.654 106.611C422.654 55.5329 383.397 13.6114 333.35 9.2366C336.204 8.98717 339.09 8.8522 342.009 8.8522C396.111 8.8522 439.97 52.6205 439.97 106.611C439.97 160.602 396.111 204.371 342.009 204.371C339.095 204.371 336.213 204.234 333.364 203.985C383.404 199.604 422.654 157.685 422.654 106.611Z" fill="black"/>
<path d="M115.639 337.926C91.1617 337.937 67.424 329.553 48.4043 314.177C29.3846 298.801 16.2387 277.368 11.1696 253.471C6.10062 229.573 9.41655 204.663 20.5617 182.915C31.7069 161.167 50.004 143.903 72.3867 134.016C94.7693 124.128 119.877 122.219 143.503 128.607C167.128 134.996 187.836 149.294 202.155 169.105C216.473 188.917 223.534 213.038 222.152 237.426C220.77 261.814 211.03 284.987 194.565 303.061L216.854 327.996L205.732 332.704C188.525 339.988 171.687 332.9 162.236 327.244C147.711 334.271 131.78 337.923 115.639 337.926ZM115.639 142.407C66.3974 142.407 26.336 182.386 26.336 231.526C26.336 280.667 66.3974 320.645 115.639 320.645C130.645 320.647 145.409 316.878 158.57 309.687L163.332 307.076L167.759 310.219C170.986 312.51 177.349 316.454 184.655 317.933L170.629 302.243L176.777 296.478C185.708 288.176 192.82 278.12 197.667 266.942C202.515 255.764 204.991 243.706 204.942 231.526C204.942 182.386 164.881 142.407 115.639 142.407Z" fill="#3F3D56"/>
<path d="M213.6 231.526C213.6 177.535 169.742 133.767 115.639 133.767C61.5365 133.767 17.6777 177.535 17.6777 231.526C17.6777 285.517 61.5365 329.285 115.639 329.285C132.105 329.309 148.309 325.172 162.74 317.26C169.511 322.068 186.031 331.658 202.351 324.75L182.706 302.774C192.471 293.644 200.253 282.608 205.567 270.352C210.882 258.096 213.616 244.881 213.6 231.526Z" fill="#F35A5E"/>
<path opacity="0.1" d="M34.9941 231.032C34.9941 179.954 74.2511 138.032 124.297 133.657C121.444 133.408 118.557 133.273 115.639 133.273C61.5365 133.273 17.6777 177.041 17.6777 231.032C17.6777 285.023 61.5365 328.792 115.639 328.792C118.553 328.792 121.434 328.655 124.284 328.406C74.244 324.025 34.9941 282.106 34.9941 231.032Z" fill="black"/>
<path d="M364.378 75.3416C357.968 64.5339 345.288 64.0303 345.288 64.0303C345.288 64.0303 332.931 62.4534 325.005 78.9136C317.616 94.2558 307.42 109.069 323.363 112.661L326.243 103.716L328.026 113.326C330.296 113.489 332.574 113.528 334.848 113.443C351.922 112.893 368.182 113.604 367.659 107.49C366.963 99.3615 370.545 85.7407 364.378 75.3416Z" fill="#2F2E41"/>
<path d="M322.453 169.989C322.264 171.178 321.991 172.352 321.635 173.502C321.234 174.627 320.615 175.668 320.248 176.805C319.079 180.43 320.7 184.471 323.288 187.269C325.532 189.685 328.429 191.402 331.63 192.212C333.986 192.715 336.389 192.967 338.799 192.964C345.462 193.189 352.296 193.391 358.61 191.254C360.604 190.562 362.531 189.689 364.365 188.645C364.944 188.369 365.455 187.968 365.859 187.471C366.282 186.743 366.47 185.902 366.398 185.064C366.384 182.245 365.811 179.441 365.947 176.625C366.022 175.066 366.315 173.507 366.171 171.953C365.971 170.187 365.23 168.526 364.048 167.196C362.867 165.867 361.302 164.935 359.569 164.527C357.778 164.144 355.921 164.353 354.097 164.528C349.364 164.981 344.611 165.194 339.856 165.163C334.998 165.132 330.169 164.392 325.335 164.315C323.906 164.292 323.935 164.732 323.479 166.112C323.06 167.383 322.717 168.678 322.453 169.989Z" fill="#2F2E41"/>
<path d="M336.24 100.387C336.007 101.607 335.754 102.871 335.02 103.874C334.174 105.027 332.796 105.686 331.887 106.79C330.518 108.452 330.44 110.79 330.434 112.941C330.429 114.922 330.469 117.035 331.577 118.68C332.365 119.702 333.343 120.562 334.457 121.214C338.609 124.007 343.096 126.85 348.103 126.942C350.177 126.98 352.401 126.445 353.766 124.886C354.355 124.154 354.819 123.329 355.137 122.445C356.417 119.296 357.193 115.966 357.437 112.576C357.621 110.982 357.472 109.368 356.999 107.835C356.391 106.143 355.161 104.751 354.348 103.146C353.388 101.238 353.036 99.0826 353.342 96.9693C353.382 96.8205 353.369 96.6623 353.306 96.5216C353.239 96.4463 353.156 96.3875 353.063 96.3497C352.969 96.312 352.868 96.2963 352.768 96.3039L342.841 95.5907C341.916 95.5449 340.996 95.4398 340.085 95.2761C339.55 95.1675 338.136 94.409 337.626 94.6107C336.681 94.9841 336.434 99.3751 336.24 100.387Z" fill="#A0616A"/>
<path opacity="0.1" d="M336.24 100.696C336.007 101.916 335.754 103.18 335.02 104.183C334.174 105.336 332.796 105.996 331.887 107.099C330.518 108.761 330.44 111.099 330.434 113.25C330.429 115.231 330.469 117.345 331.577 118.989C332.365 120.011 333.343 120.872 334.457 121.524C338.609 124.316 343.096 127.159 348.103 127.251C350.177 127.289 352.401 126.755 353.766 125.195C354.355 124.463 354.819 123.638 355.137 122.754C356.417 119.605 357.193 116.275 357.437 112.885C357.621 111.292 357.472 109.677 356.999 108.144C356.391 106.452 355.161 105.06 354.348 103.456C353.387 101.548 353.036 99.3918 353.341 97.2785C353.382 97.1297 353.369 96.9715 353.306 96.8309C353.239 96.7556 353.156 96.6968 353.062 96.659C352.969 96.6212 352.868 96.6055 352.768 96.6131L342.841 95.9C341.916 95.8541 340.996 95.749 340.085 95.5853C339.55 95.4768 338.136 94.7183 337.626 94.92C336.681 95.2933 336.434 99.6844 336.24 100.696Z" fill="black"/>
<path d="M345.733 101.715C353.777 101.715 360.297 95.2082 360.297 87.1815C360.297 79.1548 353.777 72.6478 345.733 72.6478C337.69 72.6478 331.169 79.1548 331.169 87.1815C331.169 95.2082 337.69 101.715 345.733 101.715Z" fill="#A0616A"/>
<path d="M338.283 119.733C339.002 120.565 339.869 121.256 340.841 121.773C341.853 122.191 342.941 122.398 344.036 122.38C346.662 122.454 349.508 121.974 351.334 120.091C353.688 117.663 353.61 113.747 355.456 110.914C355.604 110.657 355.807 110.436 356.05 110.265C356.36 110.097 356.71 110.017 357.062 110.033C359.392 110.012 361.422 111.52 363.254 112.957C364.117 113.55 364.857 114.302 365.434 115.173C365.796 115.879 366.044 116.637 366.169 117.42C367.078 121.849 367.373 126.377 367.665 130.889C367.826 133.381 367.988 135.875 367.976 138.373C367.936 146.6 366.02 154.689 364.115 162.694C363.869 163.725 363.533 164.878 362.593 165.372C362.174 165.56 361.724 165.669 361.266 165.695C355.808 166.335 350.339 166.975 344.844 167.06C342.7 167.093 340.556 167.041 338.414 166.904C338.045 166.899 337.68 166.836 337.331 166.716C336.858 166.489 336.451 166.144 336.15 165.715C333.178 161.978 333.002 156.81 333.021 152.039C333.068 140.373 333.486 128.717 334.274 117.07C334.34 116.109 334.354 114.941 333.66 114.185C335.011 116.184 336.56 118.043 338.283 119.733Z" fill="white"/>
<path d="M335.198 102.952C334.706 103.841 331.079 106.047 330.379 106.784C326.468 110.898 319.328 110.744 315.751 115.151C314.492 116.701 313.838 118.65 313.357 120.587C312.677 123.326 312.314 126.314 313.453 128.897C314.55 131.382 316.858 133.1 318.425 135.321C320.146 137.758 320.919 140.718 321.661 143.607C322.208 145.739 322.76 147.925 322.547 150.116C322.305 152.608 321.096 154.889 320.383 157.289C319.67 159.689 319.547 162.547 321.196 164.433C322.408 165.819 324.308 166.368 326.125 166.677C328.452 167.026 330.798 167.23 333.15 167.287C335.227 167.379 337.516 167.397 339.112 166.068C340.372 165.02 340.919 163.319 340.99 161.684C341.061 160.048 340.72 158.427 340.507 156.805C340.285 155.122 340.2 153.425 340.129 151.73C339.81 144.123 339.766 136.512 339.998 128.896C340.115 127.313 340.037 125.721 339.767 124.157C339.321 122.12 338.218 120.299 337.297 118.427C335.457 114.901 334.624 110.939 334.888 106.972C335.167 102.896 336.948 99.7902 335.198 102.952Z" fill="white"/>
<path d="M355.649 103.261C356.398 104.03 358.944 104.283 359.897 104.778C360.794 105.191 361.729 105.514 362.69 105.743C366.166 106.744 369.473 108.258 372.5 110.236C373.129 110.603 373.685 111.083 374.14 111.65C374.62 112.429 374.93 113.301 375.048 114.208C375.515 116.515 375.984 118.849 375.879 121.2C375.767 123.696 375.014 126.113 374.267 128.497L371.475 137.406C369.39 144.056 367.293 150.771 366.706 157.713C366.382 161.561 366.526 165.434 367.136 169.247C367.193 169.433 367.21 169.628 367.186 169.821C367.162 170.014 367.097 170.199 366.995 170.364C366.811 170.546 366.569 170.657 366.311 170.678C364.964 170.889 363.659 170.203 362.438 169.596C358.706 167.743 354.723 166.442 350.615 165.736C352.221 163.42 353.459 160.872 354.288 158.181C354.758 156.472 355.128 154.738 355.397 152.986L356.696 145.489C357.224 142.748 357.596 139.98 357.81 137.198C357.908 136.154 357.847 135.101 357.629 134.075C357.33 133.098 356.933 132.155 356.443 131.258C354.302 126.814 353.298 121.743 354.14 116.885C354.509 114.759 355.225 112.63 354.926 110.493C354.639 108.438 354.938 106.841 354.409 104.807C352.24 96.4583 354.239 101.816 355.649 103.261Z" fill="white"/>
<path d="M315.714 122.177C314.738 124.198 313.106 125.92 312.551 128.093C312.335 129.109 312.242 130.148 312.275 131.186C312.179 132.75 312.334 134.32 312.735 135.836C313.045 136.794 313.549 137.679 313.912 138.618C314.419 139.931 314.644 141.336 314.575 142.741C314.477 144.688 313.814 146.577 313.762 148.526C313.681 151.59 315.101 154.471 316.487 157.206C316.835 156.344 317.369 155.569 318.049 154.934C318.73 154.299 319.541 153.82 320.426 153.531C321.312 153.242 322.25 153.149 323.174 153.259C324.099 153.37 324.989 153.68 325.781 154.17C326.099 153.781 326.249 153.282 326.2 152.783C326.303 149.228 326.401 145.673 326.497 142.118C326.647 136.62 326.789 131.048 325.522 125.695C324.95 123.278 324.059 120.87 322.427 118.996C321.568 118.009 318.65 115.409 317.239 116.515C316.604 117.012 316.753 118.365 316.652 119.051C316.5 120.134 316.184 121.188 315.714 122.177Z" fill="white"/>
<path d="M376.164 116.353C376.557 117.81 376.725 119.319 376.663 120.826C376.681 123.899 376.64 126.972 376.54 130.045C376.555 131.62 376.354 133.191 375.94 134.712C375.625 135.701 375.138 136.628 374.813 137.614C373.838 140.568 374.37 143.772 374.454 146.881C374.513 147.887 374.427 148.897 374.199 149.879C373.684 151.806 372.3 153.364 371.335 155.11C370.418 156.769 369.864 158.628 368.769 160.176C367.674 161.723 365.778 162.949 363.94 162.474C362.548 162.114 361.558 160.884 360.874 159.622C359.381 156.846 358.87 153.648 359.424 150.547C360.112 146.773 362.333 143.425 363.134 139.674C364.234 134.523 362.562 129.207 362.612 123.94C362.589 123.115 362.701 122.291 362.944 121.501C363.364 120.298 364.267 119.338 365.1 118.373C366.142 117.167 367.11 115.9 367.998 114.577C368.595 113.689 369.406 111.404 370.464 111.214C372.826 110.79 375.578 114.531 376.164 116.353Z" fill="white"/>
<path d="M303.455 167.698C302.149 167.371 300.803 167.228 299.456 167.274C298.042 167.352 296.66 167.73 295.403 168.382C294.147 169.034 293.043 169.946 292.167 171.056C291.29 172.167 290.661 173.451 290.32 174.823C289.979 176.196 289.935 177.625 290.191 179.015C290.517 180.521 291.05 181.975 291.775 183.336C292.836 185.484 294.108 187.626 296.071 189.003C297.254 189.759 298.527 190.364 299.862 190.803L310.202 194.691C311.723 195.262 313.244 195.834 314.78 196.365C322.498 199.027 330.544 200.623 338.695 201.109C341.175 201.341 343.676 201.215 346.12 200.734C346.711 200.657 347.252 200.365 347.641 199.914C347.838 199.571 347.954 199.188 347.98 198.794L348.617 194.349C348.759 193.73 348.741 193.085 348.563 192.475C348.271 191.728 347.541 191.258 346.844 190.859C340.046 186.962 332.109 184.813 326.387 179.465C325.04 178.207 323.913 176.211 322.277 175.356C320.421 174.386 318.235 173.833 316.317 172.939C312.123 170.986 308 168.741 303.455 167.698Z" fill="#2F2E41"/>
<path opacity="0.1" d="M313.778 173.691C317.433 174.834 332.863 182.751 335.508 185.516C335.153 185.643 323.125 178.916 322.764 178.808C319.456 177.902 316.216 176.762 313.069 175.399C312.442 175.109 308.997 173.75 309.153 172.961C309.329 172.07 313.129 173.488 313.778 173.691Z" fill="black"/>
<path d="M359.373 203.414C359.58 203.43 359.786 203.369 359.952 203.244C360.025 203.151 360.078 203.044 360.109 202.93C360.141 202.816 360.149 202.696 360.133 202.579L360.116 196.523C358.371 195.694 356.419 195.428 354.503 195.172L345.564 193.98C345.769 194.007 344.166 197.822 344.412 198.331C344.845 199.229 348.156 200.024 349.091 200.448C352.339 201.922 355.714 203.541 359.373 203.414Z" fill="#A0616A"/>
<path d="M331.326 196.502C329.638 196.771 327.754 197.008 326.661 198.319C325.275 199.982 325.865 202.46 326.526 204.52C326.567 204.786 326.66 205.041 326.801 205.27C326.942 205.499 327.127 205.698 327.346 205.854C327.566 206.011 327.814 206.122 328.077 206.181C328.34 206.24 328.612 206.245 328.877 206.198C330.416 206.295 332.054 206.371 333.399 205.618C334.008 205.216 334.595 204.781 335.156 204.315C336.148 203.656 337.238 203.159 338.386 202.841C340.496 202.179 342.668 201.732 344.869 201.508C345.736 201.468 346.595 201.317 347.423 201.058C347.837 200.925 348.214 200.699 348.526 200.397C348.838 200.094 349.076 199.724 349.222 199.316C349.533 198.215 348.892 197.093 348.278 196.128C347.569 194.864 346.65 193.73 345.559 192.775C343.893 191.484 343.069 192.475 341.391 193.301C338.216 194.865 334.823 195.944 331.326 196.502Z" fill="#A0616A"/>
<path d="M326.915 198.019L316.198 194.858C314.913 194.412 313.57 194.152 312.21 194.087C311.529 194.059 310.851 194.177 310.219 194.432C309.587 194.687 309.018 195.073 308.548 195.565C307.717 196.539 307.479 197.869 307.272 199.131L306.828 201.83C306.533 203.191 306.449 204.589 306.58 205.975C306.652 206.669 306.88 207.337 307.249 207.928C307.618 208.52 308.118 209.02 308.709 209.39C310.192 210.198 312.01 209.803 313.665 209.466C317.008 208.784 320.409 208.42 323.821 208.379C325.104 208.364 326.449 208.38 327.583 207.78C328.241 207.391 328.793 206.847 329.193 206.196C329.592 205.545 329.826 204.807 329.875 204.045C330.086 201.739 329.315 198.727 326.915 198.019Z" fill="#2F2E41"/>
<path d="M363.585 195.265C364.975 195.022 366.201 194.234 367.532 193.769C369.406 193.114 371.436 193.114 373.422 193.121C374.152 193.055 374.885 193.201 375.533 193.543C376.408 194.124 376.632 195.287 376.78 196.325L377.678 202.587C377.918 203.755 377.942 204.957 377.751 206.134C377.488 207.294 376.695 208.413 375.541 208.712C374.14 209.076 372.766 208.183 371.443 207.596C368.136 206.129 364.291 206.504 360.843 205.408C360.513 205.342 360.202 205.207 359.928 205.011C359.655 204.816 359.426 204.565 359.257 204.276C359.139 203.928 359.097 203.559 359.133 203.193C359.192 201.181 358.767 198.432 359.374 196.509C359.92 194.779 362.034 195.265 363.585 195.265Z" fill="#2F2E41"/>
<path d="M386.265 165.178C388.406 164.642 390.626 164.491 392.821 164.731C394.573 164.924 396.379 165.41 397.659 166.621C399.216 168.094 399.716 170.373 399.758 172.514C399.827 176.779 398.409 180.936 395.748 184.273C395.098 185.118 394.325 185.86 393.455 186.476C392.517 187.062 391.516 187.543 390.472 187.911L367.317 197.025C361.225 199.423 355.112 201.827 348.758 203.408C348.584 203.492 348.395 203.54 348.202 203.55C348.01 203.56 347.817 203.531 347.636 203.465C347.454 203.4 347.288 203.299 347.146 203.168C347.005 203.037 346.891 202.879 346.811 202.704C344.782 199.812 343.08 196.705 341.736 193.44C341.672 193.362 341.629 193.27 341.608 193.172C341.587 193.074 341.591 192.972 341.618 192.876C341.645 192.779 341.695 192.69 341.764 192.617C341.832 192.544 341.918 192.489 342.013 192.455L358.391 183.064C359.592 182.439 360.711 181.669 361.724 180.772C362.432 180.088 363.012 179.282 363.436 178.394C363.775 177.687 363.807 176.017 364.241 175.494C364.665 174.982 366.118 174.941 366.788 174.739C367.734 174.45 368.661 174.101 369.562 173.693C373.226 172.057 376.488 169.681 380 167.766C381.97 166.642 384.075 165.772 386.265 165.178Z" fill="#2F2E41"/>
<path opacity="0.1" d="M376.98 172.191C374.166 174.3 370.523 176.239 367.734 178.403C366.782 179.142 350.915 188.044 350.691 189.226C353.293 189.664 369.867 178.093 372.238 176.939C374.609 175.784 376.711 174.156 378.794 172.54C379.325 172.128 381.575 170.89 380.051 170.43C379.192 170.17 377.614 171.77 376.98 172.191Z" fill="black"/>
<path d="M357.618 103.466H332.918C331.915 103.466 330.952 103.863 330.243 104.571C329.533 105.28 329.135 106.24 329.135 107.241V108.624H328.866V111.716H329.135V113.881H328.866V115.736H329.135V138.553C329.135 139.554 329.533 140.515 330.243 141.223C330.952 141.931 331.915 142.329 332.918 142.329H357.618C358.622 142.329 359.584 141.931 360.294 141.223C361.004 140.515 361.402 139.554 361.402 138.553V107.241C361.402 106.24 361.004 105.28 360.294 104.571C359.584 103.863 358.622 103.466 357.618 103.466Z" fill="#D0CDE1"/>
<path d="M361.544 74.3L349.016 67.7511L331.716 70.4302L328.137 86.2066L337.047 85.8642L339.536 80.0684V85.7691L343.647 85.6113L346.033 76.3833L347.525 86.2066L362.141 85.9087L361.544 74.3Z" fill="#2F2E41"/>
<path d="M318.991 163.135C319.558 164.096 320.363 164.896 321.33 165.456C321.964 165.745 322.655 165.886 323.352 165.867C324.049 165.848 324.732 165.671 325.35 165.349C326.583 164.689 327.593 163.679 328.251 162.446C329.612 160.047 329.894 157.176 329.724 154.424C329.554 151.672 328.966 148.962 328.705 146.217C328.515 144.221 328.5 142.214 328.485 140.21C328.438 139.788 328.526 139.363 328.738 138.995C329.102 138.634 329.573 138.399 330.081 138.326C332.829 137.511 334.653 134.941 335.96 132.395C336.833 130.695 337.593 128.837 337.424 126.934C337.256 125.031 335.885 123.114 333.981 122.92C332.411 122.76 330.962 123.755 329.829 124.852C326.973 127.636 325.137 131.298 324.617 135.248C324.368 137.183 324.439 139.17 323.912 141.049C322.786 145.059 319.263 147.518 317.508 151.126C315.573 155.102 316.641 159.617 318.991 163.135Z" fill="#A0616A"/>
<path d="M370.83 147.814C370.429 148.744 369.846 149.584 369.115 150.286C368.383 150.987 367.518 151.535 366.571 151.897C365.394 152.369 364.095 152.449 362.869 152.124C362.26 151.955 361.699 151.649 361.229 151.23C360.759 150.81 360.392 150.287 360.156 149.703C359.969 149.114 359.866 148.502 359.851 147.884C359.675 145.18 359.743 142.393 360.727 139.867C361.107 138.893 361.619 137.969 361.918 136.968C362.213 135.811 362.363 134.622 362.367 133.429L362.69 126.05C362.744 125.514 362.707 124.974 362.581 124.45C362.258 123.382 361.258 122.689 360.34 122.052C358.125 120.514 355.935 118.72 354.861 116.249C354.493 115.505 354.36 114.666 354.483 113.845C354.786 112.38 356.267 111.431 357.732 111.112C358.69 110.903 359.681 110.889 360.644 111.072C361.608 111.256 362.524 111.632 363.339 112.178C364.153 112.724 364.847 113.429 365.381 114.25C365.915 115.071 366.277 115.992 366.445 116.956C366.59 117.789 366.588 118.639 366.672 119.48C366.852 121.264 367.42 122.984 367.775 124.741C368.649 129.07 368.196 133.545 369.061 137.874C369.784 141.492 372.51 143.854 370.83 147.814Z" fill="#A0616A"/>
<path d="M345.599 120.066C347.31 120.066 348.698 118.681 348.698 116.973C348.698 115.265 347.31 113.881 345.599 113.881C343.888 113.881 342.5 115.265 342.5 116.973C342.5 118.681 343.888 120.066 345.599 120.066Z" fill="#F35A5E"/>
<path d="M9.14165 228.11C14.1899 228.11 18.2823 224.026 18.2823 218.988C18.2823 213.95 14.1899 209.866 9.14165 209.866C4.0934 209.866 0.000984192 213.95 0.000984192 218.988C0.000984192 224.026 4.0934 228.11 9.14165 228.11Z" fill="#2F2E41"/>
<path d="M42.275 246.068L37.671 241.602L28.426 244.468L29.3139 255.151L48.323 254.269L42.4833 246.351L42.275 246.068Z" fill="#FBBEBE"/>
<path d="M32.2056 245.976C40.3673 245.976 46.9836 239.374 46.9836 231.229C46.9836 223.084 40.3673 216.481 32.2056 216.481C24.044 216.481 17.4277 223.084 17.4277 231.229C17.4277 239.374 24.044 245.976 32.2056 245.976Z" fill="#FBBEBE"/>
<path d="M123.948 264.997C123.948 264.997 142.103 296.132 146.424 300.806C148.478 303.107 150.667 305.284 152.979 307.327C152.979 307.327 150.948 314.05 147.713 313.81C145.869 313.7 144.061 313.255 142.376 312.498C142.376 312.498 140.932 308.763 138.414 307.125C135.895 305.487 115.319 285.285 115.8 278.828C116.28 272.372 123.948 264.997 123.948 264.997Z" fill="#2F2E41"/>
<path d="M59.2925 309.428C59.2925 309.428 78.6498 324.422 104.957 310.333L107.224 308.668C107.224 308.668 103.398 317.257 103.043 319.586C102.632 322.286 92.6707 338.103 91.0452 338.861C89.4197 339.618 89.0614 340.317 89.0614 340.317L95.9596 347.894L98.5101 346.021C98.5101 346.021 108.455 331.96 111.364 329.388C114.273 326.816 128.131 300.29 128.131 300.29C128.131 300.29 133.43 290.295 120.206 289.543C106.983 288.791 100.898 292.388 100.898 292.388L77.4294 296.108L59.2925 309.428Z" fill="#2F2E41"/>
<path d="M153.204 305.854L162.995 312.614C162.995 312.614 175.486 316.52 167.792 319.119C160.097 321.718 139.821 322.658 139.361 319.072C138.901 315.486 140.161 309.842 141.172 310.151C142.184 310.459 149.205 312.279 153.204 305.854Z" fill="#2F2E41"/>
<path d="M99.3765 343.699L101.189 353.63C101.189 353.63 106.342 363.464 100.155 360.413C93.9677 357.361 81.221 345.77 83.1032 343.34C84.9855 340.911 89.1399 338.275 89.5618 339.067C89.9837 339.859 93.1063 345.161 99.3765 343.699Z" fill="#2F2E41"/>
<path d="M80.7073 299.369C80.7073 299.369 67.5487 314.7 59.5599 310.976C51.5711 307.251 18.8875 264.116 22.6194 256.144C26.3513 248.171 27.6026 249.868 27.6026 249.868L44.4782 251.425L39.6227 243.656C39.6227 243.656 41.8898 241.991 44.0501 244.328C46.2105 246.666 54.8838 252.503 57.9053 260.747C60.9268 268.991 69.7977 268.58 69.7977 268.58L80.7073 299.369Z" fill="white"/>
<path d="M133.846 267.755L111.036 291.918L90.6026 255.916L110.028 232.495L133.846 267.755Z" fill="#3F3D56"/>
<path d="M132.124 267.494L111.522 288.727L92.8539 256.007L109.975 234.497L132.124 267.494Z" fill="white"/>
<path d="M109.918 290.995L111.036 291.918L110.319 293.316L78.424 302.789L78.1225 301.699L79.5735 300.201L109.918 290.995Z" fill="#B3B3B3"/>
<path d="M111.319 291.71L78.2907 302.015L58.157 264.05L90.6026 255.916L111.319 291.71Z" fill="#D0CDE1"/>
<path d="M108.833 286.561L107.416 287.601L91.6887 260.351L93.3141 259.593L108.833 286.561Z" fill="#3F3D56"/>
<path d="M105.581 288.076L91.6097 292.233L75.749 264.209L89.5712 261.034L105.581 288.076Z" fill="#3F3D56"/>
<path d="M66.2204 267.283L69.1132 266.467C69.1132 266.467 85.2454 264.646 85.4809 269.705C85.7164 274.763 66.9479 272.417 66.9479 272.417L64.4452 269.023L66.2204 267.283Z" fill="#FBBEBE"/>
<path d="M80.37 290.025L84.3963 288.376C84.3963 288.376 96.5501 282.938 93.0636 279.395C89.5771 275.852 78.8243 282.005 78.8243 282.005L76.7657 283.953L80.37 290.025Z" fill="#FBBEBE"/>
<path d="M76.7817 282.197C76.7817 282.197 83.3376 288.718 81.8458 290.249C80.354 291.781 55.8919 311.926 49.8279 305.48C43.764 299.034 14.2195 266.672 25.7157 263.897C37.2119 261.121 40.2494 267.61 40.2494 267.61L55.4258 293.521L76.7817 282.197Z" fill="white"/>
<path d="M57.1514 262.39L67.9205 266.035L67.7446 273.793L56.3552 272.567L57.1514 262.39Z" fill="white"/>
<path opacity="0.2" d="M66.8577 286.216L55.2549 292.993L41.9983 272.647L54.7947 289.407L66.8577 286.216Z" fill="black"/>
<path d="M25.7191 244.51C35.4354 244.51 43.3119 236.65 43.3119 226.954C43.3119 217.258 35.4354 209.397 25.7191 209.397C16.0029 209.397 8.12634 217.258 8.12634 226.954C8.12634 236.65 16.0029 244.51 25.7191 244.51Z" fill="#2F2E41"/>
<path d="M120.777 269.287L108.459 251.304L113.68 244.853L126.48 263.355L120.777 269.287Z" fill="#F35A5E"/>
<path d="M120.43 276.517L101.676 249.31L102.601 248.195L121.267 275.466L120.43 276.517Z" fill="#E6E6E6"/>
<path d="M118.013 279.164L99.2597 251.957L100.185 250.841L118.851 278.114L118.013 279.164Z" fill="#E6E6E6"/>
<path d="M115.955 281.112L97.201 253.904L98.1259 252.789L116.792 280.061L115.955 281.112Z" fill="#E6E6E6"/>
<path d="M33.5099 215.233H38.9522C41.7078 215.233 44.3504 216.325 46.2989 218.27C48.2474 220.214 49.342 222.851 49.342 225.601H33.5099V215.233Z" fill="#2F2E41"/>
<path d="M108.477 208.635L107.49 208.561C107.452 209.073 107.425 209.588 107.392 210.102L102.964 209.954L107.609 218.641L112.826 210.283L108.381 210.135C108.413 209.635 108.44 209.133 108.477 208.635Z" fill="#3F3D56"/>
<path d="M134.452 137.825L135.238 138.424C136.418 136.882 137.651 135.342 138.901 133.848L138.142 133.215C136.882 134.72 135.64 136.271 134.452 137.825Z" fill="#3F3D56"/>
<path d="M142.032 128.772L142.762 129.438C144.075 128.004 145.438 126.579 146.813 125.203L146.112 124.506C144.727 125.892 143.354 127.327 142.032 128.772Z" fill="#3F3D56"/>
<path d="M150.376 120.423L151.045 121.15C152.481 119.835 153.963 118.535 155.451 117.288L154.815 116.532C153.316 117.788 151.822 119.098 150.376 120.423Z" fill="#3F3D56"/>
<path d="M127.698 147.512L128.534 148.04C129.574 146.398 130.667 144.755 131.78 143.158L130.968 142.593C129.846 144.203 128.746 145.858 127.698 147.512Z" fill="#3F3D56"/>
<path d="M159.419 112.84L160.022 113.623C161.568 112.438 163.159 111.274 164.749 110.163L164.182 109.354C162.579 110.474 160.977 111.646 159.419 112.84Z" fill="#3F3D56"/>
<path d="M121.826 157.762L122.706 158.213C123.598 156.483 124.54 154.749 125.508 153.061L124.649 152.571C123.674 154.272 122.724 156.018 121.826 157.762Z" fill="#3F3D56"/>
<path d="M112.282 185.556L111.324 185.31C110.835 187.205 110.382 189.137 109.978 191.053L110.947 191.257C111.348 189.355 111.797 187.437 112.282 185.556Z" fill="#3F3D56"/>
<path d="M169.093 106.083L169.624 106.916C171.264 105.875 172.95 104.856 174.636 103.887L174.142 103.031C172.444 104.007 170.745 105.034 169.093 106.083Z" fill="#3F3D56"/>
<path d="M109.867 197.01L108.89 196.85C108.572 198.778 108.293 200.742 108.061 202.689L109.044 202.805C109.274 200.874 109.551 198.924 109.867 197.01Z" fill="#3F3D56"/>
<path d="M116.887 168.496L117.804 168.868C118.538 167.066 119.323 165.255 120.137 163.485L119.237 163.073C118.417 164.856 117.626 166.68 116.887 168.496Z" fill="#3F3D56"/>
<path d="M112.924 179.633L113.871 179.922C114.441 178.058 115.061 176.184 115.714 174.35L114.781 174.02C114.124 175.867 113.499 177.756 112.924 179.633Z" fill="#3F3D56"/>
<path d="M236.028 86.4011C237.968 86.334 239.943 86.3073 241.897 86.3256L241.906 85.3381C239.938 85.3198 237.948 85.3466 235.994 85.4141L236.028 86.4011Z" fill="#3F3D56"/>
<path d="M179.32 100.207L179.776 101.083C181.504 100.19 183.272 99.3242 185.034 98.51L184.618 97.6142C182.843 98.4344 181.061 99.3066 179.32 100.207Z" fill="#3F3D56"/>
<path d="M259.443 87.6322C261.373 87.9049 263.321 88.2241 265.233 88.5811L265.414 87.6105C263.489 87.2508 261.526 86.929 259.581 86.6544L259.443 87.6322Z" fill="#3F3D56"/>
<path d="M270.976 89.7856C272.871 90.2273 274.783 90.7181 276.659 91.2444L276.926 90.2935C275.037 89.7634 273.11 89.2692 271.201 88.8242L270.976 89.7856Z" fill="#3F3D56"/>
<path d="M282.269 92.9543C284.117 93.5626 285.978 94.2212 287.799 94.9122L288.151 93.9893C286.315 93.2931 284.441 92.6294 282.58 92.0165L282.269 92.9543Z" fill="#3F3D56"/>
<path d="M247.763 86.5049C249.712 86.6069 251.681 86.7535 253.616 86.9401L253.711 85.9574C251.762 85.7692 249.778 85.6216 247.815 85.5189L247.763 86.5049Z" fill="#3F3D56"/>
<path d="M224.215 86.3379L224.335 87.3181C226.264 87.0814 228.227 86.8839 230.171 86.7316L230.094 85.747C228.135 85.9006 226.157 86.0995 224.215 86.3379Z" fill="#3F3D56"/>
<path d="M201.131 91.2781L201.423 92.2212C203.283 91.6467 205.181 91.1062 207.064 90.6146L206.814 89.6595C204.916 90.1544 203.004 90.699 201.131 91.2781Z" fill="#3F3D56"/>
<path d="M190.023 95.2596L190.398 96.1733C192.197 95.4365 194.035 94.7314 195.86 94.0768L195.526 93.1477C193.687 93.8068 191.835 94.5175 190.023 95.2596Z" fill="#3F3D56"/>
<path d="M212.563 88.295L212.77 89.2607C214.671 88.854 216.609 88.484 218.531 88.1612L218.367 87.1872C216.431 87.5127 214.478 87.8854 212.563 88.295Z" fill="#3F3D56"/>
<path d="M302.563 101.018L297.034 92.8626L295.089 96.8566C294.619 96.6469 294.151 96.4326 293.681 96.2295L293.287 97.1359C293.746 97.3342 294.2 97.5421 294.657 97.7453L292.722 101.72L302.563 101.018Z" fill="#3F3D56"/>
</svg>
