<svg width="56" height="56" viewBox="0 0 56 56" fill="none" xmlns="http://www.w3.org/2000/svg">
<g clip-path="url(#clip0)">
<path d="M45.9994 28.0001C44.8948 28.0001 43.9993 28.8955 43.9993 30.0001V49.9997C43.9993 51.1043 43.1039 51.9997 41.9993 51.9997H5.99992C4.89533 51.9997 3.99991 51.1043 3.99991 49.9997V10.0003C3.99991 8.89571 4.89533 8.00029 5.99992 8.00029H29.9996C31.1042 8.00029 31.9996 7.10487 31.9996 6.00028C31.9996 4.89568 31.1042 4.00038 29.9996 4.00038H5.99992C2.68625 4.00038 0 6.68663 0 10.0003V49.9997C0 53.3134 2.68625 55.9997 5.99992 55.9997H41.9995C45.3131 55.9997 47.9994 53.3134 47.9994 49.9997V30C47.9994 28.8955 47.104 28.0001 45.9994 28.0001Z" fill="#2F2627"/>
<path d="M53.7582 2.24318C52.3222 0.806948 50.3745 0.000239775 48.3436 0.000474146C46.3114 -0.00538515 44.3617 0.802729 42.9297 2.24447L16.5859 28.586C16.3674 28.8062 16.2025 29.0738 16.1039 29.368L12.104 41.3678C11.7549 42.4158 12.3215 43.5483 13.3695 43.8973C13.5728 43.965 13.7858 43.9996 14 43.9998C14.2147 43.9995 14.4281 43.965 14.632 43.8979L26.6318 39.898C26.9265 39.7995 27.1943 39.6338 27.4138 39.414L53.7574 13.0703C56.7474 10.0807 56.7478 5.23318 53.7582 2.24318ZM50.9295 10.2443L24.9298 36.244L17.1619 38.8379L19.7478 31.0799L45.7575 5.08037C47.1874 3.65328 49.5036 3.65562 50.9307 5.08552C51.6123 5.7686 51.9965 6.69331 51.9994 7.65834C52.0019 8.62852 51.6167 9.55945 50.9295 10.2443Z" fill="#2F2627"/>
</g>
<defs>
<clipPath id="clip0">
<rect width="56" height="56" fill="white"/>
</clipPath>
</defs>
</svg>
