<svg width="1440" height="611" viewBox="0 0 1440 611" fill="none" xmlns="http://www.w3.org/2000/svg">
<rect width="1440" height="611" fill="#2F2627"/>
<g clip-path="url(#clip0)">
<path d="M83.9911 87.9425L92.8447 85.5084L90.4106 76.6546L99.2644 74.2204L96.8303 65.3666L105.684 62.9325L114.538 60.4984L116.972 69.3522L125.826 66.9181L128.26 75.7719L130.694 84.6256L133.128 93.4794L124.274 95.9136L126.708 104.767L117.855 107.201L120.289 116.055L111.435 118.489L113.869 127.343L105.015 129.777L107.449 138.631L98.5958 141.065L96.1616 132.211L87.3078 134.646L84.8737 125.792L76.0198 128.226L73.5857 119.372L64.7321 121.806L62.2979 112.952L53.4441 115.387L51.0099 106.533L48.5759 97.679L46.1417 88.8252L54.9956 86.391L52.5614 77.5372L61.4151 75.1031L70.2689 72.669L72.7031 81.5228L81.5569 79.0887L83.9911 87.9425Z" fill="#FF7B79"/>
<path d="M107.895 140.251L99.041 142.685C98.1465 142.931 97.2221 142.405 96.9762 141.51L94.9873 134.276L87.7531 136.265C86.8586 136.511 85.9341 135.985 85.6882 135.091L83.6993 127.857L76.4652 129.845C75.5707 130.091 74.6463 129.566 74.4004 128.671L72.4115 121.437L65.1771 123.426C64.2826 123.672 63.3582 123.146 63.1122 122.251L61.1234 115.017L53.8893 117.006C52.9948 117.252 52.0704 116.726 51.8245 115.832L44.5221 89.2704C44.2762 88.3759 44.8019 87.4515 45.6964 87.2056L52.9307 85.2167L50.9418 77.9825C50.6959 77.088 51.2216 76.1635 52.1162 75.9176L69.8237 71.0494C70.7182 70.8034 71.6426 71.3292 71.8885 72.2237L73.8774 79.4579L81.1116 77.4691C82.0061 77.2232 82.9306 77.7489 83.1765 78.6434L85.1654 85.8776L90.7802 84.334L88.7913 77.0998C88.5454 76.2053 89.0711 75.2808 89.9656 75.0349L97.1996 73.0461L95.2107 65.8119C94.9648 64.9174 95.4907 63.9929 96.385 63.747L114.093 58.8787C114.987 58.6329 115.912 59.1586 116.158 60.0531L118.146 67.2873L125.381 65.2985C126.275 65.0526 127.199 65.5783 127.445 66.4728L129.093 72.4653C129.339 73.3598 128.813 74.2843 127.919 74.5302C127.024 74.7761 126.1 74.2503 125.854 73.3558L124.651 68.9829L117.417 70.9718C116.523 71.2177 115.598 70.6919 115.353 69.7974L113.364 62.5632L98.8952 66.5409L100.884 73.7752C101.13 74.6697 100.604 75.5942 99.7097 75.84L92.4756 77.8289L94.4645 85.0631C94.7104 85.9576 94.1845 86.8821 93.2902 87.128L84.4362 89.5622C83.5417 89.8081 82.6172 89.2823 82.3713 88.3878L80.3824 81.1536L73.1483 83.1424C72.2538 83.3883 71.3294 82.8626 71.0835 81.9681L69.0946 74.7338L54.6261 78.7116L56.615 85.9458C56.8609 86.8403 56.3352 87.7647 55.4407 88.0107L48.2066 89.9995L54.6184 113.322L61.8525 111.333C62.747 111.087 63.6714 111.613 63.9173 112.507L65.9062 119.741L73.1405 117.753C74.035 117.507 74.9594 118.032 75.2053 118.927L77.1942 126.161L84.4284 124.172C85.3229 123.926 86.2474 124.452 86.4933 125.347L88.4821 132.581L95.7164 130.592C96.6109 130.346 97.5353 130.872 97.7812 131.766L99.7703 139L105.385 137.457L103.396 130.223C103.15 129.328 103.676 128.404 104.57 128.158L111.804 126.169L109.815 118.935C109.57 118.04 110.095 117.116 110.99 116.87L118.224 114.881L116.235 107.647C115.989 106.752 116.515 105.828 117.409 105.582L124.644 103.593L122.655 96.3588C122.409 95.4643 122.935 94.5399 123.829 94.2939L131.063 92.3051L129.861 87.9322C129.615 87.0377 130.141 86.1132 131.035 85.8673C131.93 85.6215 132.854 86.1472 133.1 87.0417L134.748 93.0342C134.994 93.9287 134.468 94.8532 133.573 95.099L126.339 97.0879L128.328 104.322C128.574 105.217 128.048 106.141 127.154 106.387L119.92 108.376L121.908 115.61C122.154 116.505 121.629 117.429 120.734 117.675L113.5 119.664L115.489 126.898C115.735 127.792 115.209 128.717 114.314 128.963L107.08 130.952L109.069 138.186C109.315 139.08 108.789 140.005 107.895 140.251Z" fill="black"/>
<path d="M129.922 81.8183C129.496 81.9354 129.031 81.877 128.647 81.6586C128.263 81.4402 127.974 81.07 127.857 80.644C127.74 80.2181 127.799 79.7526 128.017 79.3685C128.236 78.9844 128.606 78.6963 129.032 78.5791C129.458 78.462 129.923 78.5205 130.307 78.7389C130.691 78.9574 130.979 79.3275 131.097 79.7535C131.214 80.1794 131.155 80.6449 130.937 81.029C130.718 81.4131 130.348 81.7012 129.922 81.8183Z" fill="black"/>
</g>
<g clip-path="url(#clip1)">
<path d="M1114.73 451.467C1112.88 448.347 1109.06 447.118 1105.79 448.425C1103.56 445.711 1099.62 444.955 1096.5 446.804C1093.05 448.848 1091.91 453.3 1093.95 456.748L1100.74 468.195L1112.18 461.411C1115.63 459.367 1116.77 454.915 1114.73 451.467Z" fill="#FF7B79"/>
<path d="M1143.58 458.848C1141.74 455.728 1137.92 454.499 1134.65 455.806C1132.41 453.092 1128.47 452.336 1125.35 454.185C1121.91 456.229 1120.77 460.681 1122.81 464.129L1129.59 475.576L1141.04 468.792C1144.49 466.748 1145.63 462.296 1143.58 458.848Z" fill="#FF7B79"/>
<path d="M1172.44 466.229C1170.59 463.109 1166.77 461.88 1163.51 463.188C1161.27 460.473 1157.33 459.717 1154.21 461.566C1150.76 463.61 1149.63 468.062 1151.67 471.511L1158.45 482.957L1169.9 476.173C1173.35 474.129 1174.49 469.677 1172.44 466.229Z" fill="#FF7B79"/>
<path d="M1137.18 423.767C1135.33 420.648 1131.51 419.419 1128.25 420.726C1126.01 418.012 1122.07 417.256 1118.95 419.105C1115.5 421.148 1114.37 425.6 1116.41 429.049L1123.19 440.495L1134.64 433.712C1138.09 431.668 1139.23 427.216 1137.18 423.767Z" fill="#FF7B79"/>
<path d="M1166.04 431.148C1164.19 428.029 1160.37 426.8 1157.11 428.107C1154.87 425.393 1150.93 424.637 1147.81 426.486C1144.36 428.529 1143.23 432.982 1145.27 436.43L1152.05 447.876L1163.5 441.093C1166.95 439.049 1168.09 434.597 1166.04 431.148Z" fill="#FF7B79"/>
<path d="M1163.5 441.093C1166.95 439.049 1168.09 434.597 1166.04 431.148C1164.19 428.029 1160.37 426.8 1157.11 428.107L1152.05 447.877L1163.5 441.093Z" fill="#66E0F7"/>
<path d="M1106.28 446.5C1103.42 443.811 1099.11 443.3 1095.64 445.359C1091.4 447.872 1089.99 453.365 1092.51 457.605L1099.29 469.051C1099.53 469.45 1099.9 469.716 1100.32 469.822C1100.74 469.929 1101.19 469.876 1101.59 469.64L1113.04 462.856C1115.09 461.639 1116.55 459.695 1117.14 457.382C1117.73 455.069 1117.39 452.664 1116.17 450.61C1114.11 447.135 1110.09 445.519 1106.28 446.5ZM1111.33 459.966L1101.32 465.893L1095.4 455.892C1093.83 453.246 1094.71 449.817 1097.35 448.249C1098.66 447.475 1100.19 447.298 1101.59 447.656C1102.7 447.941 1103.73 448.564 1104.5 449.493C1104.96 450.057 1105.74 450.256 1106.42 449.984C1108.94 448.974 1111.89 449.979 1113.28 452.323L1113.28 452.323C1114.04 453.605 1114.26 455.105 1113.89 456.549C1113.52 457.993 1112.61 459.206 1111.33 459.966Z" fill="black"/>
<path d="M1173.89 465.372L1173.89 465.372C1171.83 461.898 1167.81 460.281 1164 461.262C1161.13 458.573 1156.83 458.062 1153.36 460.121C1149.12 462.634 1147.71 468.127 1150.22 472.367L1157.01 483.813C1157.24 484.197 1157.61 484.474 1158.04 484.584C1158.47 484.695 1158.93 484.629 1159.31 484.402L1170.76 477.618C1172.81 476.401 1174.27 474.457 1174.86 472.144C1175.45 469.831 1175.11 467.426 1173.89 465.372ZM1169.04 474.728L1159.04 480.655L1153.12 470.654C1151.55 468.008 1152.42 464.579 1155.07 463.011C1156.38 462.237 1157.91 462.061 1159.31 462.419C1160.42 462.703 1161.45 463.326 1162.21 464.256C1162.68 464.82 1163.46 465.018 1164.13 464.747C1166.66 463.736 1169.61 464.742 1171 467.085C1171.76 468.367 1171.97 469.868 1171.6 471.311C1171.23 472.755 1170.33 473.968 1169.04 474.728Z" fill="black"/>
<path d="M1138.63 422.911C1136.57 419.436 1132.55 417.82 1128.74 418.8C1125.87 416.112 1121.57 415.6 1118.1 417.659C1113.86 420.172 1112.45 425.666 1114.96 429.905L1121.75 441.352C1121.99 441.751 1122.36 442.016 1122.78 442.123C1123.19 442.229 1123.65 442.177 1124.05 441.94L1135.5 435.156C1139.74 432.644 1141.14 427.151 1138.63 422.911ZM1133.78 432.267L1123.78 438.194L1117.85 428.193C1117.1 426.911 1116.88 425.41 1117.25 423.966C1117.62 422.523 1118.53 421.309 1119.81 420.55C1121.12 419.776 1122.65 419.599 1124.05 419.957C1125.16 420.242 1126.19 420.865 1126.95 421.794C1127.42 422.359 1128.2 422.557 1128.87 422.285C1131.4 421.275 1134.35 422.28 1135.74 424.624C1137.31 427.27 1136.43 430.698 1133.78 432.267Z" fill="black"/>
<path d="M1167.49 430.292C1165.43 426.817 1161.41 425.201 1157.6 426.182C1154.73 423.494 1150.43 422.982 1146.96 425.041C1142.72 427.553 1141.31 433.047 1143.82 437.286L1150.61 448.733C1150.84 449.116 1151.21 449.393 1151.64 449.504C1152.07 449.614 1152.53 449.548 1152.91 449.321L1164.36 442.538C1168.6 440.025 1170 434.532 1167.49 430.292ZM1146.11 431.347C1146.48 429.904 1147.39 428.69 1148.67 427.931C1149.97 427.157 1151.51 426.98 1152.9 427.338C1153.76 427.558 1154.57 427.982 1155.25 428.592L1151.43 443.531L1146.71 435.574C1145.95 434.292 1145.74 432.791 1146.11 431.347ZM1162.64 439.648L1154.69 444.364L1158.51 429.423C1160.84 428.872 1163.35 429.897 1164.6 432.005C1165.36 433.287 1165.57 434.787 1165.2 436.231C1164.83 437.674 1163.92 438.888 1162.64 439.648Z" fill="black"/>
<path d="M1145.03 457.991C1142.97 454.517 1138.95 452.9 1135.14 453.881C1132.27 451.193 1127.97 450.681 1124.5 452.74C1120.26 455.253 1118.85 460.746 1121.37 464.986L1128.15 476.432C1128.39 476.831 1128.76 477.097 1129.18 477.203C1129.6 477.31 1130.05 477.257 1130.45 477.021L1135.39 474.091C1136.19 473.618 1136.46 472.588 1135.98 471.789C1135.51 470.991 1134.48 470.728 1133.68 471.201L1130.18 473.274L1124.26 463.273C1122.69 460.627 1123.56 457.198 1126.21 455.63C1128.55 454.241 1131.63 454.776 1133.35 456.875C1133.82 457.439 1134.6 457.638 1135.28 457.366C1137.8 456.355 1140.75 457.36 1142.14 459.704C1142.6 460.479 1142.86 461.323 1142.91 462.214C1142.96 463.14 1143.76 463.846 1144.69 463.791C1145.61 463.737 1146.32 462.942 1146.26 462.016C1146.18 460.605 1145.75 459.214 1145.03 457.991Z" fill="black"/>
<path d="M1141.46 467.165C1141.03 467.055 1140.56 467.122 1140.18 467.347C1139.8 467.573 1139.52 467.948 1139.41 468.376C1139.3 468.804 1139.37 469.268 1139.6 469.648C1139.82 470.028 1140.2 470.31 1140.62 470.419C1141.05 470.529 1141.52 470.462 1141.9 470.237C1142.28 470.012 1142.56 469.636 1142.67 469.208C1142.78 468.78 1142.71 468.316 1142.49 467.936C1142.26 467.556 1141.89 467.275 1141.46 467.165Z" fill="black"/>
</g>
<g clip-path="url(#clip2)">
<path d="M315.916 454.347C313.621 454.181 311.616 452.732 310.737 450.604L308.197 444.45L314.408 441.887L316.948 448.041C317.826 450.169 317.427 452.61 315.916 454.347Z" fill="#FF7B79"/>
<path d="M300.39 460.756L294.179 463.319L283.926 438.477L290.137 435.913L300.39 460.756Z" fill="white"/>
<path d="M321.19 423.097L327.401 420.534L337.654 445.376L331.443 447.939L321.19 423.097Z" fill="white"/>
<path d="M316.517 429.387L309.853 413.239L303.642 415.802L301.079 409.592L294.868 412.155L297.432 418.366L291.221 420.929L297.886 437.076L291.675 439.64L297.827 454.545L304.037 451.982L301.987 447.013L308.197 444.45L314.408 441.887L320.618 439.324L322.669 444.292L328.88 441.729L322.728 426.823L316.517 429.387Z" fill="#66E0F7"/>
<path d="M305.634 438.24L311.845 435.676L314.408 441.887L308.197 444.45L305.634 438.24Z" fill="white"/>
<path d="M274.72 393.274L262.298 398.401L260.392 393.782L261.691 390.656L269.688 387.356L272.813 388.655L274.72 393.274Z" fill="#D5EA79"/>
<path d="M330.139 387.544L317.718 392.67L315.811 388.051C316.319 386.83 316.603 386.146 317.111 384.925L325.107 381.625C326.327 382.132 327.012 382.417 328.232 382.924L330.139 387.544Z" fill="#D5EA79"/>
<path d="M275.325 422.038L262.904 427.165L260.997 422.546L262.297 419.42L270.293 416.12L273.418 417.419L275.325 422.038Z" fill="#D5EA79"/>
<path d="M326.76 418.981L320.549 421.544C319.692 421.898 319.283 422.881 319.637 423.738L320.534 425.912L317.429 427.193L311.406 412.598C311.052 411.741 310.07 411.333 309.212 411.687L304.554 413.609L302.632 408.951C302.278 408.094 301.296 407.685 300.438 408.039L298.886 408.68L296.963 404.022C296.609 403.165 295.627 402.756 294.77 403.11C293.912 403.464 293.504 404.446 293.858 405.304L295.78 409.962L294.228 410.602C293.37 410.956 292.962 411.938 293.316 412.796L295.238 417.454L290.58 419.376C289.723 419.73 289.315 420.712 289.668 421.57L295.692 436.165L292.587 437.446L291.69 435.273C291.336 434.415 290.354 434.007 289.496 434.361L283.286 436.924C282.428 437.278 282.02 438.26 282.374 439.117L292.627 463.96C292.981 464.817 293.963 465.226 294.82 464.872L301.031 462.308C301.888 461.954 302.296 460.972 301.943 460.115L300.02 455.457L304.678 453.535C305.536 453.181 305.944 452.198 305.59 451.341L304.18 447.925L307.285 446.644L309.185 451.246C310.313 453.979 312.846 455.81 315.795 456.023C316.059 456.042 316.319 455.999 316.557 455.9C316.795 455.802 317.01 455.649 317.184 455.45C319.124 453.218 319.629 450.134 318.501 447.401L316.601 442.799L319.707 441.517L321.116 444.933C321.47 445.79 322.452 446.199 323.31 445.845L327.968 443.922L329.89 448.58C330.244 449.438 331.226 449.846 332.084 449.492L338.294 446.929C339.152 446.575 339.56 445.593 339.206 444.735L336.963 439.301C336.609 438.444 335.627 438.035 334.77 438.389C333.912 438.743 333.504 439.725 333.858 440.583L335.46 444.464L332.355 445.746L323.383 424.009L326.489 422.727L328.091 426.609C328.445 427.466 329.427 427.875 330.284 427.521C331.142 427.167 331.55 426.185 331.196 425.327L328.953 419.893C328.599 419.036 327.617 418.627 326.76 418.981ZM298.197 459.844L295.091 461.125L286.12 439.388L289.225 438.107L298.197 459.844ZM312.214 440.975L309.109 442.257L307.828 439.151L310.933 437.87L312.214 440.975ZM315.395 448.682C315.92 449.954 315.822 451.358 315.162 452.521C313.875 452.162 312.815 451.235 312.29 449.964L310.391 445.362L313.496 444.08L315.395 448.682ZM323.581 442.099L322.171 438.683C321.817 437.825 320.835 437.417 319.978 437.771L315.32 439.693L313.397 435.036C313.043 434.178 312.061 433.77 311.204 434.124L304.993 436.687C304.136 437.041 303.728 438.023 304.081 438.88L306.004 443.538L301.346 445.461C300.488 445.815 300.08 446.797 300.434 447.654L301.844 451.07L298.739 452.352L293.868 440.552L298.526 438.629C299.384 438.275 299.792 437.293 299.438 436.436L293.415 421.841L298.073 419.918C298.93 419.564 299.338 418.582 298.984 417.725L297.062 413.067L300.167 411.785L302.09 416.443C302.443 417.301 303.426 417.709 304.283 417.355L308.941 415.433L314.965 430.028C315.319 430.885 316.301 431.293 317.158 430.939L321.816 429.017L326.686 440.817L323.581 442.099Z" fill="black"/>
<path d="M293.104 399.074C293.961 398.72 294.369 397.738 294.015 396.88L291.452 390.669C291.098 389.812 290.116 389.404 289.259 389.758C288.401 390.112 287.993 391.094 288.347 391.951L290.91 398.162C291.264 399.019 292.246 399.427 293.104 399.074Z" fill="black"/>
<path d="M287.593 385.721C288.45 385.367 288.858 384.385 288.504 383.527L285.941 377.317C285.587 376.459 284.605 376.051 283.748 376.405C282.89 376.759 282.482 377.741 282.836 378.598L285.399 384.809C285.753 385.666 286.735 386.075 287.593 385.721Z" fill="black"/>
<path d="M260.455 400.979L261.387 400.595L262.284 402.768C262.638 403.626 263.62 404.034 264.477 403.68C265.335 403.326 265.743 402.344 265.389 401.487L264.492 399.313L267.597 398.031L268.494 400.205C268.848 401.062 269.83 401.471 270.688 401.117C271.545 400.763 271.954 399.781 271.6 398.923L270.703 396.75L273.808 395.468L274.705 397.642C275.059 398.499 276.041 398.908 276.898 398.554C277.756 398.2 278.164 397.218 277.81 396.36L276.913 394.186L277.845 393.802C278.702 393.448 279.11 392.466 278.757 391.608C278.403 390.751 277.421 390.343 276.563 390.697L275.631 391.081L274.366 388.015C274.196 387.603 273.869 387.275 273.458 387.104L270.332 385.805C269.921 385.634 269.459 385.634 269.047 385.803L266.601 386.813L266.067 385.519C265.713 384.661 264.731 384.253 263.874 384.607C263.016 384.961 262.608 385.943 262.962 386.801L263.496 388.094L261.051 389.104C260.639 389.274 260.311 389.6 260.14 390.012L258.841 393.137C258.67 393.548 258.669 394.011 258.839 394.423L260.105 397.489L259.173 397.874C258.316 398.228 257.908 399.21 258.262 400.067C258.615 400.925 259.598 401.333 260.455 400.979ZM262.21 393.784L262.975 391.943L269.685 389.174L271.526 389.94L272.526 392.363L263.21 396.208L262.21 393.784Z" fill="black"/>
<path d="M331.982 384.966L331.051 385.35L329.785 382.284C329.615 381.872 329.289 381.544 328.877 381.374L325.752 380.074C325.34 379.903 324.878 379.902 324.466 380.072L322.021 381.082L321.486 379.788C321.133 378.93 320.151 378.522 319.293 378.876C318.435 379.23 318.027 380.212 318.381 381.069L318.915 382.363L316.47 383.373C316.058 383.543 315.731 383.869 315.56 384.28L314.26 387.406C314.089 387.818 314.089 388.28 314.259 388.692L315.524 391.758L314.593 392.143C313.735 392.497 313.327 393.479 313.681 394.336C314.035 395.194 315.017 395.602 315.874 395.248L316.806 394.863L317.703 397.037C318.057 397.895 319.039 398.303 319.896 397.949C320.754 397.595 321.162 396.613 320.808 395.756L319.911 393.582L323.016 392.3L323.914 394.474C324.267 395.331 325.249 395.74 326.107 395.386C326.965 395.032 327.373 394.05 327.019 393.192L326.122 391.019L329.227 389.737L330.124 391.911C330.478 392.768 331.46 393.176 332.318 392.823C333.175 392.469 333.583 391.486 333.229 390.629L332.332 388.455L333.264 388.071C334.121 387.717 334.53 386.735 334.176 385.877C333.822 385.02 332.84 384.612 331.982 384.966ZM317.629 388.053L318.395 386.212L325.104 383.443L326.945 384.208L327.945 386.632L318.629 390.477L317.629 388.053Z" fill="black"/>
<path d="M278.415 425.124L277.518 422.95L278.45 422.566C279.307 422.212 279.716 421.23 279.362 420.372C279.008 419.515 278.026 419.107 277.168 419.461L276.237 419.845L274.971 416.779C274.801 416.367 274.475 416.039 274.063 415.869L270.938 414.569C270.526 414.398 270.064 414.397 269.652 414.567L267.207 415.577L266.673 414.283C266.319 413.425 265.337 413.017 264.479 413.371C263.622 413.725 263.213 414.707 263.567 415.564L264.101 416.858L261.656 417.868C261.244 418.037 260.917 418.364 260.746 418.776L259.446 421.901C259.275 422.313 259.275 422.775 259.445 423.187L260.71 426.253L259.779 426.638C258.921 426.992 258.513 427.974 258.867 428.831C259.221 429.689 260.203 430.097 261.06 429.743L261.992 429.358L262.889 431.532C263.243 432.39 264.225 432.798 265.082 432.444C265.94 432.09 266.348 431.108 265.994 430.251L265.097 428.077L268.202 426.795L269.1 428.969C269.453 429.826 270.436 430.235 271.293 429.881C272.151 429.527 272.559 428.545 272.205 427.687L271.308 425.514L274.413 424.232L275.31 426.406C275.664 427.263 276.646 427.671 277.504 427.317C278.361 426.964 278.769 425.981 278.415 425.124ZM262.815 422.548L263.581 420.707L270.29 417.938L272.131 418.703L273.131 421.127L263.816 424.972L262.815 422.548Z" fill="black"/>
<path d="M331.886 431.402C331.478 431.571 331.146 431.902 330.976 432.31C330.807 432.718 330.806 433.188 330.974 433.596C331.143 434.004 331.474 434.336 331.882 434.506C332.29 434.675 332.759 434.676 333.168 434.508C333.576 434.339 333.908 434.008 334.078 433.6C334.247 433.192 334.248 432.723 334.08 432.314C333.911 431.906 333.58 431.574 333.172 431.404C332.764 431.235 332.295 431.234 331.886 431.402Z" fill="black"/>
</g>
<g clip-path="url(#clip3)">
<path d="M1288.65 338.882L1301.03 344.911L1295 357.295L1282.62 351.266L1288.65 338.882Z" fill="#FF7B79"/>
<path d="M1307.06 332.528L1319.44 338.557L1313.41 350.941L1301.03 344.912L1307.06 332.528Z" fill="#FF7B79"/>
<path d="M1313.09 320.144L1325.47 326.173L1319.44 338.557L1307.06 332.528L1313.09 320.144Z" fill="#FF7B79"/>
<path d="M1294.68 326.499L1307.06 332.528L1301.03 344.912L1288.65 338.883L1294.68 326.499Z" fill="#FF7B79"/>
<path d="M1245.47 333.179L1257.85 339.208L1251.82 351.592L1239.44 345.562L1245.47 333.179Z" fill="#FFEE80"/>
<path d="M1257.85 339.208L1270.23 345.237L1264.2 357.621L1251.82 351.591L1257.85 339.208Z" fill="#FFEE80"/>
<path d="M1251.5 320.795L1263.88 326.824L1257.85 339.208L1245.47 333.179L1251.5 320.795Z" fill="#FFEE80"/>
<path d="M1263.88 326.824L1276.26 332.853L1270.23 345.237L1257.85 339.208L1263.88 326.824Z" fill="#FFEE80"/>
<path d="M1270.23 345.237L1282.62 351.266L1276.59 363.65L1264.2 357.621L1270.23 345.237Z" fill="#66E0F7"/>
<path d="M1282.62 351.266L1295 357.295L1288.97 369.679L1276.59 363.65L1282.62 351.266Z" fill="#66E0F7"/>
<path d="M1295 357.295L1307.39 363.325L1301.36 375.708L1288.97 369.679L1295 357.295Z" fill="#66E0F7"/>
<path d="M1301.03 344.912L1313.41 350.941L1307.39 363.325L1295 357.295L1301.03 344.912Z" fill="#66E0F7"/>
<path d="M1275.61 271.26L1288 277.289L1281.97 289.673L1269.58 283.644L1275.61 271.26Z" fill="#D5EA79"/>
<path d="M1288 277.289L1300.38 283.318L1294.35 295.702L1281.97 289.673L1288 277.289Z" fill="#D5EA79"/>
<path d="M1300.38 283.318L1312.76 289.348L1306.73 301.731L1294.35 295.702L1300.38 283.318Z" fill="#D5EA79"/>
<path d="M1312.76 289.347L1325.15 295.377L1319.12 307.76L1306.73 301.731L1312.76 289.347Z" fill="#D5EA79"/>
<path d="M1268.85 285.154L1286.82 293.904C1287.65 294.31 1288.66 293.963 1289.06 293.129C1289.47 292.295 1289.12 291.289 1288.29 290.883L1284.21 288.898L1288.77 279.535L1298.13 284.093L1296.15 288.171C1295.74 289.005 1296.09 290.01 1296.92 290.416C1297.76 290.823 1298.76 290.475 1299.17 289.641L1301.15 285.564L1310.52 290.123L1305.96 299.486L1301.88 297.501C1301.05 297.095 1300.04 297.442 1299.64 298.276C1299.23 299.11 1299.58 300.115 1300.41 300.521L1318.38 309.271C1319.22 309.677 1320.22 309.33 1320.63 308.496L1326.66 296.112C1327.06 295.278 1326.72 294.273 1325.88 293.867L1276.35 269.75C1275.51 269.344 1274.51 269.691 1274.1 270.525L1268.07 282.909C1267.67 283.743 1268.01 284.748 1268.85 285.154ZM1318.34 305.515L1308.98 300.956L1313.54 291.593L1322.9 296.152L1318.34 305.515ZM1276.39 273.506L1285.75 278.064L1281.19 287.428L1271.83 282.869L1276.39 273.506Z" fill="black"/>
<path d="M1326.21 324.663L1313.82 318.634C1312.99 318.228 1311.98 318.575 1311.58 319.409L1306.28 330.283L1295.41 324.989C1294.58 324.583 1293.57 324.93 1293.17 325.764L1281.84 349.021L1272.48 344.462L1277.77 333.589C1278.18 332.755 1277.83 331.749 1277 331.343L1252.23 319.285C1251.4 318.879 1250.39 319.226 1249.99 320.06L1237.93 344.827C1237.52 345.661 1237.87 346.667 1238.7 347.073L1300.62 377.219C1301.45 377.625 1302.46 377.278 1302.87 376.444L1326.98 326.909C1327.39 326.075 1327.04 325.069 1326.21 324.663ZM1289.42 341.128L1298.79 345.687L1294.23 355.05L1284.86 350.491L1289.42 341.128ZM1317.2 339.332L1312.64 348.695L1303.28 344.137L1307.83 334.774L1317.2 339.332ZM1301.81 347.157L1311.17 351.716L1306.61 361.079L1297.25 356.521L1301.81 347.157ZM1313.86 322.39L1323.23 326.948L1318.67 336.312L1309.31 331.753L1313.86 322.39ZM1295.45 328.744L1304.81 333.303L1300.26 342.666L1290.89 338.108L1295.45 328.744ZM1269.46 342.992L1260.1 338.433L1264.65 329.07L1274.02 333.628L1269.46 342.992ZM1252.27 323.041L1261.63 327.599L1257.08 336.963L1247.71 332.404L1252.27 323.041ZM1246.24 335.424L1255.6 339.983L1251.05 349.346L1241.68 344.788L1246.24 335.424ZM1258.63 341.454L1267.99 346.012L1263.43 355.375L1254.07 350.817L1258.63 341.454ZM1271.01 347.483L1280.37 352.041L1275.81 361.405L1266.45 356.846L1271.01 347.483ZM1283.39 353.512L1292.76 358.07L1288.2 367.434L1278.83 362.875L1283.39 353.512ZM1300.58 373.463L1291.22 368.904L1295.78 359.541L1305.14 364.1L1300.58 373.463Z" fill="black"/>
<path d="M1295.09 294.192C1294.69 293.999 1294.22 293.97 1293.8 294.115C1293.38 294.259 1293.03 294.57 1292.84 294.967C1292.65 295.364 1292.62 295.832 1292.76 296.25C1292.91 296.668 1293.22 297.019 1293.62 297.212C1294.01 297.406 1294.48 297.434 1294.9 297.29C1295.32 297.146 1295.67 296.835 1295.86 296.438C1296.05 296.04 1296.08 295.572 1295.94 295.154C1295.79 294.737 1295.48 294.385 1295.09 294.192Z" fill="black"/>
</g>
<g clip-path="url(#clip4)">
<path d="M124.762 289.557L116.903 291.353C112.563 292.345 109.849 296.668 110.841 301.008L134.417 295.62C133.425 291.279 129.102 288.565 124.762 289.557Z" fill="#66E0F7"/>
<path d="M169.222 320.507L156.546 301.179C152.905 295.629 146.197 292.927 139.725 294.406L122.644 298.31L105.533 302.221C99.0612 303.7 94.1921 309.048 93.324 315.629L90.3024 338.544C89.1067 347.612 97.3208 355.091 106.237 353.053C110.674 352.039 114.268 348.799 115.736 344.491L117.173 340.272C117.977 337.913 119.945 336.138 122.375 335.583L130.726 333.674L139.047 331.772C141.477 331.217 144.021 331.96 145.771 333.736L148.897 336.912C152.091 340.155 156.736 341.512 161.172 340.498C170.089 338.46 174.238 328.155 169.222 320.507Z" fill="white"/>
<path d="M121.521 341.291C124.414 340.629 126.224 337.748 125.563 334.854C124.901 331.961 122.02 330.151 119.126 330.813C116.233 331.474 114.423 334.356 115.084 337.249C115.746 340.143 118.627 341.952 121.521 341.291Z" fill="#D9BDE9"/>
<path d="M142.297 336.543C145.19 335.881 147 332.999 146.338 330.106C145.677 327.213 142.795 325.403 139.902 326.064C137.008 326.726 135.199 329.607 135.86 332.501C136.522 335.394 139.403 337.204 142.297 336.543Z" fill="#D9BDE9"/>
<path d="M150.512 309.914C150.382 307.878 148.625 306.333 146.589 306.464C144.553 306.594 143.008 308.351 143.139 310.387C143.269 312.423 145.026 313.968 147.062 313.837C149.098 313.707 150.643 311.95 150.512 309.914Z" fill="#C193DC"/>
<path d="M133.258 317.045C135.247 316.591 136.491 314.61 136.036 312.62C135.582 310.631 133.601 309.387 131.611 309.842C129.622 310.296 128.378 312.277 128.833 314.267C129.287 316.256 131.269 317.5 133.258 317.045Z" fill="#D5EA79"/>
<path d="M114.055 314.199L112.745 314.498L112.445 313.188C112.032 311.38 110.231 310.249 108.423 310.662C106.614 311.075 105.483 312.876 105.897 314.685L106.196 315.995L104.886 316.294C103.078 316.707 101.947 318.508 102.36 320.317C102.773 322.125 104.574 323.256 106.383 322.843L107.693 322.544L107.992 323.853C108.405 325.662 110.206 326.793 112.015 326.379C113.823 325.966 114.954 324.165 114.541 322.357L114.241 321.047L115.551 320.748C117.36 320.334 118.491 318.533 118.077 316.725C117.664 314.916 115.863 313.785 114.055 314.199Z" fill="#FF7B79"/>
<path d="M170.627 319.586L168.434 316.243C167.925 315.468 166.884 315.251 166.109 315.76C165.333 316.269 165.117 317.31 165.625 318.085L167.818 321.428C169.903 324.607 170.284 328.453 168.864 331.979C167.444 335.506 164.504 338.014 160.798 338.861C156.901 339.752 152.899 338.583 150.094 335.734L147.822 333.427C148.19 332.269 148.265 331.001 147.975 329.732C147.109 325.941 143.319 323.561 139.528 324.428C136.3 325.165 134.097 328.021 134.047 331.193L126.627 332.889C125.204 330.054 121.979 328.438 118.752 329.176C114.96 330.043 112.581 333.832 113.447 337.624C113.737 338.892 114.355 340.002 115.19 340.885L114.146 343.95C112.857 347.735 109.76 350.526 105.863 351.416C102.157 352.263 98.4194 351.281 95.6084 348.722C92.7975 346.162 91.4703 342.533 91.9675 338.764L94.9892 315.849C95.7614 309.993 100.149 305.175 105.907 303.859L140.1 296.044C145.857 294.728 151.903 297.162 155.142 302.101L157.335 305.445C157.843 306.22 158.885 306.437 159.66 305.928C160.436 305.419 160.652 304.378 160.143 303.602L157.951 300.259C153.945 294.152 146.471 291.142 139.351 292.77L135.536 293.642C133.739 289.361 129.066 286.851 124.388 287.92L122.096 288.444L121.815 287.216C120.711 282.386 115.884 279.355 111.054 280.459L93.8635 284.388C90.8392 285.079 87.8165 283.181 87.1253 280.157C86.4341 277.133 88.3322 274.11 91.3564 273.419L115.69 267.857C116.594 267.651 117.16 266.75 116.953 265.846C116.746 264.942 115.846 264.376 114.942 264.583L90.6081 270.144C85.7783 271.248 82.747 276.075 83.8508 280.905C84.9547 285.735 89.7821 288.766 94.6119 287.662L111.803 283.733C114.827 283.042 117.85 284.94 118.541 287.965L118.822 289.193L116.529 289.716C111.852 290.785 108.733 295.076 108.974 299.712L105.159 300.584C98.0391 302.212 92.614 308.17 91.6592 315.41L88.6375 338.325C87.9945 343.2 89.7111 347.895 93.3472 351.206C96.9831 354.516 101.818 355.787 106.612 354.691C111.653 353.539 115.658 349.928 117.326 345.033L118.105 342.746C119.289 343.141 120.592 343.227 121.896 342.929C125.123 342.191 127.326 339.335 127.376 336.164L134.796 334.468C136.219 337.303 139.444 338.918 142.671 338.181C143.974 337.883 145.11 337.24 146.006 336.37L147.701 338.091C151.329 341.776 156.505 343.288 161.547 342.136C166.34 341.04 170.143 337.795 171.98 333.234C173.817 328.672 173.324 323.698 170.627 319.586ZM117.278 292.991L125.137 291.195C128.001 290.54 130.864 291.933 132.187 294.407L112.323 298.947C112.44 296.144 114.414 293.645 117.278 292.991ZM121.147 339.654C119.161 340.108 117.176 338.862 116.722 336.876C116.268 334.89 117.514 332.905 119.5 332.451C121.487 331.997 123.472 333.243 123.926 335.229C124.379 337.215 123.133 339.2 121.147 339.654ZM137.498 332.127C137.044 330.141 138.29 328.156 140.276 327.702C142.262 327.248 144.247 328.495 144.701 330.481C145.155 332.467 143.909 334.452 141.923 334.906C139.937 335.36 137.952 334.113 137.498 332.127Z" fill="black"/>
<path d="M141.603 311.348C142.263 314.237 145.151 316.05 148.04 315.39C150.928 314.729 152.741 311.842 152.081 308.953C151.421 306.064 148.534 304.251 145.645 304.911C142.756 305.572 140.943 308.459 141.603 311.348ZM148.807 309.702C149.054 310.785 148.374 311.868 147.291 312.115C146.208 312.363 145.125 311.683 144.877 310.6C144.63 309.516 145.31 308.434 146.393 308.186C147.476 307.938 148.559 308.618 148.807 309.702Z" fill="black"/>
<path d="M127.195 314.641C127.856 317.53 130.743 319.343 133.632 318.682C136.521 318.022 138.334 315.135 137.674 312.246C137.013 309.357 134.126 307.544 131.237 308.204C128.348 308.864 126.535 311.752 127.195 314.641ZM134.399 312.994C134.647 314.078 133.967 315.16 132.884 315.408C131.8 315.656 130.718 314.976 130.47 313.892C130.222 312.809 130.902 311.726 131.986 311.479C133.069 311.231 134.152 311.911 134.399 312.994Z" fill="black"/>
<path d="M108.048 309.025C105.447 309.62 103.776 312.141 104.197 314.74C101.674 315.489 100.128 318.089 100.723 320.691C101.317 323.293 103.839 324.964 106.437 324.543C107.187 327.066 109.787 328.611 112.389 328.017C114.991 327.422 116.662 324.901 116.24 322.302C118.764 321.553 120.309 318.952 119.715 316.351C119.12 313.749 116.598 312.078 114 312.499C113.25 309.976 110.65 308.43 108.048 309.025ZM116.44 317.099C116.646 318.002 116.08 318.904 115.177 319.11L113.867 319.41C112.963 319.616 112.398 320.517 112.604 321.421L112.904 322.731C113.11 323.634 112.543 324.536 111.641 324.742C110.738 324.948 109.836 324.382 109.629 323.479L109.33 322.169C109.123 321.265 108.223 320.7 107.318 320.906L106.009 321.206C105.106 321.412 104.204 320.845 103.997 319.943C103.791 319.04 104.358 318.138 105.26 317.931L106.57 317.632C107.474 317.425 108.04 316.525 107.833 315.62L107.534 314.311C107.327 313.408 107.894 312.506 108.797 312.299C109.7 312.093 110.602 312.66 110.808 313.562L111.108 314.872C111.314 315.776 112.215 316.342 113.119 316.135L114.429 315.836C115.331 315.629 116.234 316.196 116.44 317.099Z" fill="black"/>
<path d="M161.247 311.216C161.346 311.649 161.617 312.029 161.992 312.266C162.366 312.501 162.827 312.58 163.259 312.481C163.689 312.383 164.072 312.111 164.307 311.737C164.541 311.361 164.62 310.9 164.521 310.468C164.423 310.037 164.151 309.655 163.777 309.42C163.403 309.185 162.941 309.107 162.51 309.205C162.078 309.304 161.697 309.575 161.462 309.949C161.227 310.323 161.149 310.786 161.247 311.216Z" fill="black"/>
</g>
<g clip-path="url(#clip5)">
<path d="M1094.47 173.117C1100.36 173.881 1105.75 169.727 1106.51 163.839C1107.28 157.952 1103.12 152.559 1097.23 151.795C1091.35 151.031 1085.95 155.185 1085.19 161.073C1084.43 166.96 1088.58 172.353 1094.47 173.117Z" fill="white"/>
<path d="M1116.03 205.958L1084.78 211.81C1082.07 212.319 1079.99 214.52 1079.63 217.262C1079.18 220.758 1081.64 223.959 1085.14 224.413L1116.66 228.503C1122.91 229.314 1128.64 224.903 1129.45 218.65C1130.45 210.957 1123.65 204.53 1116.03 205.958Z" fill="#E7E9EF"/>
<path d="M1121.71 219.231C1122.83 217.246 1122.13 214.724 1120.15 213.599C1118.16 212.474 1115.64 213.171 1114.52 215.156C1113.39 217.141 1114.09 219.662 1116.07 220.787C1118.06 221.913 1120.58 221.216 1121.71 219.231Z" fill="#C193DC"/>
<path d="M1068.6 161.525L1097.32 175.157C1099.81 176.343 1101.26 179.002 1100.91 181.744C1100.45 185.24 1097.25 187.706 1093.76 187.252L1062.24 183.162C1055.98 182.35 1051.57 176.623 1052.38 170.37C1053.38 162.677 1061.59 158.198 1068.6 161.525Z" fill="#E7E9EF"/>
<path d="M1064.7 175.855C1066.91 175.303 1068.26 173.06 1067.7 170.846C1067.15 168.631 1064.91 167.284 1062.69 167.837C1060.48 168.39 1059.13 170.633 1059.69 172.847C1060.24 175.061 1062.48 176.408 1064.7 175.855Z" fill="#C193DC"/>
<path d="M1127.13 207.663C1124.04 204.749 1119.89 203.526 1115.72 204.307L1084.47 210.159C1081.03 210.805 1078.41 213.572 1077.96 217.046C1077.39 221.455 1080.51 225.507 1084.92 226.079L1116.44 230.169C1123.6 231.098 1130.19 226.028 1131.12 218.866C1131.66 214.66 1130.21 210.577 1127.13 207.663ZM1116.88 226.837L1085.35 222.747C1082.78 222.413 1080.96 220.05 1081.3 217.478C1081.56 215.452 1083.08 213.838 1085.09 213.461L1116.34 207.609C1119.43 207.028 1122.53 207.938 1124.82 210.104C1127.11 212.27 1128.19 215.306 1127.79 218.433C1127.09 223.758 1122.2 227.528 1116.88 226.837Z" fill="black"/>
<path d="M1118.88 211.417C1115.7 211.004 1112.78 213.254 1112.36 216.432C1111.95 219.61 1114.2 222.531 1117.38 222.944C1120.56 223.356 1123.48 221.106 1123.89 217.928C1124.3 214.75 1122.05 211.829 1118.88 211.417ZM1117.81 219.612C1116.47 219.438 1115.52 218.206 1115.7 216.865C1115.87 215.523 1117.1 214.574 1118.44 214.748C1119.78 214.922 1120.73 216.155 1120.56 217.496C1120.39 218.837 1119.15 219.786 1117.81 219.612Z" fill="black"/>
<path d="M1093.54 188.918C1097.95 189.49 1102 186.369 1102.57 181.96C1102.96 178.983 1101.67 176.102 1099.31 174.393C1103.91 173.054 1107.52 169.103 1108.18 164.056C1109.06 157.259 1104.25 151.012 1097.45 150.13C1090.65 149.248 1084.41 154.06 1083.52 160.857C1083.24 163.064 1083.56 165.213 1084.34 167.139L1069.32 160.008C1065.49 158.189 1061.16 158.31 1057.43 160.34C1053.71 162.371 1051.26 165.948 1050.72 170.154C1049.79 177.315 1054.86 183.898 1062.02 184.828L1067.79 185.576C1068.71 185.695 1069.55 185.047 1069.67 184.127C1069.79 183.207 1069.14 182.364 1068.22 182.245L1062.45 181.496C1057.13 180.805 1053.36 175.911 1054.05 170.586C1054.45 167.459 1056.27 164.8 1059.04 163.29C1061.81 161.78 1065.03 161.69 1067.88 163.042L1096.6 176.675C1098.44 177.551 1099.51 179.502 1099.24 181.528C1098.91 184.1 1096.54 185.92 1093.97 185.586L1083.21 184.19C1082.29 184.071 1081.45 184.72 1081.33 185.64C1081.21 186.56 1081.86 187.402 1082.78 187.521L1093.54 188.918ZM1097.02 153.461C1101.98 154.105 1105.49 158.663 1104.85 163.623C1104.2 168.583 1099.64 172.095 1094.68 171.451C1089.72 170.807 1086.21 166.249 1086.86 161.289C1087.5 156.329 1092.06 152.818 1097.02 153.461Z" fill="black"/>
<path d="M1057.94 171.091C1057.53 174.269 1059.78 177.19 1062.96 177.603C1066.14 178.015 1069.06 175.765 1069.47 172.587C1069.88 169.409 1067.63 166.488 1064.45 166.076C1061.27 165.663 1058.35 167.913 1057.94 171.091ZM1066.14 172.155C1065.96 173.496 1064.73 174.445 1063.39 174.271C1062.05 174.097 1061.1 172.865 1061.27 171.523C1061.45 170.182 1062.68 169.233 1064.02 169.407C1065.36 169.581 1066.31 170.814 1066.14 172.155Z" fill="black"/>
<path d="M1075.72 183.217C1075.28 183.16 1074.82 183.283 1074.47 183.552C1074.12 183.822 1073.89 184.229 1073.83 184.667C1073.78 185.105 1073.9 185.558 1074.17 185.908C1074.44 186.258 1074.85 186.492 1075.28 186.549C1075.72 186.606 1076.17 186.483 1076.53 186.214C1076.88 185.944 1077.11 185.537 1077.16 185.099C1077.22 184.661 1077.1 184.208 1076.83 183.858C1076.56 183.508 1076.16 183.274 1075.72 183.217Z" fill="black"/>
</g>
<g clip-path="url(#clip6)">
<path d="M343.831 224.48L277.265 243.401C273.696 244.416 269.98 242.345 268.965 238.775L259.78 206.462C258.766 202.892 260.837 199.176 264.406 198.162L330.972 179.241C334.541 178.226 338.257 180.297 339.272 183.866L348.457 216.18C349.471 219.749 347.4 223.465 343.831 224.48Z" fill="#99EBFA"/>
<path d="M276.129 216.009L276.3 211.003C276.346 209.677 278.064 209.186 278.802 210.289L281.595 214.456L286.445 213.077C287.72 212.715 288.713 214.196 287.894 215.237L284.786 219.188L287.589 223.338C288.331 224.437 287.23 225.844 285.985 225.387L281.283 223.662L278.181 227.626C277.363 228.669 275.688 228.056 275.738 226.731L275.93 221.701L271.201 219.984C269.954 219.531 270.018 217.747 271.293 217.384L276.129 216.009Z" fill="#FFEE80"/>
<path d="M300.379 209.117L300.55 204.11C300.595 202.784 302.313 202.294 303.052 203.396L305.844 207.563L310.694 206.184C311.969 205.822 312.962 207.303 312.143 208.344L309.035 212.295L311.838 216.446C312.58 217.545 311.479 218.951 310.234 218.494L305.532 216.77L302.43 220.733C301.612 221.777 299.937 221.163 299.987 219.838L300.179 214.808L295.45 213.091C294.203 212.638 294.267 210.854 295.543 210.491L300.379 209.116L300.379 209.117Z" fill="#FFEE80"/>
<path d="M324.628 202.224L324.799 197.217C324.844 195.891 326.562 195.401 327.301 196.503L330.094 200.67L334.944 199.291C336.218 198.929 337.211 200.41 336.392 201.452L333.284 205.403L336.087 209.553C336.829 210.652 335.728 212.058 334.483 211.601L329.782 209.877L326.679 213.84C325.862 214.884 324.186 214.27 324.236 212.945L324.428 207.916L319.699 206.198C318.452 205.745 318.516 203.961 319.792 203.598L324.628 202.223L324.628 202.224Z" fill="#FFEE80"/>
<path d="M289.349 212.695C288.612 211.595 287.26 211.099 285.986 211.461L282.311 212.506L280.198 209.354C279.46 208.253 278.108 207.757 276.834 208.119C276.833 208.12 276.831 208.12 276.83 208.12C275.555 208.485 274.667 209.62 274.622 210.946L274.492 214.728L270.834 215.768C269.559 216.131 268.67 217.265 268.622 218.59C268.575 219.915 269.381 221.11 270.627 221.563L274.204 222.862L274.059 226.667C274.009 227.992 274.811 229.188 276.056 229.644C276.678 229.872 277.334 229.887 277.938 229.716C278.543 229.544 279.094 229.184 279.503 228.661L281.852 225.661L285.406 226.964C286.651 227.421 288.037 227.026 288.855 225.982C289.672 224.938 289.723 223.498 288.981 222.399L286.864 219.264L289.214 216.276C290.033 215.234 290.087 213.796 289.349 212.695ZM283.465 218.15C283.014 218.724 282.985 219.523 283.394 220.128L285.655 223.477L281.861 222.085C281.177 221.834 280.409 222.053 279.96 222.627L277.453 225.83L277.608 221.765C277.636 221.036 277.189 220.372 276.503 220.123L272.683 218.735L276.589 217.625C277.291 217.425 277.783 216.796 277.808 216.067L277.946 212.028L280.2 215.391C280.605 215.996 281.354 216.271 282.055 216.071L285.978 214.956L283.465 218.15Z" fill="black"/>
<path d="M292.872 211.697C292.824 213.023 293.63 214.217 294.877 214.67L298.454 215.969L298.309 219.774C298.258 221.099 299.061 222.295 300.305 222.751C300.927 222.979 301.583 222.994 302.187 222.823C302.792 222.651 303.343 222.291 303.753 221.768L306.102 218.768L309.656 220.071C310.901 220.528 312.286 220.133 313.104 219.089C313.921 218.045 313.972 216.605 313.23 215.506L311.113 212.371L313.463 209.383C314.282 208.342 314.337 206.903 313.599 205.803C312.861 204.703 311.51 204.207 310.235 204.569L306.56 205.614L304.447 202.461C303.709 201.36 302.358 200.865 301.083 201.227C301.082 201.227 301.081 201.228 301.079 201.228C299.804 201.592 298.916 202.728 298.871 204.053L298.742 207.836L295.084 208.876C293.808 209.238 292.919 210.372 292.872 211.697ZM300.838 210.732C301.54 210.533 302.032 209.903 302.057 209.174L302.195 205.135L304.449 208.498C304.854 209.103 305.603 209.378 306.304 209.179L310.227 208.064L307.715 211.257C307.264 211.831 307.235 212.63 307.643 213.236L309.905 216.584L306.111 215.193C305.427 214.942 304.659 215.161 304.21 215.734L301.702 218.937L301.857 214.873C301.885 214.143 301.438 213.479 300.752 213.23L296.932 211.843L300.838 210.732L300.838 210.732Z" fill="black"/>
<path d="M337.848 198.91C337.11 197.81 335.759 197.314 334.484 197.676L330.809 198.721L328.696 195.568C327.958 194.467 326.607 193.971 325.332 194.334C325.331 194.334 325.33 194.334 325.329 194.335C324.053 194.699 323.166 195.835 323.12 197.16L322.991 200.943L319.333 201.983C318.057 202.345 317.168 203.479 317.121 204.804C317.074 206.13 317.879 207.324 319.126 207.777L322.703 209.076L322.558 212.882C322.508 214.206 323.31 215.402 324.555 215.859C325.176 216.086 325.833 216.102 326.436 215.93C327.041 215.758 327.593 215.398 328.002 214.876L330.351 211.875L333.905 213.179C335.15 213.636 336.536 213.241 337.353 212.196C338.171 211.152 338.221 209.712 337.479 208.613L335.362 205.478L337.713 202.491C338.531 201.449 338.586 200.01 337.848 198.91ZM331.964 204.364C331.513 204.938 331.484 205.738 331.892 206.343L334.154 209.692L330.36 208.3C329.676 208.049 328.908 208.268 328.459 208.841L325.952 212.044L326.106 207.98C326.134 207.25 325.688 206.586 325.001 206.337L321.181 204.95L325.087 203.839C325.789 203.64 326.282 203.01 326.307 202.281L326.445 198.243L328.699 201.605C329.104 202.21 329.853 202.485 330.553 202.286L334.476 201.171L331.964 204.364Z" fill="black"/>
<path d="M330.513 177.625L304.5 185.019C303.608 185.273 303.09 186.202 303.344 187.094C303.597 187.986 304.526 188.504 305.419 188.25L331.431 180.856C334.104 180.097 336.896 181.653 337.656 184.326L346.841 216.639C347.601 219.312 346.045 222.104 343.372 222.864L276.806 241.785C274.133 242.545 271.341 240.989 270.581 238.316L261.396 206.002C260.636 203.33 262.192 200.537 264.865 199.778L290.878 192.384C291.77 192.13 292.288 191.201 292.034 190.309C291.78 189.417 290.851 188.899 289.959 189.152L263.947 196.546C259.492 197.812 256.898 202.467 258.164 206.921L267.349 239.235C268.616 243.689 273.27 246.283 277.724 245.017L344.29 226.095C348.745 224.829 351.339 220.175 350.072 215.721L340.887 183.407C339.621 178.953 334.967 176.359 330.513 177.625Z" fill="black"/>
<path d="M298.148 190.317C298.573 190.196 298.941 189.905 299.156 189.519C299.371 189.133 299.425 188.667 299.305 188.242C299.184 187.817 298.892 187.449 298.506 187.234C298.121 187.019 297.655 186.965 297.23 187.086C296.805 187.206 296.437 187.498 296.222 187.884C296.007 188.27 295.952 188.736 296.073 189.161C296.194 189.586 296.485 189.953 296.871 190.168C297.257 190.383 297.723 190.438 298.148 190.317Z" fill="black"/>
</g>
<g clip-path="url(#clip7)">
<path d="M1302.09 67.6358L1324.97 61.8278L1341.45 78.7439L1335.03 101.468L1312.15 107.276L1295.67 90.3597L1302.09 67.6358Z" fill="#66E0F7"/>
<path d="M1335.03 101.468L1341.45 78.7438L1318.56 84.5517L1312.15 107.276L1335.03 101.468Z" fill="#CCF5FC"/>
<path d="M1302.09 67.6358L1318.56 84.5517L1341.45 78.7439L1324.97 61.8278L1302.09 67.6358Z" fill="#FFFBDF"/>
<path d="M1331.39 39.1038L1354.27 33.2959L1370.75 50.2118L1364.33 72.9359L1341.45 78.7439L1324.97 61.8279L1331.39 39.1038Z" fill="#66E0F7"/>
<path d="M1364.33 72.9359L1370.75 50.212L1347.86 56.0198L1341.45 78.7439L1364.33 72.9359Z" fill="#CCF5FC"/>
<path d="M1331.39 39.1038L1347.86 56.0198L1370.75 50.2118L1354.27 33.2959L1331.39 39.1038Z" fill="#FFFBDF"/>
<path d="M1341.45 78.7439L1364.33 72.9359L1380.81 89.8519L1374.39 112.576L1351.51 118.384L1335.03 101.468L1341.45 78.7439Z" fill="#66E0F7"/>
<path d="M1374.39 112.576L1380.81 89.8518L1357.92 95.6597L1351.51 118.384L1374.39 112.576Z" fill="#CCF5FC"/>
<path d="M1341.45 78.7439L1357.92 95.6598L1380.81 89.8519L1364.33 72.9359L1341.45 78.7439Z" fill="#FFFBDF"/>
<path d="M1382.01 88.68L1366.21 72.4587L1372.36 50.6681C1372.53 50.0905 1372.37 49.4699 1371.95 49.04L1355.48 32.1241C1355.06 31.6943 1354.44 31.5204 1353.86 31.6679L1330.97 37.4758C1330.39 37.6233 1329.93 38.07 1329.77 38.6476L1323.62 60.4383L1301.68 66.0077C1301.09 66.1552 1300.63 66.6019 1300.47 67.1795L1294.06 89.9035C1293.9 90.4811 1294.05 91.1017 1294.47 91.5316L1310.94 108.448C1311.15 108.663 1311.41 108.814 1311.69 108.892C1311.97 108.971 1312.27 108.978 1312.56 108.904L1334.51 103.334L1350.3 119.556C1350.51 119.771 1350.77 119.922 1351.05 120C1351.33 120.079 1351.63 120.086 1351.92 120.012L1374.81 114.204C1375.39 114.056 1375.85 113.61 1376.01 113.032L1382.42 90.308C1382.59 89.7306 1382.43 89.1098 1382.01 88.68ZM1358.45 93.7933L1344.68 79.6564L1363.81 74.8026L1377.57 88.9394L1358.45 93.7933ZM1324.45 63.6945L1338.21 77.8315L1319.09 82.6853L1305.32 68.5482L1324.45 63.6945ZM1345.98 56.4968L1340.62 75.4875L1326.85 61.3507L1332.21 42.3601L1345.98 56.4968ZM1319.91 85.9414L1339.04 81.0875L1333.68 100.078L1314.55 104.932L1319.91 85.9414ZM1353.75 35.1626L1367.51 49.2995L1366.24 49.6227C1365.34 49.8509 1364.8 50.7648 1365.03 51.664C1365.18 52.2671 1365.64 52.7102 1366.2 52.8679C1366.47 52.9453 1366.77 52.954 1367.07 52.8788L1368.34 52.5556L1362.98 71.5464L1343.85 76.4001L1349.21 57.4093L1352.38 56.6069C1353.27 56.3788 1353.82 55.4649 1353.59 54.5657C1353.36 53.6667 1352.45 53.1226 1351.55 53.3508L1348.39 54.1532L1334.62 40.0163L1353.75 35.1626ZM1302.91 70.892L1316.68 85.0289L1311.32 104.02L1297.55 89.8828L1302.91 70.892ZM1342.27 82L1356.04 96.1369L1350.68 115.128L1336.91 100.991L1342.27 82ZM1353.91 116.04L1359.27 97.0494L1378.4 92.1956L1373.04 111.186L1353.91 116.04Z" fill="black"/>
<path d="M1358.85 54.7325C1359.27 54.8525 1359.74 54.7972 1360.12 54.5814C1360.51 54.3656 1360.8 53.9974 1360.92 53.5722C1361.04 53.1471 1360.98 52.6812 1360.77 52.2956C1360.55 51.9101 1360.18 51.6194 1359.76 51.4994C1359.33 51.3795 1358.87 51.4347 1358.48 51.6505C1358.1 51.8664 1357.81 52.2346 1357.69 52.6598C1357.57 53.0849 1357.62 53.5507 1357.84 53.9363C1358.05 54.3221 1358.42 54.6126 1358.85 54.7325Z" fill="black"/>
</g>
<g clip-path="url(#clip8)">
<path d="M114.943 491.499L67.6884 504.517L69.0321 509.394C69.5973 511.445 71.7182 512.65 73.7695 512.085L113.596 501.114C115.647 500.548 116.852 498.427 116.287 496.376L114.943 491.499Z" fill="#FF7B79"/>
<path d="M73.6352 512.122L113.73 501.076L122.803 534.011L82.7084 545.057L73.6352 512.122Z" fill="#E7E9EF"/>
<path d="M109.088 529.316L92.0839 534.001C90.0573 534.559 87.9619 533.369 87.4036 531.342L84.6915 521.498C84.1333 519.471 85.3235 517.376 87.3501 516.817L104.355 512.133C106.381 511.574 108.477 512.765 109.035 514.791L111.747 524.636C112.305 526.663 111.115 528.758 109.088 529.316Z" fill="#66E0F7"/>
<path d="M85.0753 553.649L125.17 542.603L135.624 580.55L95.5292 591.596L85.0753 553.649Z" fill="#C193DC"/>
<path d="M100.005 563.016L117.189 558.283L120.739 571.17L103.556 575.904L100.005 563.016Z" fill="#D5F6FC"/>
<path d="M79.1285 546.043L126.383 533.025L128.75 541.617L81.4954 554.635L79.1285 546.043Z" fill="#FF7B79"/>
<path d="M108.822 529.397C110.997 528.798 112.274 526.549 111.675 524.374C111.076 522.199 108.827 520.922 106.652 521.521C104.477 522.12 103.2 524.369 103.799 526.544C104.398 528.719 106.647 529.996 108.822 529.397Z" fill="#FF7B79"/>
<path d="M118.077 495.883L116.733 491.005C116.461 490.017 115.438 489.436 114.45 489.709L98.9001 493.992C97.9115 494.265 97.3309 495.287 97.6033 496.275C97.8756 497.264 98.8977 497.845 99.8863 497.572L113.646 493.782L114.497 496.869C114.789 497.93 114.164 499.031 113.103 499.324L73.2764 510.295C72.2153 510.587 71.1144 509.962 70.8221 508.901L69.9715 505.813L83.7768 502.01C84.7652 501.738 85.346 500.716 85.0736 499.727C84.8013 498.739 83.779 498.158 82.7906 498.43L67.1953 502.727C66.2069 502.999 65.6261 504.021 65.8985 505.01L67.2422 509.887C67.8919 512.246 69.9385 513.851 72.2426 514.057L80.4254 543.76L78.6354 544.253C77.647 544.526 77.0662 545.548 77.3386 546.536L79.7055 555.128C79.9778 556.117 81.0001 556.697 81.9886 556.425L83.7785 555.932L93.7393 592.089C94.0116 593.077 95.0337 593.658 96.0223 593.386L136.117 582.34C137.106 582.068 137.686 581.045 137.414 580.057L127.453 543.9L129.243 543.407C130.232 543.135 130.812 542.112 130.54 541.124L128.173 532.532C127.901 531.544 126.878 530.963 125.89 531.235L124.1 531.728L115.917 502.026C117.791 500.668 118.726 498.241 118.077 495.883ZM133.341 579.253L96.8261 589.313L87.3584 554.946L123.873 544.886L133.341 579.253ZM126.467 540.32L82.7923 552.352L81.4116 547.34L125.086 535.308L126.467 540.32ZM108.329 527.607C107.144 527.933 105.915 527.235 105.589 526.051C105.263 524.866 105.961 523.637 107.145 523.311C108.33 522.985 109.558 523.683 109.885 524.867C110.211 526.051 109.513 527.28 108.329 527.607ZM108.422 519.559C107.684 519.472 106.918 519.522 106.159 519.731C103.001 520.601 101.139 523.878 102.009 527.037C102.218 527.794 102.565 528.475 103.016 529.063L91.5908 532.211C90.5544 532.496 89.4791 531.886 89.1936 530.849L86.4815 521.004C86.196 519.968 86.8068 518.893 87.8432 518.607L104.848 513.923C105.884 513.637 106.959 514.248 107.245 515.284L108.422 519.559ZM112.278 534.985C112.268 534.93 112.256 534.874 112.241 534.819L111.025 530.406C113.102 529.023 114.163 526.414 113.465 523.881L110.825 514.298C109.996 511.288 106.872 509.514 103.861 510.343L86.857 515.027C83.8468 515.857 82.0723 518.981 82.9016 521.991L85.6137 531.835C86.443 534.846 89.5669 536.62 92.577 535.791L107.523 531.673L108.661 535.805C108.677 535.86 108.695 535.914 108.715 535.967L84.0053 542.774L75.9183 513.419L112.433 503.36L120.52 532.715L112.278 534.985Z" fill="black"/>
<path d="M91.8321 499.791C92.3029 499.661 92.7119 499.343 92.9531 498.918C93.1941 498.493 93.2586 497.979 93.1289 497.508C92.9993 497.037 92.6805 496.628 92.2559 496.387C91.8294 496.146 91.3166 496.082 90.8459 496.211C90.3733 496.341 89.966 496.659 89.7249 497.084C89.4838 497.509 89.4194 498.024 89.549 498.494C89.6792 498.967 89.9975 499.374 90.4221 499.615C90.8468 499.857 91.3596 499.921 91.8321 499.791Z" fill="black"/>
<path d="M104.049 577.694L121.232 572.96C122.221 572.688 122.802 571.665 122.529 570.677L118.979 557.789C118.707 556.801 117.684 556.22 116.696 556.493L99.5124 561.226C98.524 561.499 97.9432 562.521 98.2155 563.509L101.766 576.397C102.038 577.385 103.061 577.966 104.049 577.694ZM102.289 564.313L115.892 560.566L118.456 569.873L104.853 573.621L102.289 564.313Z" fill="black"/>
</g>
<g clip-path="url(#clip9)">
<path d="M1305.98 580.667C1325.78 587.571 1347.42 577.121 1354.32 557.326C1361.23 537.531 1350.78 515.887 1330.98 508.983C1311.19 502.08 1289.54 512.53 1282.64 532.325C1275.74 552.12 1286.19 573.763 1305.98 580.667Z" fill="#FF7B79"/>
<path d="M1309.52 570.517C1323.71 575.466 1339.23 567.975 1344.17 553.786C1349.12 539.597 1341.63 524.082 1327.44 519.133C1313.25 514.185 1297.74 521.676 1292.79 535.865C1287.84 550.054 1295.33 565.569 1309.52 570.517Z" fill="white"/>
<path d="M1313.06 560.367C1321.65 563.361 1331.03 558.829 1334.02 550.246C1337.02 541.662 1332.49 532.277 1323.9 529.283C1315.32 526.29 1305.93 530.821 1302.94 539.405C1299.95 547.988 1304.48 557.374 1313.06 560.367Z" fill="#FF7B79"/>
<path d="M1316.6 550.217C1319.58 551.256 1322.84 549.684 1323.87 546.706C1324.91 543.728 1323.34 540.472 1320.36 539.433C1317.39 538.394 1314.13 539.967 1313.09 542.945C1312.05 545.923 1313.62 549.179 1316.6 550.217Z" fill="white"/>
<path d="M1333.21 533.19L1353.48 523.404L1357.02 530.744L1336.75 540.53L1333.21 533.19Z" fill="#66E0F7"/>
<path d="M1329.09 544.235L1323.66 542.331L1325.55 536.894L1333.22 533.189L1336.76 540.531L1329.09 544.235Z" fill="#C193DC"/>
<path d="M1362.68 534.05L1352.97 528.18L1365.05 522.347C1367.41 521.205 1370.26 522.196 1371.4 524.561C1372.54 526.926 1371.55 529.769 1369.18 530.911L1362.68 534.05Z" fill="#CCF5FC"/>
<path d="M1354.41 516.92L1352.97 528.18L1365.05 522.347C1367.41 521.205 1368.41 518.362 1367.26 515.997C1366.12 513.632 1363.28 512.64 1360.91 513.782L1354.41 516.92Z" fill="#CCF5FC"/>
<path d="M1361.82 535.487C1361.92 535.548 1362.02 535.598 1362.13 535.635C1362.55 535.781 1363.01 535.758 1363.41 535.562L1369.91 532.424C1373.11 530.881 1374.45 527.026 1372.91 523.831C1372.16 522.283 1370.86 521.119 1369.24 520.553C1369.14 520.52 1369.05 520.49 1368.95 520.461C1368.99 520.37 1369.02 520.277 1369.06 520.183C1369.62 518.56 1369.52 516.814 1368.78 515.266C1367.23 512.071 1363.38 510.727 1360.18 512.269L1353.68 515.408C1353.17 515.655 1352.82 516.143 1352.75 516.706L1352.04 522.238L1351.3 522.594C1346.54 515.571 1339.58 510.202 1331.54 507.398C1321.54 503.911 1310.78 504.526 1301.25 509.13C1291.71 513.733 1284.54 521.775 1281.05 531.772C1277.57 541.769 1278.18 552.526 1282.79 562.061C1287.39 571.595 1295.43 578.766 1305.43 582.253C1315.43 585.74 1326.18 585.125 1335.72 580.521C1345.25 575.917 1352.42 567.876 1355.91 557.879C1358.71 549.84 1358.84 541.051 1356.3 532.961L1357.04 532.604L1361.82 535.487ZM1337.55 538.288L1335.46 533.972L1351.53 526.215L1351.3 527.966C1351.22 528.626 1351.53 529.274 1352.1 529.618L1353.61 530.531L1337.55 538.288ZM1332.44 549.693C1329.75 557.388 1321.31 561.465 1313.62 558.781C1305.92 556.098 1301.84 547.653 1304.53 539.958C1307.21 532.263 1315.65 528.185 1323.35 530.869C1325.16 531.5 1326.82 532.474 1328.24 533.726L1324.82 535.381C1324.41 535.576 1324.11 535.922 1323.96 536.344L1323.04 539.007C1322.41 538.519 1321.7 538.122 1320.92 537.847C1317.07 536.505 1312.85 538.544 1311.5 542.392C1310.16 546.239 1312.2 550.461 1316.05 551.803C1319.9 553.145 1324.12 551.107 1325.46 547.259C1325.73 546.474 1325.87 545.674 1325.87 544.886L1328.54 545.82L1328.54 545.821C1328.96 545.968 1329.42 545.941 1329.82 545.748L1333.25 544.094C1333.34 545.984 1333.07 547.887 1332.44 549.693ZM1328.99 542.419L1325.8 541.3L1326.9 538.103L1332.44 535.432L1334.52 539.748L1328.99 542.419ZM1322.29 546.153C1321.56 548.251 1319.25 549.363 1317.16 548.632C1315.06 547.9 1313.94 545.597 1314.68 543.498C1315.41 541.399 1317.71 540.287 1319.81 541.019C1320.28 541.182 1320.7 541.424 1321.06 541.723L1318.59 542.913C1317.76 543.316 1317.41 544.32 1317.81 545.156C1318.01 545.573 1318.36 545.87 1318.77 546.011C1319.18 546.153 1319.64 546.139 1320.05 545.938L1322.51 544.75C1322.52 545.215 1322.45 545.689 1322.29 546.153ZM1368.13 523.725C1368.91 523.995 1369.53 524.552 1369.89 525.291C1370.62 526.819 1369.98 528.661 1368.45 529.398L1362.77 532.141L1356.49 528.345L1365.78 523.859C1365.78 523.859 1365.78 523.859 1365.78 523.859C1366.52 523.502 1367.35 523.454 1368.13 523.725ZM1361.64 515.295C1363.17 514.557 1365.01 515.2 1365.75 516.727C1366.11 517.467 1366.16 518.302 1365.89 519.077C1365.62 519.853 1365.06 520.477 1364.32 520.834C1364.32 520.834 1364.32 520.834 1364.32 520.835L1355.03 525.32L1355.96 518.037L1361.64 515.295ZM1352.74 556.773C1346.15 575.661 1325.42 585.669 1306.54 579.081C1287.65 572.494 1277.64 551.767 1284.23 532.878C1290.81 513.989 1311.54 503.982 1330.43 510.569C1337.74 513.12 1343.87 517.771 1348.24 524.071L1341.48 527.336C1338.05 522.807 1333.41 519.436 1328 517.547C1312.95 512.302 1296.45 520.271 1291.2 535.312C1289.59 539.946 1289.18 544.937 1290.01 549.744C1290.12 550.367 1290.56 550.849 1291.11 551.043C1291.37 551.134 1291.66 551.162 1291.95 551.112C1292.87 550.953 1293.48 550.083 1293.32 549.169C1292.58 544.924 1292.95 540.514 1294.38 536.418C1299.01 523.126 1313.6 516.083 1326.89 520.719C1331.46 522.313 1335.4 525.099 1338.38 528.83L1331.48 532.165C1329.52 530.16 1327.12 528.627 1324.46 527.697C1315.01 524.403 1304.65 529.407 1301.35 538.852C1298.06 548.296 1303.06 558.659 1312.51 561.953C1321.95 565.247 1332.32 560.243 1335.61 550.799C1336.54 548.139 1336.83 545.305 1336.48 542.533L1343.39 539.197C1344.45 543.853 1344.18 548.666 1342.59 553.233C1337.95 566.525 1323.37 573.567 1310.08 568.931C1305.98 567.502 1302.3 565.045 1299.43 561.826C1298.81 561.133 1297.75 561.072 1297.06 561.689C1296.37 562.305 1296.3 563.367 1296.92 564.06C1300.17 567.705 1304.33 570.486 1308.97 572.103C1324.01 577.349 1340.51 569.38 1345.76 554.339C1347.65 548.926 1347.89 543.205 1346.48 537.703L1353.24 534.439C1355.42 541.712 1355.25 549.571 1352.74 556.773Z" fill="black"/>
<path d="M1294.53 555.07C1294.11 554.924 1293.65 554.952 1293.25 555.144C1292.85 555.336 1292.54 555.686 1292.39 556.103C1292.25 556.522 1292.28 556.989 1292.47 557.387C1292.66 557.785 1293.01 558.096 1293.43 558.242C1293.84 558.388 1294.31 558.361 1294.71 558.169C1295.11 557.977 1295.42 557.627 1295.57 557.21C1295.71 556.792 1295.68 556.324 1295.49 555.926C1295.3 555.528 1294.95 555.216 1294.53 555.07Z" fill="black"/>
</g>
<defs>
<clipPath id="clip0">
<rect width="86" height="86" fill="white" transform="translate(40.4257 74.3701) rotate(-15.3722)"/>
</clipPath>
<clipPath id="clip1">
<rect width="86" height="86" fill="white" transform="translate(1105.31 397) rotate(14.3467)"/>
</clipPath>
<clipPath id="clip2">
<rect width="86" height="86" fill="white" transform="translate(244 392.81) rotate(-22.427)"/>
</clipPath>
<clipPath id="clip3">
<rect width="86" height="86" fill="white" transform="translate(1268.65 266) rotate(25.9596)"/>
</clipPath>
<clipPath id="clip4">
<rect width="86" height="86" fill="white" transform="translate(73 274.161) rotate(-12.8739)"/>
</clipPath>
<clipPath id="clip5">
<rect width="86" height="86" fill="white" transform="translate(1054.63 140) rotate(7.39347)"/>
</clipPath>
<clipPath id="clip6">
<rect width="86" height="86" fill="white" transform="translate(251 181.716) rotate(-15.8677)"/>
</clipPath>
<clipPath id="clip7">
<rect width="86" height="86" fill="white" transform="translate(1313.35 20) rotate(15.7603)"/>
</clipPath>
<clipPath id="clip8">
<rect width="95.0593" height="95.0593" fill="white" transform="translate(45 508.841) rotate(-15.4022)"/>
</clipPath>
<clipPath id="clip9">
<rect width="86" height="86" fill="white" transform="translate(1296.32 488) rotate(19.2269)"/>
</clipPath>
</defs>
</svg>
