<svg width="108" height="111" viewBox="0 0 108 111" fill="none" xmlns="http://www.w3.org/2000/svg">
<g filter="url(#filter0_d)">
<ellipse cx="54" cy="51.1335" rx="50" ry="51.1335" fill="white"/>
</g>
<path d="M42.2839 56.81H37.0639V62.15H32.2039V56.81H26.9839V52.22H32.2039V46.85H37.0639V52.22H42.2839V56.81ZM45.5818 49.28C45.6618 47.14 46.3618 45.49 47.6818 44.33C49.0018 43.17 50.7918 42.59 53.0518 42.59C54.5518 42.59 55.8318 42.85 56.8918 43.37C57.9718 43.89 58.7818 44.6 59.3218 45.5C59.8818 46.4 60.1618 47.41 60.1618 48.53C60.1618 49.85 59.8318 50.93 59.1718 51.77C58.5118 52.59 57.7418 53.15 56.8618 53.45V53.57C58.0018 53.95 58.9018 54.58 59.5618 55.46C60.2218 56.34 60.5518 57.47 60.5518 58.85C60.5518 60.09 60.2618 61.19 59.6818 62.15C59.1218 63.09 58.2918 63.83 57.1918 64.37C56.1118 64.91 54.8218 65.18 53.3218 65.18C50.9218 65.18 49.0018 64.59 47.5618 63.41C46.1418 62.23 45.3918 60.45 45.3118 58.07H50.2918C50.3118 58.95 50.5618 59.65 51.0418 60.17C51.5218 60.67 52.2218 60.92 53.1418 60.92C53.9218 60.92 54.5218 60.7 54.9418 60.26C55.3818 59.8 55.6018 59.2 55.6018 58.46C55.6018 57.5 55.2918 56.81 54.6718 56.39C54.0718 55.95 53.1018 55.73 51.7618 55.73H50.8018V51.56H51.7618C52.7818 51.56 53.6018 51.39 54.2218 51.05C54.8618 50.69 55.1818 50.06 55.1818 49.16C55.1818 48.44 54.9818 47.88 54.5818 47.48C54.1818 47.08 53.6318 46.88 52.9318 46.88C52.1718 46.88 51.6018 47.11 51.2218 47.57C50.8618 48.03 50.6518 48.6 50.5918 49.28H45.5818ZM63.5658 53.75C63.5658 50.31 64.2258 47.6 65.5458 45.62C66.8858 43.64 69.0358 42.65 71.9958 42.65C74.9558 42.65 77.0958 43.64 78.4158 45.62C79.7558 47.6 80.4258 50.31 80.4258 53.75C80.4258 57.23 79.7558 59.96 78.4158 61.94C77.0958 63.92 74.9558 64.91 71.9958 64.91C69.0358 64.91 66.8858 63.92 65.5458 61.94C64.2258 59.96 63.5658 57.23 63.5658 53.75ZM75.3858 53.75C75.3858 51.73 75.1658 50.18 74.7258 49.1C74.2858 48 73.3758 47.45 71.9958 47.45C70.6158 47.45 69.7058 48 69.2658 49.1C68.8258 50.18 68.6058 51.73 68.6058 53.75C68.6058 55.11 68.6858 56.24 68.8458 57.14C69.0058 58.02 69.3258 58.74 69.8058 59.3C70.3058 59.84 71.0358 60.11 71.9958 60.11C72.9558 60.11 73.6758 59.84 74.1558 59.3C74.6558 58.74 74.9858 58.02 75.1458 57.14C75.3058 56.24 75.3858 55.11 75.3858 53.75Z" fill="#F35A5E"/>
<defs>
<filter id="filter0_d" x="0" y="0" width="108" height="110.267" filterUnits="userSpaceOnUse" color-interpolation-filters="sRGB">
<feFlood flood-opacity="0" result="BackgroundImageFix"/>
<feColorMatrix in="SourceAlpha" type="matrix" values="0 0 0 0 0 0 0 0 0 0 0 0 0 0 0 0 0 0 127 0"/>
<feOffset dy="4"/>
<feGaussianBlur stdDeviation="2"/>
<feColorMatrix type="matrix" values="0 0 0 0 0 0 0 0 0 0 0 0 0 0 0 0 0 0 0.25 0"/>
<feBlend mode="normal" in2="BackgroundImageFix" result="effect1_dropShadow"/>
<feBlend mode="normal" in="SourceGraphic" in2="effect1_dropShadow" result="shape"/>
</filter>
</defs>
</svg>
