<svg width="61" height="61" viewBox="0 0 61 61" fill="none" xmlns="http://www.w3.org/2000/svg">
<g clip-path="url(#clip0)">
<path d="M60.8113 44.6936L58.3018 31.0434C57.4953 24.8041 52.1557 20.1061 45.8598 20.1061H15.1395C8.84363 20.1061 3.5042 24.8041 2.69754 31.0435L0.18806 44.6936C-1.05963 51.4805 4.05671 57.8186 10.9195 58.094C17.4587 58.3558 22.7124 53.0173 22.733 46.647C22.7332 46.6243 21.9952 46.6322 38.2665 46.6322C38.2665 52.9806 43.5207 58.3574 50.08 58.094C56.9117 57.8198 62.0652 51.513 60.8113 44.6936ZM21.8966 36.1174H18.9094V39.1046C18.9094 40.0944 18.1069 40.8969 17.1171 40.8969C16.1272 40.8969 15.3248 40.0944 15.3248 39.1046V36.1174H12.3376C11.3477 36.1174 10.5452 35.3149 10.5452 34.3251C10.5452 33.3353 11.3477 32.5328 12.3376 32.5328H15.3248V29.5456C15.3248 28.5557 16.1272 27.7533 17.1171 27.7533C18.1069 27.7533 18.9094 28.5557 18.9094 29.5456V32.5328H21.8966C22.8864 32.5328 23.6889 33.3353 23.6889 34.3251C23.6889 35.3149 22.8864 36.1174 21.8966 36.1174ZM40.8951 34.4446C40.8951 35.4344 40.0926 36.2369 39.1028 36.2369C38.113 36.2369 37.3105 35.4344 37.3105 34.4446V34.3251C37.3105 33.3353 38.113 32.5328 39.1028 32.5328C40.0926 32.5328 40.8951 33.3353 40.8951 34.3251V34.4446ZM45.6662 39.2814C45.5687 40.221 44.7586 40.9746 43.7055 40.8885C42.7026 40.7839 41.9985 39.8917 42.0984 38.9289C42.2053 37.8974 43.1539 37.1443 44.2324 37.3469C45.1844 37.5448 45.7547 38.4117 45.6662 39.2814ZM45.6662 29.7212C45.5635 30.7322 44.6621 31.4272 43.7055 31.3295C42.7003 31.2246 42.0005 30.3318 42.0984 29.3687C42.2079 28.3331 43.1578 27.586 44.2324 27.7879C45.1869 27.9863 45.7559 28.8576 45.6662 29.7212ZM50.4541 34.4446C50.4541 35.4344 49.6516 36.2369 48.6618 36.2369C47.672 36.2369 46.8695 35.4344 46.8695 34.4446V34.3251C46.8695 33.3353 47.672 32.5328 48.6618 32.5328C49.6516 32.5328 50.4541 33.3353 50.4541 34.3251V34.4446Z" fill="white"/>
<path d="M25.8527 12.4719C25.1527 13.1718 25.1527 14.3066 25.8527 15.0066C26.5525 15.7064 27.6874 15.7064 28.3874 15.0066C29.5548 13.8392 31.4444 13.8389 32.6119 15.0066C33.3118 15.7065 34.4466 15.7065 35.1466 15.0066C35.8465 14.3066 35.8465 13.1718 35.1466 12.4719C32.5844 9.90948 28.4151 9.9096 25.8527 12.4719Z" fill="white"/>
<path d="M22.98 9.59916C27.1359 5.44326 33.8629 5.44255 38.0193 9.59916C38.7191 10.2991 39.854 10.2991 40.554 9.59916C41.254 8.89921 41.254 7.76443 40.554 7.06447C34.9973 1.5077 26.0028 1.50698 20.4453 7.06447C19.7453 7.76443 19.7453 8.89921 20.4453 9.59916C21.1452 10.2991 22.2801 10.2991 22.98 9.59916Z" fill="white"/>
</g>
<defs>
<clipPath id="clip0">
<rect width="61" height="61" fill="white"/>
</clipPath>
</defs>
</svg>
