<svg width="231" height="106" viewBox="0 0 231 106" fill="none" xmlns="http://www.w3.org/2000/svg">
<g filter="url(#filter0_d)">
<path d="M23.75 38.625V34.25H19.375V29.875H15V16.75H19.375V12.375H23.75V8H45.625V12.375H28.125V16.75H23.75V29.875H28.125V34.25H36.875V25.5H32.5V21.125H45.625V38.625H23.75ZM50 38.625V16.75H54.375V12.375H58.75V8H71.875V12.375H76.25V16.75H80.625V38.625H71.875V29.875H58.75V38.625H50ZM58.75 25.5H71.875V16.75H67.5V12.375H63.125V16.75H58.75V25.5ZM85 38.625V8H93.75V12.375H98.125V16.75H102.5V12.375H106.875V8H115.625V38.625H106.875V21.125H102.5V29.875H98.125V21.125H93.75V38.625H85ZM120 38.625V8H150.625V12.375H128.75V21.125H146.25V25.5H128.75V34.25H150.625V38.625H120Z" fill="#F6E266"/>
<path d="M64.1844 89.35C59.851 89.35 56.3844 88.4833 53.7844 86.75C51.2177 85.0167 49.9344 82.4833 49.9344 79.15C49.9344 78.8167 49.9677 78.3167 50.0344 77.65H61.8344C61.7344 78.6833 61.8844 79.45 62.2844 79.95C62.7177 80.45 63.4177 80.7 64.3844 80.7C64.9844 80.7 65.4844 80.55 65.8844 80.25C66.2844 79.95 66.4844 79.5167 66.4844 78.95C66.4844 78.15 66.0844 77.4833 65.2844 76.95C64.5177 76.4167 63.2677 75.7833 61.5344 75.05C59.6344 74.25 58.0677 73.4833 56.8344 72.75C55.6344 72.0167 54.5844 71.0167 53.6844 69.75C52.7844 68.4833 52.3344 66.9 52.3344 65C52.3344 62.5 52.951 60.35 54.1844 58.55C55.451 56.7167 57.201 55.3333 59.4344 54.4C61.6677 53.4667 64.2177 53 67.0844 53C69.651 53 71.9344 53.4 73.9344 54.2C75.9677 55 77.551 56.1667 78.6844 57.7C79.851 59.2 80.4344 60.9833 80.4344 63.05C80.4344 63.3167 80.401 63.7833 80.3344 64.45H68.3844C68.451 64.05 68.4844 63.7833 68.4844 63.65C68.4844 63.0167 68.301 62.5333 67.9344 62.2C67.5677 61.8333 67.0677 61.65 66.4344 61.65C65.8677 61.65 65.401 61.8167 65.0344 62.15C64.6677 62.4833 64.4844 62.9167 64.4844 63.45C64.4844 64.1833 64.8677 64.8333 65.6344 65.4C66.401 65.9333 67.6177 66.6 69.2844 67.4C71.1844 68.3 72.751 69.15 73.9844 69.95C75.251 70.75 76.3344 71.8167 77.2344 73.15C78.1344 74.45 78.5844 76.05 78.5844 77.95C78.5844 80.1167 78.001 82.0667 76.8344 83.8C75.701 85.5333 74.051 86.9 71.8844 87.9C69.7177 88.8667 67.151 89.35 64.1844 89.35ZM115.114 53.6L113.564 62.4H104.164L99.4645 89H88.3645L93.0645 62.4H83.7645L85.3145 53.6H115.114ZM135.525 83.65H123.725L121.025 89H109.375L128.575 53.6H141.375L148.025 89H136.325L135.525 83.65ZM134.325 75.3L132.875 65.45L127.925 75.3H134.325ZM173.297 53.6C177.097 53.6 179.98 54.45 181.947 56.15C183.914 57.85 184.897 60.1167 184.897 62.95C184.897 63.7833 184.83 64.5333 184.697 65.2C184.264 67.6 183.23 69.7167 181.597 71.55C179.964 73.35 177.847 74.65 175.247 75.45L180.547 89H168.347L163.897 76.3L161.647 89H150.547L156.797 53.6H173.297ZM165.197 68.9H169.597C170.664 68.9 171.497 68.6667 172.097 68.2C172.73 67.7 173.147 66.9333 173.347 65.9C173.38 65.7333 173.397 65.5167 173.397 65.25C173.397 64.5167 173.164 63.95 172.697 63.55C172.23 63.1167 171.547 62.9 170.647 62.9H166.247L165.197 68.9ZM218.093 53.6L216.543 62.4H207.143L202.443 89H191.343L196.043 62.4H186.743L188.293 53.6H218.093Z" fill="white"/>
</g>
<path d="M176.856 40.8565C186.718 40.8565 194.713 32.8619 194.713 23C194.713 13.1381 186.718 5.14352 176.856 5.14352C166.995 5.14352 159 13.1381 159 23C159 32.8619 166.995 40.8565 176.856 40.8565Z" fill="#F6E266"/>
<path d="M165.004 36.3546C165.907 37.1563 166.891 37.8686 167.943 38.476L172.841 5.59689C171.648 5.87103 170.501 6.26541 169.413 6.76541L165.004 36.3546Z" fill="#FBF4AF"/>
<path d="M176.856 5.14352C176.532 5.14352 176.21 5.15274 175.889 5.16985C185.301 5.67227 192.779 13.4627 192.779 23C192.779 32.5374 185.301 40.3277 175.889 40.8302C176.21 40.8474 176.532 40.8566 176.856 40.8566C186.718 40.8566 194.713 32.862 194.713 23.0001C194.713 13.1382 186.718 5.14352 176.856 5.14352V5.14352Z" fill="#EAB14D"/>
<path d="M176.856 37.381C184.799 37.381 191.238 30.9424 191.238 23C191.238 15.0576 184.799 8.61899 176.856 8.61899C168.914 8.61899 162.475 15.0576 162.475 23C162.475 30.9424 168.914 37.381 176.856 37.381Z" fill="#E7A52E"/>
<path d="M176.856 8.61899C176.497 8.61899 176.14 8.63258 175.787 8.6586C183.23 9.20571 189.099 15.4173 189.099 23C189.099 30.5827 183.23 36.7943 175.787 37.3414C176.14 37.3673 176.497 37.381 176.856 37.381C184.799 37.381 191.237 30.9424 191.237 23C191.237 15.0576 184.799 8.61899 176.856 8.61899Z" fill="#E28424"/>
<path d="M165.651 32.0134C166.475 33.0359 167.435 33.9437 168.505 34.7082L172.28 9.36276C171.022 9.78487 169.841 10.3764 168.765 11.1101L165.651 32.0134Z" fill="#EAB14D"/>
<path d="M177.296 15.0775L180.01 19.2482C180.081 19.3564 180.189 19.4348 180.313 19.4683L185.119 20.7613C185.485 20.8598 185.628 21.3019 185.39 21.5965L182.262 25.4672C182.181 25.5676 182.14 25.6944 182.147 25.8233L182.402 30.7931C182.421 31.1714 182.045 31.4446 181.691 31.3093L177.044 29.5309C176.923 29.4848 176.79 29.4848 176.669 29.5309L172.022 31.3093C171.668 31.4447 171.292 31.1714 171.311 30.7931L171.566 25.8233C171.573 25.6944 171.532 25.5676 171.451 25.4672L168.323 21.5965C168.085 21.3019 168.229 20.8598 168.594 20.7613L173.4 19.4683C173.524 19.4348 173.632 19.3563 173.703 19.2482L176.417 15.0775C176.624 14.7601 177.089 14.7601 177.296 15.0775V15.0775Z" fill="#C85929"/>
<path d="M185.119 20.7614L180.313 19.4684C180.189 19.4348 180.081 19.3564 180.01 19.2483L179.782 18.8971C179.759 21.547 179.376 25.8137 177.499 29.7053L181.691 31.3095C182.045 31.4449 182.421 31.1716 182.402 30.7933L182.147 25.8235C182.14 25.6945 182.181 25.5678 182.262 25.4674L185.39 21.5967C185.628 21.3019 185.484 20.8599 185.119 20.7614V20.7614Z" fill="#B94029"/>
<path d="M17.2583 53.9641L47.1506 71.2225L17.2583 88.4808L17.2583 53.9641Z" fill="white"/>
<defs>
<filter id="filter0_d" x="3" y="0" width="227.093" height="105.35" filterUnits="userSpaceOnUse" color-interpolation-filters="sRGB">
<feFlood flood-opacity="0" result="BackgroundImageFix"/>
<feColorMatrix in="SourceAlpha" type="matrix" values="0 0 0 0 0 0 0 0 0 0 0 0 0 0 0 0 0 0 127 0"/>
<feOffset dy="4"/>
<feGaussianBlur stdDeviation="6"/>
<feColorMatrix type="matrix" values="0 0 0 0 0 0 0 0 0 0 0 0 0 0 0 0 0 0 0.36 0"/>
<feBlend mode="normal" in2="BackgroundImageFix" result="effect1_dropShadow"/>
<feBlend mode="normal" in="SourceGraphic" in2="effect1_dropShadow" result="shape"/>
</filter>
</defs>
</svg>
