<svg width="108" height="108" viewBox="0 0 108 108" fill="none" xmlns="http://www.w3.org/2000/svg">
<g filter="url(#filter0_d)">
<circle cx="54" cy="50" r="50" fill="white"/>
</g>
<path d="M84.1425 31.875L86.3398 29.6777C87.4104 28.6072 88 27.1838 88 25.6689C88 22.5427 85.4573 20 82.3311 20C80.8162 20 79.3928 20.5896 78.3223 21.6602L76.125 23.8575L72.6338 20.3662C72.3994 20.1318 72.0821 20 71.75 20H50.5C47.7425 20 45.5 22.2424 45.5 25C45.5 27.7577 47.7425 30 50.5 30H67.4825L68.7324 31.25L29.6602 70.321C28.5896 71.3904 28 72.815 28 74.3311C28 77.4573 30.5427 80 33.6689 80C35.1827 80 36.606 79.4104 37.6777 78.3398L76.75 39.2676L78 40.5177V57.5C78 60.2575 80.2424 62.5 83.0001 62.5C85.7577 62.5 88 60.2575 88 57.5V36.25C88 35.918 87.8682 35.6006 87.6338 35.3662L84.1425 31.875Z" fill="#303C42"/>
<path d="M80.0898 23.4277C80.688 22.8295 81.4839 22.4999 82.3311 22.4999C84.0779 22.4999 85.5 23.9219 85.5 25.6689C85.5 26.516 85.1704 27.3119 84.5723 27.9101L82.375 30.1073L77.8926 25.6249L80.0898 23.4277Z" fill="#8D6E63"/>
<path d="M35.9102 76.571C35.3108 77.1704 34.515 77.5 33.669 77.5C31.9222 77.5 30.5 76.0779 30.5 74.331C30.5 73.4825 30.8296 72.6879 31.4278 72.0898L70.5001 33.0175L74.9825 37.4999L35.9102 76.571Z" fill="#8D6E63"/>
<path d="M85.5 57.4999C85.5 58.878 84.3782 59.9999 83 59.9999C81.6219 59.9999 80.5 58.878 80.5 57.4999V40C80.5 39.668 80.3681 39.3505 80.1338 39.1161L68.8838 27.8661C68.6494 27.6318 68.332 27.4999 67.9999 27.4999H50.5C49.1218 27.4999 48 26.3781 48 25C48 23.6218 49.1218 22.4999 50.5 22.4999H71.2324L85.5 36.7675V57.4999Z" fill="#E6E6E6"/>
<path opacity="0.1" d="M80.1338 27.8662L82.375 30.1074L84.5723 27.9101C85.1704 27.312 85.5 26.516 85.5 25.6689C85.5 24.7955 85.1445 24.0032 84.5706 23.4293L80.1338 27.8662Z" fill="black"/>
<path opacity="0.1" d="M33.669 77.5001C34.515 77.5001 35.3108 77.1704 35.9102 76.5711L74.9825 37.5001L72.7413 35.2589L31.4294 76.5707C32.0033 77.1445 32.7956 77.5001 33.669 77.5001Z" fill="black"/>
<path d="M84.1425 31.875L86.3398 29.6777C87.4104 28.6072 88 27.1838 88 25.6689C88 22.5427 85.4573 20 82.3311 20C80.8162 20 79.3928 20.5896 78.3223 21.6602L76.125 23.8575L72.6338 20.3662C72.3994 20.1318 72.0821 20 71.75 20H50.5C47.7425 20 45.5 22.2424 45.5 25C45.5 27.7577 47.7425 30 50.5 30H67.4825L68.7324 31.25L29.6602 70.321C28.5896 71.3904 28 72.815 28 74.3311C28 77.4573 30.5427 80 33.6689 80C35.1827 80 36.606 79.4104 37.6777 78.3398L76.75 39.2676L78 40.5177V57.5C78 60.2575 80.2424 62.5 83.0001 62.5C85.7577 62.5 88 60.2575 88 57.5V36.25C88 35.918 87.8682 35.6006 87.6338 35.3662L84.1425 31.875Z" fill="url(#paint0_linear)"/>
<defs>
<filter id="filter0_d" x="0" y="0" width="108" height="108" filterUnits="userSpaceOnUse" color-interpolation-filters="sRGB">
<feFlood flood-opacity="0" result="BackgroundImageFix"/>
<feColorMatrix in="SourceAlpha" type="matrix" values="0 0 0 0 0 0 0 0 0 0 0 0 0 0 0 0 0 0 127 0"/>
<feOffset dy="4"/>
<feGaussianBlur stdDeviation="2"/>
<feColorMatrix type="matrix" values="0 0 0 0 0 0 0 0 0 0 0 0 0 0 0 0 0 0 0.25 0"/>
<feBlend mode="normal" in2="BackgroundImageFix" result="effect1_dropShadow"/>
<feBlend mode="normal" in="SourceGraphic" in2="effect1_dropShadow" result="shape"/>
</filter>
<linearGradient id="paint0_linear" x1="37.7337" y1="40.555" x2="85.9409" y2="63.0277" gradientUnits="userSpaceOnUse">
<stop stop-color="white" stop-opacity="0.2"/>
<stop offset="1" stop-color="white" stop-opacity="0"/>
</linearGradient>
</defs>
</svg>
