<svg width="108" height="111" viewBox="0 0 108 111" fill="none" xmlns="http://www.w3.org/2000/svg">
<g filter="url(#filter0_d)">
<ellipse cx="54" cy="51.1335" rx="50" ry="51.1335" fill="white"/>
</g>
<path d="M80.1425 32.875L82.3398 30.6777C83.4104 29.6072 84 28.1838 84 26.6689C84 23.5427 81.4573 21 78.3311 21C76.8162 21 75.3928 21.5896 74.3223 22.6602L72.125 24.8575L68.6338 21.3662C68.3994 21.1318 68.0821 21 67.75 21H46.5C43.7425 21 41.5 23.2424 41.5 26C41.5 28.7577 43.7425 31 46.5 31H63.4825L64.7324 32.25L25.6602 71.321C24.5896 72.3904 24 73.815 24 75.3311C24 78.4573 26.5427 81 29.6689 81C31.1827 81 32.606 80.4104 33.6777 79.3398L72.75 40.2676L74 41.5177V58.5C74 61.2575 76.2424 63.5 79.0001 63.5C81.7577 63.5 84 61.2575 84 58.5V37.25C84 36.918 83.8682 36.6006 83.6338 36.3662L80.1425 32.875Z" fill="#303C42"/>
<path d="M76.0898 24.4277C76.688 23.8296 77.4839 23.4999 78.3311 23.4999C80.0779 23.4999 81.5 24.922 81.5 26.6689C81.5 27.5161 81.1704 28.312 80.5723 28.9101L78.375 31.1074L73.8926 26.625L76.0898 24.4277Z" fill="#8D6E63"/>
<path d="M31.9102 77.5711C31.3108 78.1705 30.515 78.5 29.669 78.5C27.9222 78.5 26.5 77.0779 26.5 75.331C26.5 74.4826 26.8296 73.6879 27.4278 73.0898L66.5001 34.0175L70.9825 38.4999L31.9102 77.5711Z" fill="#8D6E63"/>
<path d="M81.5 58.5C81.5 59.8781 80.3782 60.9999 79 60.9999C77.6219 60.9999 76.5 59.8781 76.5 58.5V41C76.5 40.668 76.3681 40.3506 76.1338 40.1162L64.8838 28.8662C64.6494 28.6318 64.332 28.5 63.9999 28.5H46.5C45.1218 28.5 44 27.3781 44 26C44 24.6219 45.1218 23.4999 46.5 23.4999H67.2324L81.5 37.7675V58.5Z" fill="#E6E6E6"/>
<path opacity="0.1" d="M76.1338 28.8662L78.375 31.1074L80.5723 28.9101C81.1704 28.312 81.5 27.516 81.5 26.6689C81.5 25.7955 81.1445 25.0032 80.5706 24.4293L76.1338 28.8662Z" fill="black"/>
<path opacity="0.1" d="M29.6693 78.5C30.5152 78.5 31.3111 78.1704 31.9105 77.5711L70.9828 38.5001L68.7416 36.2589L27.4297 77.5706C28.0036 78.1445 28.7959 78.5 29.6693 78.5Z" fill="black"/>
<path d="M80.1425 32.875L82.3398 30.6777C83.4104 29.6072 84 28.1838 84 26.6689C84 23.5427 81.4573 21 78.3311 21C76.8162 21 75.3928 21.5896 74.3223 22.6602L72.125 24.8575L68.6338 21.3662C68.3994 21.1318 68.0821 21 67.75 21H46.5C43.7425 21 41.5 23.2424 41.5 26C41.5 28.7577 43.7425 31 46.5 31H63.4825L64.7324 32.25L25.6602 71.321C24.5896 72.3904 24 73.815 24 75.3311C24 78.4573 26.5427 81 29.6689 81C31.1827 81 32.606 80.4104 33.6777 79.3398L72.75 40.2676L74 41.5177V58.5C74 61.2575 76.2424 63.5 79.0001 63.5C81.7577 63.5 84 61.2575 84 58.5V37.25C84 36.918 83.8682 36.6006 83.6338 36.3662L80.1425 32.875Z" fill="url(#paint0_linear)"/>
<defs>
<filter id="filter0_d" x="0" y="0" width="108" height="110.267" filterUnits="userSpaceOnUse" color-interpolation-filters="sRGB">
<feFlood flood-opacity="0" result="BackgroundImageFix"/>
<feColorMatrix in="SourceAlpha" type="matrix" values="0 0 0 0 0 0 0 0 0 0 0 0 0 0 0 0 0 0 127 0"/>
<feOffset dy="4"/>
<feGaussianBlur stdDeviation="2"/>
<feColorMatrix type="matrix" values="0 0 0 0 0 0 0 0 0 0 0 0 0 0 0 0 0 0 0.25 0"/>
<feBlend mode="normal" in2="BackgroundImageFix" result="effect1_dropShadow"/>
<feBlend mode="normal" in="SourceGraphic" in2="effect1_dropShadow" result="shape"/>
</filter>
<linearGradient id="paint0_linear" x1="33.7337" y1="41.555" x2="81.9409" y2="64.0277" gradientUnits="userSpaceOnUse">
<stop stop-color="white" stop-opacity="0.2"/>
<stop offset="1" stop-color="white" stop-opacity="0"/>
</linearGradient>
</defs>
</svg>
