<svg width="108" height="111" viewBox="0 0 108 111" fill="none" xmlns="http://www.w3.org/2000/svg">
<g filter="url(#filter0_d)">
<ellipse cx="54" cy="51.1335" rx="50" ry="51.1335" fill="white"/>
</g>
<g clip-path="url(#clip0)">
<path d="M30.909 61.6836C38.0385 61.6836 43.8181 55.9041 43.8181 48.7746C43.8181 41.6451 38.0385 35.8655 30.909 35.8655C23.7796 35.8655 18 41.6451 18 48.7746C18 55.9041 23.7796 61.6836 30.909 61.6836Z" fill="#303C42"/>
<path d="M30.9089 58.4565C36.256 58.4565 40.5907 54.1218 40.5907 48.7747C40.5907 43.4275 36.256 39.0928 30.9089 39.0928C25.5618 39.0928 21.2271 43.4275 21.2271 48.7747C21.2271 54.1218 25.5618 58.4565 30.9089 58.4565Z" fill="#454F55"/>
<path d="M53.4999 39.0926C60.6294 39.0926 66.4089 33.3131 66.4089 26.1836C66.4089 19.0541 60.6294 13.2745 53.4999 13.2745C46.3704 13.2745 40.5908 19.0541 40.5908 26.1836C40.5908 33.3131 46.3704 39.0926 53.4999 39.0926Z" fill="#303C42"/>
<path d="M53.5002 35.8654C58.8473 35.8654 63.182 31.5307 63.182 26.1836C63.182 20.8365 58.8473 16.5018 53.5002 16.5018C48.1531 16.5018 43.8184 20.8365 43.8184 26.1836C43.8184 31.5307 48.1531 35.8654 53.5002 35.8654Z" fill="#454F55"/>
<path d="M53.4999 84.2745C60.6294 84.2745 66.4089 78.4949 66.4089 71.3655C66.4089 64.236 60.6294 58.4564 53.4999 58.4564C46.3704 58.4564 40.5908 64.236 40.5908 71.3655C40.5908 78.4949 46.3704 84.2745 53.4999 84.2745Z" fill="#303C42"/>
<path d="M53.5002 81.0473C58.8473 81.0473 63.182 76.7126 63.182 71.3655C63.182 66.0184 58.8473 61.6837 53.5002 61.6837C48.1531 61.6837 43.8184 66.0184 43.8184 71.3655C43.8184 76.7126 48.1531 81.0473 53.5002 81.0473Z" fill="#454F55"/>
<path d="M76.0907 61.6836C83.2202 61.6836 88.9997 55.9041 88.9997 48.7746C88.9997 41.6451 83.2202 35.8655 76.0907 35.8655C68.9612 35.8655 63.1816 41.6451 63.1816 48.7746C63.1816 55.9041 68.9612 61.6836 76.0907 61.6836Z" fill="#303C42"/>
<path d="M76.091 58.4565C81.4381 58.4565 85.7728 54.1218 85.7728 48.7747C85.7728 43.4275 81.4381 39.0928 76.091 39.0928C70.7439 39.0928 66.4092 43.4275 66.4092 48.7747C66.4092 54.1218 70.7439 58.4565 76.091 58.4565Z" fill="#454F55"/>
<path d="M35.7501 42.32H26.0683C25.1763 42.32 24.4546 43.0418 24.4546 43.9337V53.6155C24.4546 54.5075 25.1763 55.2292 26.0683 55.2292H35.7501C36.642 55.2292 37.3638 54.5075 37.3638 53.6155V43.9337C37.3638 43.0418 36.642 42.32 35.7501 42.32Z" fill="#CE93D8"/>
<path d="M34.1362 45.5472H27.6816V52.0018H34.1362V45.5472Z" fill="#454F55"/>
<path d="M48.6594 31.0245H58.3412C58.9006 31.0245 59.4191 30.7345 59.7138 30.2585C60.0084 29.7826 60.0352 29.1886 59.7847 28.689L54.9438 19.0072C54.3954 17.9136 52.6053 17.9136 52.0569 19.0072L47.216 28.689C46.9655 29.1886 46.9923 29.7826 47.287 30.2585C47.5815 30.7346 48.1 31.0245 48.6594 31.0245Z" fill="#C8E6C9"/>
<path d="M53.4999 23.3378L55.7296 27.7973H51.27L53.4999 23.3378Z" fill="#454F55"/>
<path d="M76.0908 55.2292C79.6556 55.2292 82.5454 52.3394 82.5454 48.7746C82.5454 45.2098 79.6556 42.32 76.0908 42.32C72.5261 42.32 69.6362 45.2098 69.6362 48.7746C69.6362 52.3394 72.5261 55.2292 76.0908 55.2292Z" fill="#FFCDD2"/>
<path d="M76.091 52.0019C77.8733 52.0019 79.3182 50.557 79.3182 48.7746C79.3182 46.9923 77.8733 45.5474 76.091 45.5474C74.3086 45.5474 72.8638 46.9923 72.8638 48.7746C72.8638 50.557 74.3086 52.0019 76.091 52.0019Z" fill="#454F55"/>
<path d="M59.4817 65.3837C58.8514 64.7533 57.8302 64.7533 57.2 65.3837L53.5 69.0836L49.8001 65.3837C49.1697 64.7533 48.1486 64.7533 47.5183 65.3837C46.888 66.014 46.888 67.0352 47.5183 67.6654L51.2182 71.3655L47.5182 75.0655C46.8878 75.6959 46.8878 76.717 47.5182 77.3472C47.8333 77.6623 48.2463 77.82 48.6591 77.82C49.072 77.82 49.4848 77.6623 49.8001 77.3472L53.5 73.6473L57.2 77.3472C57.5151 77.6623 57.9281 77.82 58.341 77.82C58.7538 77.82 59.1666 77.6623 59.4819 77.3472C60.1123 76.7168 60.1123 75.6957 59.4819 75.0655L55.7818 71.3655L59.4817 67.6656C60.1121 67.0352 60.1121 66.014 59.4817 65.3837Z" fill="#B2EBF2"/>
<path d="M54.9436 19.0074L59.7845 28.6892C60.035 29.1887 60.0082 29.7828 59.7136 30.2587C59.4189 30.7346 58.9004 31.0246 58.341 31.0246H48.6592C48.0997 31.0246 47.5813 30.7346 47.2866 30.2587L52.8252 35.7973C53.0523 35.8132 53.2691 35.8656 53.5001 35.8656C58.5086 35.8656 62.5924 32.0293 63.0843 27.1483L54.9436 19.0074Z" fill="url(#paint0_linear)"/>
<path d="M40.1827 46.1465L37.021 42.985C37.222 43.2542 37.3635 43.5714 37.3635 43.9337V53.6155C37.3635 54.5075 36.6417 55.2292 35.7498 55.2292H26.0679C25.6422 55.2292 25.2613 55.0571 24.9731 54.7883L28.2117 58.0268C29.0735 58.279 29.9665 58.4566 30.9089 58.4566C36.2478 58.4566 40.5907 54.1137 40.5907 48.7748C40.5908 47.8576 40.422 46.9876 40.1827 46.1465Z" fill="url(#paint1_linear)"/>
<path d="M24.8896 54.7016L24.8882 54.703L24.8956 54.7106L24.8896 54.7016Z" fill="url(#paint2_linear)"/>
<path d="M62.7458 68.6476L59.4818 65.3837C60.1122 66.014 60.1122 67.0352 59.4818 67.6654L55.7818 71.3655L59.4818 75.0655C60.1122 75.6959 60.1122 76.717 59.4818 77.3472C59.1667 77.6623 58.7537 77.82 58.3408 77.82C57.928 77.82 57.5152 77.6623 57.1999 77.3472L53.4999 73.6473L49.8 77.3472C49.4848 77.6623 49.0718 77.82 48.659 77.82C48.2462 77.82 47.8333 77.6623 47.5181 77.3472L50.7817 80.6109C51.6498 80.867 52.5499 81.0472 53.4998 81.0472C58.8387 81.0472 63.1816 76.7043 63.1816 71.3654C63.1819 70.4155 63.0019 69.5157 62.7458 68.6476Z" fill="url(#paint3_linear)"/>
<path d="M80.7492 44.3165L80.7431 44.3218C81.8534 45.4816 82.5453 47.0458 82.5453 48.7746C82.5453 52.3344 79.6506 55.2293 76.0907 55.2293C74.4385 55.2293 72.9453 54.5875 71.8027 53.5632L76.6405 58.401C81.546 58.1193 85.4577 54.1984 85.7207 49.2879L80.7492 44.3165Z" fill="url(#paint4_linear)"/>
<path d="M30.909 35.8654C23.7911 35.8654 18 41.6567 18 48.7746C18 55.8926 23.7911 61.6837 30.909 61.6837C38.027 61.6837 43.8181 55.8926 43.8181 48.7746C43.8181 41.6567 38.027 35.8654 30.909 35.8654ZM53.5001 39.0928C60.618 39.0928 66.4091 33.3017 66.4091 26.1837C66.4091 19.0658 60.618 13.2745 53.5001 13.2745C46.3821 13.2745 40.591 19.0656 40.591 26.1836C40.591 33.3015 46.3821 39.0928 53.5001 39.0928ZM53.5001 58.4564C46.3821 58.4564 40.591 64.2475 40.591 71.3655C40.591 78.4834 46.3821 84.2745 53.5001 84.2745C60.618 84.2745 66.4091 78.4834 66.4091 71.3655C66.4091 64.2475 60.618 58.4564 53.5001 58.4564ZM76.091 35.8654C68.973 35.8654 63.1819 41.6565 63.1819 48.7745C63.1819 55.8924 68.973 61.6837 76.091 61.6837C83.2089 61.6837 89 55.8926 89 48.7746C89 41.6567 83.2089 35.8654 76.091 35.8654Z" fill="url(#paint5_linear)"/>
</g>
<defs>
<filter id="filter0_d" x="0" y="0" width="108" height="110.267" filterUnits="userSpaceOnUse" color-interpolation-filters="sRGB">
<feFlood flood-opacity="0" result="BackgroundImageFix"/>
<feColorMatrix in="SourceAlpha" type="matrix" values="0 0 0 0 0 0 0 0 0 0 0 0 0 0 0 0 0 0 127 0"/>
<feOffset dy="4"/>
<feGaussianBlur stdDeviation="2"/>
<feColorMatrix type="matrix" values="0 0 0 0 0 0 0 0 0 0 0 0 0 0 0 0 0 0 0.25 0"/>
<feBlend mode="normal" in2="BackgroundImageFix" result="effect1_dropShadow"/>
<feBlend mode="normal" in="SourceGraphic" in2="effect1_dropShadow" result="shape"/>
</filter>
<linearGradient id="paint0_linear" x1="50.2018" y1="23.753" x2="59.8939" y2="33.4451" gradientUnits="userSpaceOnUse">
<stop stop-opacity="0.1"/>
<stop offset="1" stop-opacity="0"/>
</linearGradient>
<linearGradient id="paint1_linear" x1="30.9431" y1="48.8408" x2="37.743" y2="55.6181" gradientUnits="userSpaceOnUse">
<stop stop-opacity="0.1"/>
<stop offset="1" stop-opacity="0"/>
</linearGradient>
<linearGradient id="paint2_linear" x1="24.8904" y1="54.7065" x2="24.8969" y2="54.7131" gradientUnits="userSpaceOnUse">
<stop stop-opacity="0.1"/>
<stop offset="1" stop-opacity="0"/>
</linearGradient>
<linearGradient id="paint3_linear" x1="53.5002" y1="71.3685" x2="60.3433" y2="78.2116" gradientUnits="userSpaceOnUse">
<stop stop-opacity="0.1"/>
<stop offset="1" stop-opacity="0"/>
</linearGradient>
<linearGradient id="paint4_linear" x1="76.1919" y1="48.8705" x2="82.9369" y2="55.5832" gradientUnits="userSpaceOnUse">
<stop stop-opacity="0.1"/>
<stop offset="1" stop-opacity="0"/>
</linearGradient>
<linearGradient id="paint5_linear" x1="23.2461" y1="34.6689" x2="83.7546" y2="62.8868" gradientUnits="userSpaceOnUse">
<stop stop-color="white" stop-opacity="0.2"/>
<stop offset="1" stop-color="white" stop-opacity="0"/>
</linearGradient>
<clipPath id="clip0">
<rect width="71" height="71" fill="white" transform="translate(18 13.2745)"/>
</clipPath>
</defs>
</svg>
