<svg width="108" height="111" viewBox="0 0 108 111" fill="none" xmlns="http://www.w3.org/2000/svg">
<g filter="url(#filter0_d)">
<ellipse cx="54" cy="51.1335" rx="50" ry="51.1335" fill="white"/>
</g>
<g clip-path="url(#clip0)">
<path d="M78.2899 40.6389C70.6228 36.3506 58.3168 29.4645 39.2294 18.777C37.9425 17.9271 36.4619 17.8158 35.1826 18.2488L67.9313 50.9975L78.2899 40.6389Z" fill="#32BBFF"/>
<path d="M35.1826 18.2488C34.9429 18.33 34.7096 18.428 34.4864 18.5463C33.0737 19.3105 32.0356 20.7809 32.0356 22.6406V79.3543C32.0356 81.2141 33.0736 82.6845 34.4864 83.4485C34.7092 83.5667 34.9424 83.6651 35.1819 83.7468L67.9313 50.9975L35.1826 18.2488Z" fill="#32BBFF"/>
<path d="M67.9311 50.9974L35.1816 83.7468C36.4613 84.183 37.9419 84.0801 39.2292 83.2179C57.7399 72.8525 69.9071 66.048 77.6629 61.7232C77.8788 61.6019 78.0904 61.4833 78.2994 61.3659L67.9311 50.9974Z" fill="#32BBFF"/>
<path d="M32.0356 50.9974V79.3543C32.0356 81.214 33.0736 82.6845 34.4864 83.4485C34.7092 83.5667 34.9424 83.6651 35.1819 83.7468L67.9313 50.9974H32.0356Z" fill="#2C9FD9"/>
<path d="M39.2293 18.777C37.7011 17.768 35.899 17.7967 34.4863 18.5464L67.4342 51.4944L78.2897 40.6389C70.6227 36.3506 58.3168 29.4645 39.2293 18.777Z" fill="#29CC5E"/>
<path d="M67.4344 50.5007L34.4863 83.4486C35.8991 84.1982 37.7011 84.2415 39.2293 83.218C57.74 72.8526 69.9073 66.0481 77.663 61.7233C77.879 61.602 78.0905 61.4834 78.2996 61.366L67.4344 50.5007Z" fill="#D93F21"/>
<path d="M91.9643 50.9975C91.9643 49.4261 91.1714 47.8403 89.5999 46.9609C89.5999 46.9609 86.661 45.3211 77.6526 40.2824L66.9375 50.9975L77.663 61.7232C86.5725 56.7207 89.5998 55.034 89.5998 55.034C91.1714 54.1547 91.9643 52.5689 91.9643 50.9975Z" fill="#FFD500"/>
<path d="M89.5999 55.034C91.1714 54.1546 91.9643 52.5688 91.9643 50.9974H66.9375L77.663 61.7231C86.5727 56.7208 89.5999 55.034 89.5999 55.034Z" fill="#FFAA00"/>
</g>
<defs>
<filter id="filter0_d" x="0" y="0" width="108" height="110.267" filterUnits="userSpaceOnUse" color-interpolation-filters="sRGB">
<feFlood flood-opacity="0" result="BackgroundImageFix"/>
<feColorMatrix in="SourceAlpha" type="matrix" values="0 0 0 0 0 0 0 0 0 0 0 0 0 0 0 0 0 0 127 0"/>
<feOffset dy="4"/>
<feGaussianBlur stdDeviation="2"/>
<feColorMatrix type="matrix" values="0 0 0 0 0 0 0 0 0 0 0 0 0 0 0 0 0 0 0.25 0"/>
<feBlend mode="normal" in2="BackgroundImageFix" result="effect1_dropShadow"/>
<feBlend mode="normal" in="SourceGraphic" in2="effect1_dropShadow" result="shape"/>
</filter>
<clipPath id="clip0">
<rect width="66" height="66" fill="white" transform="translate(29 18)"/>
</clipPath>
</defs>
</svg>
