<svg width="108" height="108" viewBox="0 0 108 108" fill="none" xmlns="http://www.w3.org/2000/svg">
<g filter="url(#filter0_d)">
<circle cx="54" cy="50" r="50" fill="white"/>
</g>
<path d="M80.25 51.4583C80.25 48.0456 79.0079 44.0373 77.8226 40.9805C85.6415 38.9662 89 25.1415 89 19.375C89 18.5689 88.3477 17.9166 87.5416 17.9166C79.3198 17.9166 68.2394 23.2597 66.0723 29.0679C62.9838 27.8868 58.6739 26.6666 54 26.6666C49.3261 26.6666 45.0162 27.8867 41.9276 29.0679C39.7606 23.2597 28.6801 17.9166 20.4582 17.9166C19.6523 17.9166 19 18.5689 19 19.375C19 25.1415 22.3585 38.9662 30.1774 40.9805C28.9921 44.0373 27.75 48.0454 27.75 51.4583C27.75 54.0176 27.226 54.9333 26.5595 56.0926C25.7505 57.5038 24.8334 59.106 24.8334 63.125C24.8334 70.8738 35.2211 82.0833 54 82.0833C72.7789 82.0833 83.1666 70.8738 83.1666 63.125C83.1666 59.106 82.2495 57.5038 81.4405 56.0924C80.774 54.9332 80.25 54.0174 80.25 51.4583Z" fill="#303C42"/>
<path d="M73.7474 35.579C74.4652 35.2144 75.3454 35.4893 75.7128 36.2056C75.765 36.3069 76.1541 37.0723 76.6786 38.2403C78.0471 38.0085 79.2672 37.1888 80.348 36.0149C80.147 32.9931 78.3981 26.2183 76.4832 23.6118C72.5177 25.5198 69.4274 28.0745 68.7401 30.1967C69.9454 30.7619 70.6856 31.1861 70.7797 31.2411C71.4746 31.6484 71.7054 32.5399 71.301 33.2349C70.8966 33.9298 70.005 34.1691 69.3072 33.7589C69.236 33.7176 62.0498 29.5832 54.0005 29.5832C45.9227 29.5832 38.7677 33.7161 38.6964 33.7589C38.4629 33.8942 38.2093 33.9582 37.9587 33.9582C37.4602 33.9582 36.9704 33.7005 36.6998 33.2362C36.2925 32.5413 36.526 31.6482 37.2211 31.2409C37.3152 31.186 38.0554 30.7617 39.2607 30.1966C38.5734 28.0744 35.4831 25.5197 31.5176 23.6116C29.545 26.2967 27.8063 33.212 27.7017 36.0688C28.7705 37.2136 29.9742 38.0121 31.3222 38.2403C31.8467 37.0723 32.2358 36.3069 32.288 36.2056C32.6583 35.4892 33.5385 35.2115 34.2534 35.579C34.9683 35.9479 35.2503 36.828 34.8799 37.543C34.8371 37.6256 30.6672 45.7832 30.6672 51.4584C30.6672 54.7938 29.8298 56.2535 29.0921 57.5424C28.6903 58.244 28.305 58.9348 28.0503 60.0215C29.2221 59.2255 30.6198 58.75 32.1251 58.75C36.1469 58.75 39.4167 62.0213 39.4167 66.0416C39.4167 69.4043 37.1168 72.215 34.0149 73.0536C38.3903 76.4616 45.0443 79.1666 54.0001 79.1666C62.9558 79.1666 69.6098 76.4616 73.9852 73.0536C70.8832 72.215 68.5834 69.4045 68.5834 66.0416C68.5834 62.0213 71.8532 58.75 75.8751 58.75C77.3803 58.75 78.778 59.2254 79.9502 60.0213C79.6955 58.9348 79.3103 58.2439 78.9084 57.5422C78.1707 56.2534 77.3333 54.7936 77.3333 51.4582C77.3333 45.7715 73.1634 37.6254 73.1206 37.5442C72.7505 36.828 73.0324 35.9479 73.7474 35.579Z" fill="#FFEE58"/>
<path d="M40.875 55.8334C43.2912 55.8334 45.25 53.8746 45.25 51.4584C45.25 49.0422 43.2912 47.0834 40.875 47.0834C38.4588 47.0834 36.5 49.0422 36.5 51.4584C36.5 53.8746 38.4588 55.8334 40.875 55.8334Z" fill="#303C42"/>
<path d="M42.3334 51.4584C43.1388 51.4584 43.7918 50.8054 43.7918 50C43.7918 49.1945 43.1388 48.5416 42.3334 48.5416C41.5279 48.5416 40.875 49.1945 40.875 50C40.875 50.8054 41.5279 51.4584 42.3334 51.4584Z" fill="white"/>
<path d="M67.125 55.8334C69.5412 55.8334 71.5 53.8746 71.5 51.4584C71.5 49.0422 69.5412 47.0834 67.125 47.0834C64.7088 47.0834 62.75 49.0422 62.75 51.4584C62.75 53.8746 64.7088 55.8334 67.125 55.8334Z" fill="#303C42"/>
<path d="M65.8998 51.4584C66.7052 51.4584 67.3582 50.8054 67.3582 50C67.3582 49.1945 66.7052 48.5416 65.8998 48.5416C65.0943 48.5416 64.4414 49.1945 64.4414 50C64.4414 50.8054 65.0943 51.4584 65.8998 51.4584Z" fill="white"/>
<path d="M61.5509 60.835C61.4427 60.9888 60.7135 61.4573 59.3207 61.6169C57.9648 61.772 56.0991 61.5827 54.9685 60.5772C54.6927 60.3314 54.3474 60.2085 54.002 60.208C54.3744 60.2076 54.7469 60.0654 55.0311 59.7811L56.4895 58.3228C56.9054 57.9055 57.0306 57.2789 56.8057 56.7334C56.5807 56.1879 56.048 55.8334 55.4585 55.8334H52.5419C51.9522 55.8334 51.4197 56.188 51.1946 56.7334C50.9696 57.2789 51.095 57.9055 51.5109 58.3228L52.9692 59.7811C53.2535 60.0654 53.6259 60.2077 53.9983 60.208C53.653 60.2085 53.3076 60.3313 53.0319 60.5772C51.9011 61.5855 50.0325 61.7735 48.6797 61.6169C47.2868 61.4573 46.5577 60.9888 46.4494 60.835C45.988 60.1742 45.0793 60.0089 44.4186 60.469C43.7578 60.9275 43.5925 61.8361 44.0511 62.4984C45.0356 63.9165 47.1426 64.3507 48.1426 64.4833C48.118 66.6277 48.2571 69.8702 50.1579 71.8152C51.1434 72.8222 52.4366 73.3334 54.0002 73.3334C55.4273 73.3334 56.6862 72.7907 57.6432 71.764C59.4859 69.7822 59.8245 66.4273 59.8574 64.4833C60.857 64.3507 62.9648 63.9166 63.9494 62.4984C64.4051 61.8377 64.2399 60.9375 63.5819 60.4776C62.9296 60.0218 62.0152 60.1784 61.5509 60.835Z" fill="#303C42"/>
<path d="M52.2456 69.7772C51.1293 68.6349 51.0417 66.0892 51.0601 64.4524C52.141 64.287 53.1515 63.962 54.0001 63.4611C54.8439 63.9598 55.8652 64.2361 56.9383 64.4026C56.9036 66.0527 56.6136 68.5855 55.5069 69.7772C54.5925 70.7528 53.0089 70.5648 52.2456 69.7772Z" fill="#E53935"/>
<path opacity="0.1" d="M54 66.036C54.7731 66.4929 55.7031 66.7493 56.6776 66.9195C56.8418 66.0362 56.9229 65.1329 56.9382 64.4026C55.8651 64.2363 54.8438 63.9599 54 63.4611C53.1513 63.962 52.1409 64.2871 51.06 64.4524C51.0516 65.1867 51.0794 66.1034 51.1971 66.9947C52.2244 66.8234 53.1887 66.5148 54 66.036Z" fill="black"/>
<path d="M76.9813 70.2245C73.9519 71.0731 71.5 68.81 71.5 66.0416C71.5 63.6291 73.4625 61.6666 75.875 61.6666C77.8122 61.6666 79.4544 62.9467 80.0127 64.7834C79.601 66.4705 78.5909 68.3652 76.9813 70.2245Z" fill="#E53935"/>
<path opacity="0.2" d="M72.29 67.0003C72.29 64.5878 74.2524 62.6253 76.665 62.6253C77.7785 62.6253 78.764 63.0814 79.5326 63.7897C78.7661 62.5132 77.4307 61.6666 75.875 61.6666C73.4625 61.6666 71.5 63.6291 71.5 66.0416C71.5 67.3595 72.0674 68.5508 72.9764 69.3584C72.5526 68.6704 72.29 67.8679 72.29 67.0003Z" fill="white"/>
<path d="M31.0177 70.2236C29.4088 68.3645 28.399 66.4703 27.9873 64.7836C28.5455 62.9468 30.1878 61.6668 32.125 61.6668C34.5375 61.6668 36.5 63.6293 36.5 66.0418C36.5 68.8132 34.0266 71.0665 31.0177 70.2236Z" fill="#E53935"/>
<path opacity="0.2" d="M32.3679 63.0035C34.29 63.0035 35.9082 64.2575 36.4941 65.9841C36.4624 63.5988 34.5177 61.6668 32.125 61.6668C30.1878 61.6668 28.5455 62.9468 27.9873 64.7836C28.0745 65.1408 28.203 65.5115 28.3439 65.885C28.971 64.1846 30.521 63.0035 32.3679 63.0035Z" fill="white"/>
<path d="M44.0508 62.4984L48.2326 66.6802C48.1653 65.8941 48.1348 65.1341 48.1424 64.4833C47.1423 64.3507 45.0353 63.9165 44.0508 62.4984ZM68.5833 66.0416C68.5833 65.8755 68.6212 65.7199 68.6323 65.5567L63.9892 60.9136H63.9882C64.28 61.3896 64.2865 62.009 63.9491 62.4983C62.9645 63.9166 60.8568 64.3505 59.8571 64.4832C59.8242 66.4272 59.4856 69.7821 57.6429 71.7638C56.6859 72.7906 55.427 73.3332 53.9999 73.3332C52.4362 73.3332 51.1431 72.8219 50.1576 71.8151L57.3722 79.0298C64.6435 78.4475 70.1786 76.0185 73.9852 73.0536C70.8831 72.215 68.5833 69.4045 68.5833 66.0416Z" fill="url(#paint0_linear)"/>
<path d="M80.25 51.4583C80.25 48.0456 79.0079 44.0373 77.8226 40.9805C85.6415 38.9662 89 25.1415 89 19.375C89 18.5689 88.3477 17.9166 87.5416 17.9166C79.3198 17.9166 68.2394 23.2597 66.0723 29.0679C62.9838 27.8868 58.6739 26.6666 54 26.6666C49.3261 26.6666 45.0162 27.8867 41.9276 29.0679C39.7606 23.2597 28.6801 17.9166 20.4582 17.9166C19.6523 17.9166 19 18.5689 19 19.375C19 25.1415 22.3585 38.9662 30.1774 40.9805C28.9921 44.0373 27.75 48.0454 27.75 51.4583C27.75 54.0176 27.226 54.9333 26.5595 56.0926C25.7505 57.5038 24.8334 59.106 24.8334 63.125C24.8334 70.8738 35.2211 82.0833 54 82.0833C72.7789 82.0833 83.1666 70.8738 83.1666 63.125C83.1666 59.106 82.2495 57.5038 81.4405 56.0924C80.774 54.9332 80.25 54.0174 80.25 51.4583Z" fill="url(#paint1_linear)"/>
<defs>
<filter id="filter0_d" x="0" y="0" width="108" height="108" filterUnits="userSpaceOnUse" color-interpolation-filters="sRGB">
<feFlood flood-opacity="0" result="BackgroundImageFix"/>
<feColorMatrix in="SourceAlpha" type="matrix" values="0 0 0 0 0 0 0 0 0 0 0 0 0 0 0 0 0 0 127 0"/>
<feOffset dy="4"/>
<feGaussianBlur stdDeviation="2"/>
<feColorMatrix type="matrix" values="0 0 0 0 0 0 0 0 0 0 0 0 0 0 0 0 0 0 0.25 0"/>
<feBlend mode="normal" in2="BackgroundImageFix" result="effect1_dropShadow"/>
<feBlend mode="normal" in="SourceGraphic" in2="effect1_dropShadow" result="shape"/>
</filter>
<linearGradient id="paint0_linear" x1="48.6291" y1="57.9231" x2="68.874" y2="78.1679" gradientUnits="userSpaceOnUse">
<stop stop-opacity="0.1"/>
<stop offset="1" stop-opacity="0"/>
</linearGradient>
<linearGradient id="paint1_linear" x1="15.6132" y1="26.3146" x2="86.0838" y2="59.1845" gradientUnits="userSpaceOnUse">
<stop stop-color="white" stop-opacity="0.2"/>
<stop offset="1" stop-color="white" stop-opacity="0"/>
</linearGradient>
</defs>
</svg>
