<svg width="70" height="70" viewBox="0 0 70 70" fill="none" xmlns="http://www.w3.org/2000/svg">
<g clip-path="url(#clip0)">
<path d="M59.7145 10.284C46.0043 -3.42633 23.9983 -3.43097 10.2835 10.284C-3.42681 23.9942 -3.43146 46.0002 10.2835 59.715C23.9937 73.4253 45.9997 73.43 59.7145 59.715C73.4249 46.005 73.4295 23.9988 59.7145 10.284ZM34.999 65.8918C17.9649 65.8918 4.10668 52.0336 4.10668 34.9995C4.10668 17.9654 17.9649 4.10717 34.999 4.10717C52.0331 4.10717 65.8914 17.9654 65.8914 34.9995C65.8914 52.0336 52.0331 65.8918 34.999 65.8918Z" fill="white"/>
<path d="M45.0668 23.6483C44.2198 22.8967 42.9239 22.9739 42.1723 23.821C41.4206 24.6679 41.4978 25.9639 42.3449 26.7156C44.713 28.8172 46.0711 31.8367 46.0711 35C46.0711 41.1052 41.1043 46.0721 34.9991 46.0721C28.8939 46.0721 23.9271 41.1052 23.9271 35C23.9271 31.8054 25.3078 28.7661 27.7151 26.6612C28.5675 25.9158 28.6544 24.6205 27.9089 23.7679C27.1635 22.9154 25.8682 22.8287 25.0157 23.5741C21.7177 26.4578 19.8262 30.6224 19.8262 35C19.8262 43.3664 26.6326 50.1728 34.999 50.1728C43.3653 50.1728 50.1717 43.3664 50.1717 35C50.1719 30.665 48.3112 26.5276 45.0668 23.6483Z" fill="white"/>
<path d="M34.9996 31.5827C36.1319 31.5827 37.05 30.6646 37.05 29.5323V18.5969C37.05 17.4646 36.1319 16.5466 34.9996 16.5466C33.8672 16.5466 32.9492 17.4646 32.9492 18.5969V29.5323C32.9492 30.6648 33.8672 31.5827 34.9996 31.5827Z" fill="white"/>
</g>
<defs>
<clipPath id="clip0">
<rect width="70" height="70" fill="white"/>
</clipPath>
</defs>
</svg>
