<svg width="137" height="137" viewBox="0 0 137 137" fill="none" xmlns="http://www.w3.org/2000/svg">
<g clip-path="url(#clip0)">
<path d="M136.75 68.5C136.75 30.8676 106.135 0.250015 68.5 0.250015C30.8647 0.250015 0.25 30.8676 0.25 68.5C0.25 87.0893 8.33043 100.887 24.1484 109.622C27.2906 131.655 36.8771 136.75 68.5 136.75C99.2397 136.75 109.174 131.983 112.592 111.479C128.581 103.211 136.75 88.7964 136.75 68.5Z" fill="#303C42"/>
<path d="M130.542 76.3202C123.691 69.9053 119.688 60.9077 119.688 51.4375C119.688 46.5939 120.732 41.8292 122.727 37.4321C128 46.5979 131.062 57.1881 131.062 68.5C131.063 71.2513 130.857 73.8307 130.542 76.3202Z" fill="#F2F2F2"/>
<path d="M68.5001 68.5C84.2058 68.5 96.9377 55.7681 96.9377 40.0624C96.9377 24.3567 84.2058 11.6248 68.5001 11.6248C52.7945 11.6248 40.0625 24.3567 40.0625 40.0624C40.0625 55.7681 52.7945 68.5 68.5001 68.5Z" fill="#F2F2F2"/>
<path d="M14.2728 37.4321C16.268 41.8292 17.3126 46.5939 17.3126 51.4375C17.3126 60.8354 13.3552 69.7893 6.57974 76.1962C6.19904 73.731 5.9375 71.1937 5.9375 68.5C5.9375 57.1881 9.00049 46.5981 14.2728 37.4321Z" fill="#F2F2F2"/>
<path d="M68.5001 131.063C35.2027 131.063 30.9149 125.656 29.082 102.739C37.2688 93.8743 52.2318 88.4063 68.5001 88.4063C84.7684 88.4063 99.7314 93.8743 107.918 102.739C106.085 125.655 101.798 131.063 68.5001 131.063Z" fill="#FEE4D0"/>
<path d="M113.448 104.487C113.526 103.647 113.617 102.849 113.683 101.967C113.738 101.22 113.494 100.481 113.011 99.9089C103.963 89.3059 86.9059 82.7187 68.4994 82.7187C50.093 82.7187 33.0358 89.3059 23.9882 99.9089C23.5048 100.481 23.2606 101.22 23.3161 101.967C23.3313 102.169 23.3542 102.345 23.3699 102.545C15.7342 97.4455 10.6453 90.6901 8.03369 82.4129C17.4122 74.8777 22.9994 63.4847 22.9994 51.4375C22.9994 44.6104 21.1484 37.9581 17.7926 31.9993C28.5234 17.135 45.5861 7.19258 65.0136 6.11445C47.8274 7.86575 34.3745 22.4214 34.3745 40.0624C34.3745 58.88 49.6819 74.1874 68.4994 74.1874C87.317 74.1874 102.624 58.88 102.624 40.0624C102.624 22.4211 89.1715 7.86575 71.985 6.11418C91.4125 7.19232 108.475 17.1347 119.206 31.9991C115.85 37.9581 113.999 44.6101 113.999 51.4372C113.999 63.6481 119.717 75.156 129.306 82.688C126.811 92.1129 121.573 99.3389 113.448 104.487Z" fill="#D32F2F"/>
<path d="M130.542 76.3202C123.691 69.9053 119.688 60.9077 119.688 51.4375C119.688 46.5939 120.732 41.8292 122.727 37.4321C128 46.5979 131.062 57.1881 131.062 68.5C131.063 71.2513 130.857 73.8307 130.542 76.3202Z" fill="#F2F2F2"/>
<path d="M113.448 104.487C113.526 103.647 113.617 102.849 113.683 101.967C113.738 101.22 113.494 100.481 113.011 99.9089C103.963 89.3059 86.9059 82.7187 68.4994 82.7187C50.093 82.7187 33.0358 89.3059 23.9882 99.9089C23.5048 100.481 23.2606 101.22 23.3161 101.967C23.3313 102.169 23.3542 102.345 23.3699 102.545C15.7342 97.4455 10.6453 90.6901 8.03369 82.4129C17.4122 74.8777 22.9994 63.4847 22.9994 51.4375C22.9994 44.6104 21.1484 37.9581 17.7926 31.9993C28.5234 17.135 45.5861 7.19258 65.0136 6.11445C47.8274 7.86575 34.3745 22.4214 34.3745 40.0624C34.3745 58.88 49.6819 74.1874 68.4994 74.1874C87.317 74.1874 102.624 58.88 102.624 40.0624C102.624 22.4211 89.1715 7.86575 71.985 6.11418C91.4125 7.19232 108.475 17.1347 119.206 31.9991C115.85 37.9581 113.999 44.6101 113.999 51.4372C113.999 63.6481 119.717 75.156 129.306 82.688C126.811 92.1129 121.573 99.3389 113.448 104.487Z" fill="#D32F2F"/>
<path d="M68.5001 131.063C101.798 131.063 106.085 125.656 107.918 102.739C99.7314 93.8743 84.7684 88.4063 68.5001 88.4063C52.2318 88.4063 37.2688 93.8743 29.082 102.739L57.112 130.769C60.4754 130.971 64.2441 131.063 68.5001 131.063Z" fill="url(#paint0_linear)"/>
<path d="M52.8589 96.9394C50.6426 96.9394 48.5933 98.317 48.5933 108.315C48.5933 118.312 50.6429 119.69 52.8589 119.69C55.0749 119.69 57.1245 118.312 57.1245 108.315C57.1245 98.317 55.0751 96.9394 52.8589 96.9394Z" fill="#303C42"/>
<path d="M84.1406 119.688C86.3569 119.688 88.4063 118.31 88.4063 108.312C88.4063 98.3149 86.3566 96.9373 84.1406 96.9373C81.9246 96.9373 79.875 98.3149 79.875 108.312C79.875 118.31 81.9244 119.688 84.1406 119.688Z" fill="#303C42"/>
<path d="M136.75 68.5C136.75 30.8676 106.135 0.250015 68.5 0.250015C30.8647 0.250015 0.25 30.8676 0.25 68.5C0.25 87.0893 8.33043 100.887 24.1484 109.622C27.2906 131.655 36.8771 136.75 68.5 136.75C99.2397 136.75 109.174 131.983 112.592 111.479C128.581 103.211 136.75 88.7964 136.75 68.5Z" fill="url(#paint1_linear)"/>
<path opacity="0.1" d="M6.57964 76.1963C7.60606 75.2253 8.54449 74.1792 9.43761 73.0989C8.29202 72.6894 7.19815 72.229 6.08643 71.7864C6.19893 73.2874 6.35783 74.7606 6.57964 76.1963Z" fill="black"/>
<path opacity="0.1" d="M119.973 55.5928C120.96 63.505 124.704 70.8533 130.543 76.3202C130.857 73.8305 131.063 71.2514 131.063 68.5C131.063 60.9573 129.596 53.7844 127.126 47.0916C125.136 50.0749 122.729 52.9134 119.973 55.5928Z" fill="black"/>
<path opacity="0.1" d="M15.1536 74.9259C13.114 77.6847 10.7557 80.226 8.03369 82.4129C10.6453 90.6901 15.7342 97.4457 23.3699 102.545C23.3542 102.345 23.3313 102.169 23.3161 101.967C23.2606 101.22 23.5048 100.481 23.9882 99.9089C33.0361 89.3059 50.093 82.7187 68.4994 82.7187C86.9059 82.7187 103.963 89.3059 113.011 99.9089C113.494 100.481 113.738 101.22 113.683 101.967C113.617 102.849 113.526 103.647 113.448 104.487C121.573 99.3389 126.811 92.1129 129.306 82.688C121.998 76.9478 116.961 68.8927 114.967 59.9829C99.57 72.1119 76.1784 79.8748 50.0149 79.8748C37.5681 79.8751 25.787 78.0723 15.1536 74.9259Z" fill="black"/>
</g>
<defs>
<linearGradient id="paint0_linear" x1="48.7826" y1="83.0104" x2="95.7272" y2="129.954" gradientUnits="userSpaceOnUse">
<stop stop-opacity="0.1"/>
<stop offset="1" stop-opacity="0"/>
</linearGradient>
<linearGradient id="paint1_linear" x1="6.05352" y1="40.9378" x2="129.039" y2="98.2847" gradientUnits="userSpaceOnUse">
<stop stop-color="white" stop-opacity="0.2"/>
<stop offset="1" stop-color="white" stop-opacity="0"/>
</linearGradient>
<clipPath id="clip0">
<rect width="136.5" height="136.5" fill="white" transform="translate(0.25 0.250015)"/>
</clipPath>
</defs>
</svg>
