<svg width="553" height="361" viewBox="0 0 553 361" fill="none" xmlns="http://www.w3.org/2000/svg">
<g clip-path="url(#clip0)">
<path d="M74.9999 360.71C116.421 360.71 150 356.807 150 351.993C150 347.179 116.421 343.276 74.9999 343.276C33.5786 343.276 0 347.179 0 351.993C0 356.807 33.5786 360.71 74.9999 360.71Z" fill="#E6E6E6"/>
<path d="M477.616 361C519.037 361 552.616 357.098 552.616 352.283C552.616 347.469 519.037 343.567 477.616 343.567C436.195 343.567 402.616 347.469 402.616 352.283C402.616 357.098 436.195 361 477.616 361Z" fill="#E6E6E6"/>
<path d="M461.559 193.619H81.6399C80.5739 193.618 79.5519 193.194 78.7981 192.441C78.0443 191.687 77.6203 190.666 77.619 189.6V4.01893C77.6203 2.95343 78.0443 1.93192 78.7981 1.17849C79.5519 0.425066 80.5739 0.00124419 81.6399 0H461.559C462.625 0.00125342 463.647 0.425085 464.401 1.17851C465.155 1.93194 465.579 2.95343 465.58 4.01893V189.6C465.579 190.666 465.155 191.687 464.401 192.441C463.647 193.194 462.625 193.618 461.559 193.619ZM81.6399 1.60759C81.0003 1.60829 80.3871 1.86257 79.9348 2.31463C79.4825 2.76669 79.2281 3.37962 79.2274 4.01893V189.6C79.2281 190.24 79.4825 190.853 79.9348 191.305C80.3871 191.757 81.0003 192.011 81.6399 192.012H461.559C462.199 192.011 462.812 191.757 463.264 191.305C463.717 190.853 463.971 190.24 463.972 189.6V4.01893C463.971 3.37962 463.717 2.76669 463.264 2.31463C462.812 1.86257 462.199 1.60829 461.559 1.60759H81.6399Z" fill="#E6E6E6"/>
<path d="M258.237 80.6369C261.681 80.6369 264.473 77.8464 264.473 74.4041C264.473 70.9618 261.681 68.1713 258.237 68.1713C254.793 68.1713 252.001 70.9618 252.001 74.4041C252.001 77.8464 254.793 80.6369 258.237 80.6369Z" fill="#3F3D56"/>
<path d="M258.237 78.411C260.451 78.411 262.246 76.6171 262.246 74.4042C262.246 72.1913 260.451 70.3973 258.237 70.3973C256.023 70.3973 254.228 72.1913 254.228 74.4042C254.228 76.6171 256.023 78.411 258.237 78.411Z" fill="#F35A5E"/>
<path d="M284.962 80.6369C288.406 80.6369 291.198 77.8464 291.198 74.4041C291.198 70.9618 288.406 68.1713 284.962 68.1713C281.518 68.1713 278.726 70.9618 278.726 74.4041C278.726 77.8464 281.518 80.6369 284.962 80.6369Z" fill="#3F3D56"/>
<path d="M284.962 78.411C287.176 78.411 288.971 76.6171 288.971 74.4042C288.971 72.1913 287.176 70.3973 284.962 70.3973C282.748 70.3973 280.953 72.1913 280.953 74.4042C280.953 76.6171 282.748 78.411 284.962 78.411Z" fill="#F35A5E"/>
<path d="M257.535 74.8494C254.542 74.8396 251.654 75.9487 249.437 77.9588C247.22 79.969 245.835 82.7349 245.554 85.7134L244.307 98.4867C244.159 100.003 244.33 101.533 244.809 102.979C245.288 104.425 246.065 105.755 247.089 106.883C248.113 108.011 249.362 108.913 250.755 109.53C252.149 110.147 253.656 110.466 255.18 110.466H288.019C289.543 110.466 291.051 110.147 292.444 109.53C293.837 108.913 295.086 108.011 296.11 106.883C297.134 105.755 297.911 104.425 298.39 102.979C298.869 101.533 299.04 100.003 298.892 98.4867L297.645 85.7134C297.364 82.7349 295.979 79.969 293.762 77.9588C291.546 75.9487 288.657 74.8396 285.664 74.8494H257.535Z" fill="#3F3D56"/>
<path d="M274.927 92.9088C275.847 91.6742 277.219 90.8545 278.743 90.6294C280.266 90.4043 281.817 90.7921 283.055 91.7079C283.743 90.7847 284.142 89.6783 284.2 88.5286C284.258 87.379 283.974 86.2379 283.383 85.2498C282.793 84.2617 281.922 83.471 280.881 82.9779C279.84 82.4848 278.677 82.3114 277.538 82.4798C276.398 82.6481 275.334 83.1506 274.481 83.9235C273.628 84.6965 273.023 85.7051 272.743 86.8218C272.464 87.9385 272.522 89.113 272.911 90.1966C273.3 91.2801 274.001 92.2241 274.927 92.9088Z" fill="white"/>
<path d="M261.35 94.0312C262.27 92.7966 263.642 91.977 265.165 91.7519C266.689 91.5268 268.24 91.9146 269.478 92.8303C270.166 91.9071 270.564 90.8007 270.623 89.6511C270.681 88.5014 270.397 87.3603 269.806 86.3722C269.215 85.3841 268.344 84.5934 267.304 84.1003C266.263 83.6072 265.099 83.4339 263.96 83.6022C262.821 83.7705 261.757 84.273 260.904 85.0459C260.05 85.8189 259.446 86.8276 259.166 87.9443C258.886 89.061 258.945 90.2354 259.334 91.319C259.722 92.4026 260.424 93.3465 261.35 94.0312Z" fill="white"/>
<path d="M265.2 90.3629C266.384 90.3629 267.344 89.4035 267.344 88.2201C267.344 87.0367 266.384 86.0774 265.2 86.0774C264.016 86.0774 263.056 87.0367 263.056 88.2201C263.056 89.4035 264.016 90.3629 265.2 90.3629Z" fill="#3F3D56"/>
<path d="M279.084 88.7303C280.268 88.7303 281.227 87.7709 281.227 86.5876C281.227 85.4042 280.268 84.4448 279.084 84.4448C277.9 84.4448 276.94 85.4042 276.94 86.5876C276.94 87.7709 277.9 88.7303 279.084 88.7303Z" fill="#3F3D56"/>
<path d="M271.738 97.9999C272.968 97.9999 273.965 97.0033 273.965 95.7739C273.965 94.5445 272.968 93.5479 271.738 93.5479C270.508 93.5479 269.511 94.5445 269.511 95.7739C269.511 97.0033 270.508 97.9999 271.738 97.9999Z" fill="#F35A5E"/>
<path d="M262.85 99.3356C262.962 100.552 263.525 101.682 264.427 102.506C265.33 103.329 266.507 103.786 267.729 103.788H276.638C277.86 103.786 279.037 103.329 279.94 102.505C280.842 101.682 281.405 100.552 281.517 99.3356H262.85Z" fill="white"/>
<path d="M133.659 80.8596C133.66 81.6786 133.499 82.4898 133.186 83.2467C132.873 84.0036 132.414 84.6914 131.835 85.2708C131.255 85.8502 130.568 86.3098 129.811 86.6235C129.054 86.9371 128.242 87.0985 127.423 87.0985C126.604 87.0985 125.792 86.9371 125.035 86.6235C124.278 86.3098 123.591 85.8502 123.011 85.2708C122.432 84.6914 121.973 84.0036 121.66 83.2467C121.347 82.4898 121.186 81.6786 121.187 80.8596C121.187 77.4173 123.979 63.0515 127.423 63.0515C130.867 63.0515 133.659 77.4173 133.659 80.8596Z" fill="#E6E6E6"/>
<path d="M131.432 80.8595C131.432 81.9222 131.009 82.9414 130.258 83.6928C129.506 84.4442 128.486 84.8664 127.423 84.8664C126.36 84.8664 125.34 84.4442 124.588 83.6928C123.837 82.9414 123.414 81.9222 123.414 80.8595C123.414 78.6466 125.209 65.2775 127.423 65.2775C129.637 65.2775 131.432 78.6466 131.432 80.8595Z" fill="white"/>
<path d="M147.912 80.8597C147.912 82.5127 148.569 84.0981 149.739 85.267C150.908 86.4358 152.495 87.0925 154.148 87.0925C155.802 87.0925 157.388 86.4358 158.558 85.267C159.727 84.0981 160.384 82.5127 160.384 80.8597C160.384 77.4174 157.592 61.7159 154.148 61.7159C150.704 61.7159 147.912 77.4174 147.912 80.8597Z" fill="#E6E6E6"/>
<path d="M150.14 80.8596C150.14 81.9223 150.562 82.9414 151.314 83.6929C152.066 84.4443 153.085 84.8664 154.148 84.8664C155.212 84.8664 156.231 84.4443 156.983 83.6929C157.735 82.9414 158.157 81.9223 158.157 80.8596C158.157 78.6467 156.362 63.9419 154.148 63.9419C151.934 63.9419 150.14 78.6467 150.14 80.8596Z" fill="white"/>
<path d="M126.722 81.3048C123.728 81.2949 120.84 82.404 118.623 84.4141C116.406 86.4243 115.021 89.1902 114.74 92.1687L113.493 104.942C113.345 106.458 113.516 107.988 113.996 109.434C114.475 110.88 115.251 112.21 116.275 113.339C117.299 114.467 118.548 115.368 119.941 115.985C121.335 116.602 122.842 116.921 124.366 116.921H157.206C158.73 116.921 160.237 116.602 161.63 115.985C163.024 115.368 164.272 114.467 165.296 113.339C166.32 112.21 167.097 110.88 167.576 109.434C168.055 107.988 168.226 106.458 168.078 104.942L166.831 92.1687C166.55 89.1902 165.166 86.4243 162.949 84.4141C160.732 82.404 157.843 81.2949 154.85 81.3048H126.722Z" fill="#E6E6E6"/>
<path d="M144.113 99.3642C145.033 98.1296 146.405 97.31 147.929 97.0849C149.453 96.8597 151.003 97.2476 152.241 98.1633C152.929 97.2402 153.328 96.1337 153.386 94.9841C153.445 93.8344 153.16 92.6933 152.57 91.7052C151.979 90.7171 151.108 89.9264 150.067 89.4333C149.027 88.9402 147.863 88.7669 146.724 88.9352C145.584 89.1035 144.521 89.606 143.667 90.3789C142.814 91.1519 142.209 92.1606 141.929 93.2773C141.65 94.394 141.708 95.5685 142.097 96.652C142.486 97.7356 143.187 98.6795 144.113 99.3642Z" fill="white"/>
<path d="M130.536 100.487C131.456 99.2521 132.828 98.4324 134.352 98.2073C135.875 97.9822 137.426 98.37 138.664 99.2857C139.352 98.3626 139.75 97.2561 139.809 96.1065C139.867 94.9569 139.583 93.8158 138.992 92.8277C138.401 91.8395 137.531 91.0489 136.49 90.5558C135.449 90.0627 134.286 89.8893 133.146 90.0576C132.007 90.226 130.943 90.7284 130.09 91.5014C129.236 92.2743 128.632 93.283 128.352 94.3997C128.073 95.5164 128.131 96.6909 128.52 97.7745C128.908 98.858 129.61 99.8019 130.536 100.487Z" fill="white"/>
<path d="M134.386 100.38C135.57 100.38 136.53 99.4206 136.53 98.2372C136.53 97.0538 135.57 96.0945 134.386 96.0945C133.202 96.0945 132.242 97.0538 132.242 98.2372C132.242 99.4206 133.202 100.38 134.386 100.38Z" fill="#E6E6E6"/>
<path d="M148.715 99.1926C149.899 99.1926 150.859 98.2332 150.859 97.0498C150.859 95.8664 149.899 94.9071 148.715 94.9071C147.531 94.9071 146.571 95.8664 146.571 97.0498C146.571 98.2332 147.531 99.1926 148.715 99.1926Z" fill="#E6E6E6"/>
<path d="M140.924 104.455C142.154 104.455 143.151 103.459 143.151 102.229C143.151 101 142.154 100.003 140.924 100.003C139.694 100.003 138.697 101 138.697 102.229C138.697 103.459 139.694 104.455 140.924 104.455Z" fill="white"/>
<path d="M145.583 103.852C146.344 103.456 147.213 103.721 147.958 104.027C148.774 104.361 149.565 104.741 150.406 105.013C151.975 105.562 153.657 105.708 155.297 105.439C158.264 104.885 160.753 102.234 160.087 99.0913C159.909 98.2509 158.62 98.6065 158.798 99.4463C158.909 100.076 158.857 100.723 158.647 101.327C158.438 101.931 158.078 102.472 157.601 102.898C156.511 103.83 155.108 104.314 153.675 104.252C152.092 104.176 150.541 103.779 149.117 103.085C147.756 102.482 146.328 101.96 144.908 102.699C144.145 103.096 144.82 104.249 145.583 103.852H145.583Z" fill="white"/>
<path d="M137.109 102.699C135.725 101.979 134.325 102.457 132.992 103.044C131.54 103.757 129.958 104.168 128.342 104.252C126.938 104.312 125.561 103.849 124.478 102.954C123.982 102.529 123.605 101.982 123.385 101.367C123.164 100.752 123.106 100.09 123.218 99.4464C123.396 98.608 122.108 98.2496 121.93 99.0913C121.263 102.234 123.753 104.885 126.719 105.439C128.36 105.709 130.042 105.563 131.611 105.014C132.451 104.739 133.243 104.362 134.059 104.027C134.803 103.721 135.673 103.456 136.434 103.852C137.196 104.249 137.873 103.096 137.109 102.699Z" fill="white"/>
<path d="M141.454 110.02C143.422 110.02 145.017 109.223 145.017 108.24C145.017 107.256 143.422 106.459 141.454 106.459C139.486 106.459 137.89 107.256 137.89 108.24C137.89 109.223 139.486 110.02 141.454 110.02Z" fill="white"/>
<path d="M379.92 92.3737C386.867 92.3737 392.499 86.7444 392.499 79.8004C392.499 72.8563 386.867 67.2271 379.92 67.2271C372.972 67.2271 367.34 72.8563 367.34 79.8004C367.34 86.7444 372.972 92.3737 379.92 92.3737Z" fill="#3F3D56"/>
<path d="M379.92 87.8834C384.386 87.8834 388.006 84.2645 388.006 79.8005C388.006 75.3365 384.386 71.7177 379.92 71.7177C375.453 71.7177 371.833 75.3365 371.833 79.8005C371.833 84.2645 375.453 87.8834 379.92 87.8834Z" fill="#F35A5E"/>
<path d="M424.907 92.3737C431.855 92.3737 437.487 86.7444 437.487 79.8004C437.487 72.8563 431.855 67.2271 424.907 67.2271C417.96 67.2271 412.328 72.8563 412.328 79.8004C412.328 86.7444 417.96 92.3737 424.907 92.3737Z" fill="#3F3D56"/>
<path d="M424.907 87.8834C429.374 87.8834 432.994 84.2645 432.994 79.8005C432.994 75.3365 429.374 71.7177 424.907 71.7177C420.441 71.7177 416.82 75.3365 416.82 79.8005C416.82 84.2645 420.441 87.8834 424.907 87.8834Z" fill="#F35A5E"/>
<path d="M388.572 75.7936C388.377 75.7936 388.184 75.7981 387.992 75.8072C380.743 76.1473 375.732 83.2389 377.499 90.2736L377.754 91.2927C378.663 94.9128 379.282 98.5936 379.895 102.275C380.317 104.827 381.632 107.146 383.606 108.819C385.579 110.492 388.083 111.41 390.671 111.41H414.602C417.287 111.41 419.879 110.421 421.881 108.633C423.883 106.844 425.156 104.381 425.456 101.713C425.878 98.3843 426.52 95.0869 427.38 91.8431L427.774 90.2736C429.54 83.2389 424.529 76.1473 417.281 75.8072C417.088 75.7981 416.895 75.7936 416.7 75.7936H388.572Z" fill="#3F3D56"/>
<path d="M405.964 93.8531C406.884 92.6185 408.256 91.7988 409.779 91.5737C411.303 91.3486 412.854 91.7364 414.092 92.6522C414.78 91.729 415.178 90.6226 415.237 89.4729C415.295 88.3233 415.011 87.1822 414.42 86.1941C413.829 85.206 412.958 84.4153 411.918 83.9222C410.877 83.4291 409.713 83.2558 408.574 83.4241C407.435 83.5924 406.371 84.0949 405.518 84.8678C404.664 85.6408 404.059 86.6495 403.78 87.7662C403.5 88.8829 403.559 90.0573 403.947 91.1409C404.336 92.2245 405.038 93.1684 405.964 93.8531Z" fill="white"/>
<path d="M392.386 94.9754C393.306 93.7408 394.678 92.9212 396.202 92.6961C397.726 92.4709 399.276 92.8588 400.514 93.7745C401.202 92.8514 401.601 91.7449 401.659 90.5953C401.718 89.4456 401.434 88.3045 400.843 87.3164C400.252 86.3283 399.381 85.5376 398.34 85.0445C397.3 84.5514 396.136 84.3781 394.997 84.5464C393.857 84.7147 392.794 85.2172 391.94 85.9901C391.087 86.7631 390.482 87.7718 390.203 88.8885C389.923 90.0052 389.981 91.1797 390.37 92.2632C390.759 93.3468 391.461 94.2907 392.386 94.9754Z" fill="white"/>
<path d="M394.009 91.3072C395.193 91.3072 396.153 90.3478 396.153 89.1645C396.153 87.9811 395.193 87.0217 394.009 87.0217C392.825 87.0217 391.866 87.9811 391.866 89.1645C391.866 90.3478 392.825 91.3072 394.009 91.3072Z" fill="#3F3D56"/>
<path d="M407.893 90.565C409.077 90.565 410.037 89.6057 410.037 88.4223C410.037 87.2389 409.077 86.2795 407.893 86.2795C406.709 86.2795 405.749 87.2389 405.749 88.4223C405.749 89.6057 406.709 90.565 407.893 90.565Z" fill="#3F3D56"/>
<path d="M405.002 96.7181C405.002 97.0765 404.915 97.4295 404.749 97.7473C404.584 98.065 404.344 98.3381 404.05 98.5432C403.756 98.7484 403.417 98.8795 403.061 98.9256C402.705 98.9717 402.344 98.9313 402.007 98.8078C401.671 98.6843 401.369 98.4815 401.128 98.2165C400.886 97.9515 400.713 97.6322 400.621 97.2857C400.53 96.9392 400.523 96.5757 400.603 96.2262C400.682 95.8767 400.844 95.5515 401.076 95.2782C401.485 94.7973 401.955 96.2729 402.636 96.2729C403.341 96.2729 404.108 94.8194 404.516 95.3302C404.831 95.7241 405.003 96.2137 405.002 96.7181Z" fill="#F35A5E"/>
<path d="M397.875 99.8346H408.565C408.565 101.251 408.002 102.61 407 103.612C405.997 104.614 404.638 105.177 403.22 105.177C401.802 105.177 400.443 104.614 399.441 103.612C398.438 102.61 397.875 101.251 397.875 99.8346Z" fill="white"/>
<path d="M401.077 78.4649C402.676 78.4649 403.972 76.2723 403.972 73.5676C403.972 70.863 402.676 68.6704 401.077 68.6704C399.478 68.6704 398.182 70.863 398.182 73.5676C398.182 76.2723 399.478 78.4649 401.077 78.4649Z" fill="#F35A5E"/>
<path d="M407.903 76.1178C409.455 73.9022 409.651 71.3631 408.342 70.4464C407.032 69.5297 404.712 70.5827 403.16 72.7983C401.608 75.0139 401.411 77.553 402.721 78.4697C404.031 79.3864 406.351 78.3334 407.903 76.1178Z" fill="#F35A5E"/>
<path d="M178.42 133.828H103.152C102.086 133.827 101.064 133.403 100.31 132.65C99.5559 131.897 99.1319 130.875 99.1306 129.81V48.8272C99.1319 47.7617 99.5559 46.7402 100.31 45.9868C101.064 45.2334 102.086 44.8096 103.152 44.8083H178.42C179.486 44.8096 180.508 45.2334 181.262 45.9868C182.015 46.7403 182.439 47.7618 182.441 48.8272V129.81C182.439 130.875 182.015 131.897 181.262 132.65C180.508 133.403 179.486 133.827 178.42 133.828ZM103.152 46.4159C102.512 46.4166 101.899 46.6709 101.446 47.1229C100.994 47.575 100.74 48.1879 100.739 48.8272V129.81C100.74 130.449 100.994 131.062 101.446 131.514C101.899 131.966 102.512 132.22 103.152 132.221H178.42C179.059 132.22 179.673 131.966 180.125 131.514C180.577 131.062 180.832 130.449 180.832 129.81V48.8272C180.832 48.1879 180.577 47.575 180.125 47.1229C179.673 46.6709 179.059 46.4166 178.42 46.4159H103.152Z" fill="#E6E6E6"/>
<path d="M309.234 133.828H233.965C232.899 133.827 231.877 133.403 231.124 132.65C230.37 131.897 229.946 130.875 229.945 129.81V48.8272C229.946 47.7618 230.37 46.7403 231.124 45.9868C231.877 45.2334 232.899 44.8096 233.965 44.8083H309.234C310.3 44.8096 311.322 45.2334 312.076 45.9868C312.829 46.7403 313.253 47.7618 313.255 48.8272V129.81C313.253 130.875 312.829 131.897 312.076 132.65C311.322 133.403 310.3 133.827 309.234 133.828ZM233.965 46.4159C233.326 46.4166 232.713 46.6709 232.26 47.1229C231.808 47.575 231.554 48.1879 231.553 48.8272V129.81C231.554 130.449 231.808 131.062 232.26 131.514C232.713 131.966 233.326 132.22 233.965 132.221H309.234C309.873 132.22 310.487 131.966 310.939 131.514C311.391 131.062 311.646 130.449 311.646 129.81V48.8272C311.646 48.1879 311.391 47.575 310.939 47.1229C310.487 46.6709 309.873 46.4166 309.234 46.4159H233.965Z" fill="#E6E6E6"/>
<path d="M440.048 133.828H364.779C363.713 133.827 362.691 133.403 361.937 132.65C361.184 131.897 360.76 130.875 360.758 129.81V48.8272C360.76 47.7618 361.184 46.7403 361.937 45.9868C362.691 45.2334 363.713 44.8096 364.779 44.8083H440.048C441.114 44.8096 442.136 45.2334 442.889 45.9868C443.643 46.7403 444.067 47.7618 444.068 48.8272V129.81C444.067 130.875 443.643 131.897 442.889 132.65C442.136 133.403 441.114 133.827 440.048 133.828ZM364.779 46.4159C364.14 46.4166 363.526 46.6709 363.074 47.1229C362.622 47.575 362.367 48.1879 362.367 48.8272V129.81C362.367 130.449 362.622 131.062 363.074 131.514C363.526 131.966 364.14 132.22 364.779 132.221H440.048C440.687 132.22 441.3 131.966 441.753 131.514C442.205 131.062 442.459 130.449 442.46 129.81V48.8272C442.459 48.1879 442.205 47.575 441.753 47.1229C441.3 46.6709 440.687 46.4166 440.048 46.4159H364.779Z" fill="#E6E6E6"/>
<path d="M383.809 143C383.655 143 383.507 143.061 383.398 143.17C383.289 143.279 383.227 143.427 383.227 143.581V148.23C383.227 148.384 383.289 148.532 383.398 148.641C383.507 148.75 383.655 148.811 383.809 148.811H421.018C421.172 148.811 421.32 148.75 421.429 148.641C421.538 148.532 421.599 148.384 421.599 148.23V143.581C421.599 143.427 421.538 143.279 421.429 143.17C421.32 143.061 421.172 143 421.018 143H383.809Z" fill="#3F3D56"/>
<path d="M252.995 143C252.841 143 252.693 143.061 252.584 143.17C252.475 143.279 252.414 143.427 252.414 143.581V148.23C252.414 148.384 252.475 148.532 252.584 148.641C252.693 148.75 252.841 148.811 252.995 148.811H290.204C290.358 148.811 290.506 148.75 290.615 148.641C290.724 148.532 290.786 148.384 290.786 148.23V143.581C290.786 143.427 290.724 143.279 290.615 143.17C290.506 143.061 290.358 143 290.204 143H252.995Z" fill="#F35A5E"/>
<path d="M122.181 143C122.027 143 121.879 143.061 121.77 143.17C121.661 143.279 121.6 143.427 121.6 143.581V148.23C121.6 148.384 121.661 148.532 121.77 148.641C121.879 148.75 122.027 148.811 122.181 148.811H159.39C159.544 148.811 159.692 148.75 159.801 148.641C159.91 148.532 159.972 148.384 159.972 148.23V143.581C159.972 143.427 159.91 143.279 159.801 143.17C159.692 143.061 159.544 143 159.39 143H122.181Z" fill="#E6E6E6"/>
<path d="M102.907 219.5L101.163 227.055C101.163 227.055 101.744 244.488 97.0929 242.745C92.4418 241.001 93.6046 225.893 93.6046 225.893L97.6743 218.338L102.907 219.5Z" fill="#FFB8B8"/>
<path d="M77.0348 136.693C83.4567 136.693 88.6627 131.489 88.6627 125.071C88.6627 118.652 83.4567 113.448 77.0348 113.448C70.6129 113.448 65.4069 118.652 65.4069 125.071C65.4069 131.489 70.6129 136.693 77.0348 136.693Z" fill="#FFB8B8"/>
<path d="M68.0232 128.267L66.8604 145.119L81.3953 146.862C81.3953 146.862 81.3953 132.916 82.5581 131.172C83.7209 129.429 68.0232 128.267 68.0232 128.267Z" fill="#FFB8B8"/>
<path d="M100.257 150.213L81.4227 142.26C81.4227 142.26 72.423 135.332 67.1519 140.465L64.7862 143.852C64.7862 143.852 43.8631 152.005 43.8687 158.398L52.0362 190.351C52.0362 190.351 47.4008 208.37 54.3785 209.526L92.1722 212.979C92.1722 212.979 97.3992 206.583 92.7409 198.451L94.4683 179.273L100.257 150.213Z" fill="#F35A5E"/>
<path d="M87.4667 150.805L100.257 150.213C100.257 150.213 104.328 151.371 107.244 162.41C110.161 173.448 110.758 191.462 110.758 191.462L103.81 224.01L95.0879 222.856L98.5488 191.473L92.7165 170.558L87.4667 150.805Z" fill="#F35A5E"/>
<path d="M50.8419 154.324L44.5375 156.292C44.5375 156.292 39.2226 164.213 39.2262 168.28C39.2297 172.348 36.9311 203.149 36.9311 203.149L52.0692 228.123L56.7097 215.916L47.3937 200.234L54.935 181.051L50.8419 154.324Z" fill="#F35A5E"/>
<path d="M93.8953 211.656L52.0948 207.98C52.0948 207.98 47.9651 234.319 48.5465 244.779C49.1279 255.239 49.7093 271.51 49.7093 271.51L45.0581 342.405L63.0813 340.08L65.4069 281.388L72.9651 249.428L81.686 290.105L87.4999 342.405L103.198 340.661L97.965 277.321C97.965 277.321 102.616 220.372 93.8953 211.656Z" fill="#2F2E41"/>
<path d="M99.7092 337.756L104.942 339.499C104.942 339.499 115.988 336.594 113.081 344.148C110.174 351.702 102.035 350.54 102.035 350.54C102.035 350.54 92.1511 358.094 88.0813 352.283L90.4069 340.08L99.7092 337.756Z" fill="#2F2E41"/>
<path d="M57.2674 337.756L62.4999 339.499C62.4999 339.499 73.5464 336.594 70.6395 344.148C67.7325 351.702 59.593 350.54 59.593 350.54C59.593 350.54 49.7093 358.094 45.6395 352.283L47.9651 340.08L57.2674 337.756Z" fill="#2F2E41"/>
<path d="M68.0232 135.24C68.0232 135.24 55.8139 126.523 62.2093 116.064C66.646 108.807 75.8395 109.381 81.0546 110.414C82.4596 110.673 83.7804 111.27 84.9033 112.153C86.0261 113.036 86.9173 114.179 87.4999 115.482C88.372 117.516 88.372 119.55 84.8836 119.55C77.9069 119.55 81.3953 124.78 81.3953 124.78C81.3953 124.78 76.7441 125.942 77.9069 130.01C79.0697 134.078 68.0232 135.24 68.0232 135.24Z" fill="#2F2E41"/>
<path d="M485.942 339.339C485.942 339.339 473.049 340.33 474.371 344.956C475.694 349.583 485.942 348.922 485.942 348.922C485.942 348.922 493.877 348.261 498.174 349.583C502.472 350.904 507.431 349.583 507.762 347.27C508.092 344.956 505.448 343.304 505.448 343.304L503.795 340L485.942 339.339Z" fill="#2F2E41"/>
<path d="M452.056 236.078L450.733 241.365C450.733 241.365 444.783 253.591 452.056 253.591C459.329 253.591 456.684 242.356 456.684 242.356L457.345 237.07L452.056 236.078Z" fill="#9F616A"/>
<path d="M515.861 231.783L517.184 237.07C517.184 237.07 523.135 249.296 515.861 249.296C508.588 249.296 511.233 238.061 511.233 238.061L510.572 232.774L515.861 231.783Z" fill="#9F616A"/>
<path d="M481.479 141.904C489.33 141.904 495.695 135.543 495.695 127.696C495.695 119.848 489.33 113.487 481.479 113.487C473.628 113.487 467.263 119.848 467.263 127.696C467.263 135.543 473.628 141.904 481.479 141.904Z" fill="#9F616A"/>
<path d="M477.181 138.6C477.181 138.6 478.834 146.2 477.843 149.835C476.851 153.469 498.34 149.174 498.34 149.174C498.34 149.174 490.736 136.617 491.066 136.287L477.181 138.6Z" fill="#9F616A"/>
<path d="M480.451 147.013C480.451 147.013 474.499 145.366 472.517 147.351C470.535 149.335 458.969 154.963 458.969 154.963L466.946 203.53L501.321 195.9L507.232 149.964C507.232 149.964 497.852 144.477 496.259 145.574C494.666 146.671 480.451 147.013 480.451 147.013Z" fill="#F35A5E"/>
<path d="M461.614 155.291L460.026 154.442C460.026 154.442 454.011 155.628 454.345 160.254C454.68 164.879 456.025 190.652 456.025 190.652L450.776 237.248L460.365 238.892L469.918 199.892L461.614 155.291Z" fill="#F35A5E"/>
<path d="M506.241 150.956L507.827 150.104C507.827 150.104 513.845 151.28 513.519 155.906C513.192 160.533 511.892 186.308 511.892 186.308L517.223 232.894L507.637 234.555L498.015 195.572L506.241 150.956Z" fill="#F35A5E"/>
<path d="M467.263 198.739L465.941 218.896L461.643 259.209L467.925 342.809L489.744 343.47L483.132 263.835L489.744 236.409L511.357 235.609C511.357 235.609 512.886 204.026 500.654 194.113L467.263 198.739Z" fill="#2F2E41"/>
<path d="M491.067 231.783L487.595 304.644L486.438 341.487L505.943 343.47L510.865 235.117L503.298 227.487L491.067 231.783Z" fill="#2F2E41"/>
<path d="M487.761 108.861C487.761 108.861 474.867 107.209 471.231 113.487C471.231 113.487 470.239 118.113 466.933 119.765C463.627 121.417 467.594 127.035 468.586 128.687C469.578 130.339 472.222 139.922 469.247 142.235C466.272 144.548 474.537 151.156 474.537 151.156C474.537 151.156 478.504 156.443 475.198 160.409C471.892 164.374 479.496 165.696 479.496 165.696C479.496 165.696 477.843 176.93 480.818 173.956C480.818 173.956 482.14 199.4 494.703 183.539C507.266 167.678 512.555 160.078 507.266 153.8C501.976 147.522 505.943 141.904 505.943 141.904C505.943 141.904 507.596 138.6 503.96 133.643C500.323 128.687 500.323 108.861 487.761 108.861Z" fill="#2F2E41"/>
<path d="M469.082 341.322C469.082 341.322 456.188 342.313 457.511 346.939C458.833 351.565 469.082 350.904 469.082 350.904C469.082 350.904 477.016 350.243 481.314 351.565C485.612 352.887 490.571 351.565 490.901 349.252C491.232 346.939 488.587 345.287 488.587 345.287L486.934 341.983L469.082 341.322Z" fill="#2F2E41"/>
<path d="M322.799 69.5532L303.924 58.1874L309.436 79.5128L312.758 71.7434L318.3 79.1711L319.944 77.9462L314.402 70.5185L322.799 69.5532Z" fill="#F35A5E"/>
<path d="M348.318 69.5532L367.193 58.1874L361.681 79.5128L358.358 71.7434L352.817 79.1711L351.173 77.9462L356.715 70.5185L348.318 69.5532Z" fill="#3F3D56"/>
</g>
<defs>
<clipPath id="clip0">
<rect width="552.616" height="361" fill="white"/>
</clipPath>
</defs>
</svg>
