<svg width="554" height="316" viewBox="0 0 554 316" fill="none" xmlns="http://www.w3.org/2000/svg">
<g clip-path="url(#clip0)">
<path d="M190.425 197.081C190.994 195.894 191.941 194.955 192.729 193.906C192.614 194.004 192.495 194.096 192.372 194.182C191.789 194.438 191.251 194.791 190.776 195.225C190.485 195.644 190.289 196.126 190.201 196.634L188.845 202.107C189.111 201.759 189.377 201.416 189.648 201.074C189.631 199.701 189.896 198.34 190.425 197.081Z" fill="#F35A5E"/>
<path d="M318.497 200.776C318.408 201.395 318.228 201.996 317.965 202.559C317.976 204.882 317.673 207.194 317.066 209.43C316.816 210.37 316.63 211.328 316.508 212.296C315.252 221.209 314.039 230.521 316.183 239.158C316.339 238.634 316.619 238.159 316.997 237.777C318.412 235.971 318.971 233.619 319.391 231.332C321.599 219.287 320.987 207 320.455 194.695C320.126 194.321 319.733 194.014 319.295 193.789C319.32 194.325 319.308 194.862 319.258 195.397C319.093 197.202 318.839 198.997 318.497 200.776Z" fill="#F35A5E"/>
<path d="M243.898 197.098C243.89 196.377 243.749 195.665 243.483 194.999C243.207 194.458 242.86 193.96 242.451 193.519L241.302 192.16C240.716 206.585 239.472 221.049 242.057 235.176C242.477 237.463 243.036 239.815 244.451 241.621C244.83 242.003 245.11 242.478 245.265 243.002C247.393 234.386 246.196 225.053 244.941 216.14C244.819 215.172 244.632 214.214 244.382 213.273C243.437 209.66 243.216 205.884 243.733 202.178C243.948 200.494 244.003 198.793 243.898 197.098Z" fill="#F35A5E"/>
<path d="M250.484 166.651C252.022 169.28 252.979 172.395 253.841 175.371L254.208 176.658C254.033 172.295 253.948 167.927 253.916 163.558C253.086 164.324 252.251 165.081 251.41 165.828L250.484 166.651Z" fill="#F35A5E"/>
<path d="M262.854 313.868C263.087 310.809 262.859 307.731 262.178 304.745C261.71 302.851 260.986 301 260.922 299.051C260.936 297.749 261.089 296.452 261.38 295.185C263.567 283.637 264.508 271.499 261.199 260.243C260.311 257.228 259.135 254.312 258.23 251.308C257.818 252.435 257.317 253.525 256.73 254.566C256.605 254.081 256.377 253.631 256.064 253.249C255.75 252.867 255.358 252.562 254.916 252.357C254.941 252.893 254.928 253.43 254.879 253.964C254.72 255.769 254.473 257.564 254.139 259.343C254.051 260.053 253.828 260.738 253.485 261.359C253.045 261.994 252.455 262.5 251.772 262.828C252.08 263.557 252.389 264.28 252.692 265.037L250.474 265.689C251.931 269.002 250.718 272.785 249.942 276.303C247.159 288.558 249.665 301.647 248.346 314.039L262.854 313.868Z" fill="#F35A5E"/>
<path d="M254.799 138.541C255.368 137.354 256.315 136.415 257.103 135.365C256.988 135.464 256.869 135.556 256.746 135.642C256.164 135.898 255.625 136.251 255.15 136.685C254.859 137.104 254.663 137.585 254.576 138.094L253.219 143.567C253.485 143.219 253.751 142.876 254.022 142.534C254.005 141.161 254.27 139.8 254.799 138.541Z" fill="#F35A5E"/>
<path d="M308.272 138.558C308.264 137.837 308.123 137.125 307.857 136.459C307.582 135.918 307.234 135.42 306.825 134.979L305.676 133.62C305.101 147.83 303.888 162.073 306.325 175.996C306.756 174.488 307.192 172.986 307.623 171.484C308.279 169.004 309.135 166.585 310.182 164.254C309.932 162.045 309.623 159.798 309.315 157.6C309.193 156.632 309.006 155.674 308.756 154.733C307.811 151.12 307.59 147.344 308.107 143.638C308.322 141.955 308.377 140.253 308.272 138.558Z" fill="#F35A5E"/>
<path d="M285.071 247.116L283.251 313.636L288.039 313.581C287.196 305.486 286.813 297.346 286.89 289.204C286.89 286.835 286.97 284.438 286.497 282.124C286.161 280.506 285.576 278.954 285.257 277.33C284.944 275.388 284.824 273.417 284.9 271.449L285.071 247.116Z" fill="#F35A5E"/>
<path d="M243.925 247.155C243.999 246.967 244.073 246.79 244.143 246.603C244.393 245.929 244.616 245.25 244.824 244.565L244.781 244.642C244.361 245.36 243.903 246.05 243.43 246.73C243.6 246.862 243.765 247.006 243.925 247.155Z" fill="#F35A5E"/>
<path d="M99.1892 172.798C99.1813 172.077 99.0404 171.365 98.7743 170.699C98.4988 170.158 98.1513 169.66 97.7422 169.219L96.593 167.861C96.0078 182.286 94.7629 196.75 97.3485 210.877C97.7688 213.163 98.3274 215.516 99.7425 217.321C100.121 217.704 100.401 218.178 100.557 218.702C102.685 210.087 101.488 200.754 100.232 191.84C100.119 190.873 99.9409 189.915 99.7 188.974C98.7463 185.362 98.5163 181.586 99.0243 177.879C99.2393 176.195 99.2946 174.493 99.1892 172.798Z" fill="#F35A5E"/>
<path d="M99.2158 222.855C99.2903 222.667 99.3648 222.491 99.434 222.303C99.684 221.629 99.9075 220.95 100.115 220.265L100.072 220.342C99.6521 221.06 99.1946 221.751 98.7211 222.43C98.8913 222.562 99.0562 222.706 99.2158 222.855Z" fill="#F35A5E"/>
<path d="M75.988 281.356C75.6759 292.899 75.3602 304.441 75.041 315.983L77.3234 315.956C76.9829 314.487 76.4775 313.056 76.1848 311.571C75.8717 309.628 75.7523 307.657 75.8284 305.689L75.988 281.356Z" fill="#F35A5E"/>
<path d="M110.17 314.713C109.487 314.385 108.897 313.879 108.457 313.244C108.113 312.623 107.891 311.938 107.803 311.228C107.468 309.45 107.222 307.654 107.063 305.849C107.013 305.315 107.001 304.778 107.026 304.242C106.584 304.447 106.192 304.752 105.878 305.134C105.564 305.516 105.337 305.966 105.212 306.451C103.656 303.594 102.641 300.454 102.222 297.201C102.062 297.753 101.897 298.361 101.69 298.941C100.583 302.359 98.9764 305.667 98.6572 309.257C98.5038 311.421 98.6834 313.596 99.1892 315.702L109.755 315.586L110.17 314.713Z" fill="#F35A5E"/>
<path d="M117.118 296.477C117.326 297.162 117.549 297.842 117.799 298.515C117.868 298.703 117.943 298.88 118.017 299.068C118.177 298.918 118.342 298.775 118.512 298.642C118.039 297.963 117.581 297.273 117.161 296.555L117.118 296.477Z" fill="#F35A5E"/>
<path d="M193.34 307.965C192.594 304.674 192.084 301.331 191.813 297.963C190.969 289.863 190.125 281.763 189.281 273.663C189.254 273.448 189.233 273.238 189.212 273.023C189.18 273.128 189.153 273.233 189.121 273.338C188.478 275.298 187.201 276.955 185.929 278.568C184.658 280.18 183.067 281.842 181.2 281.373C180.434 281.111 179.739 280.665 179.173 280.07L174.917 276.254C174.076 275.517 173.241 274.761 172.411 273.984C172.374 279.313 172.256 284.642 171.99 289.961C171.905 291.618 171.772 293.401 171.006 294.876C172.577 299.94 173.447 305.209 173.592 310.527C173.629 311.968 173.592 313.404 173.549 314.846L186.02 314.708H186.094L195.474 314.603C194.692 312.427 193.904 310.234 193.34 307.965Z" fill="#F35A5E"/>
<path d="M172.272 252.987C172.538 253.329 172.804 253.671 173.076 254.019L171.719 248.569C171.632 248.06 171.435 247.579 171.145 247.16C170.67 246.726 170.131 246.373 169.549 246.116C169.425 246.031 169.306 245.939 169.192 245.84C169.979 246.89 170.926 247.828 171.496 249.016C172.022 250.268 172.287 251.621 172.272 252.987Z" fill="#F35A5E"/>
<path d="M187.696 228.726C188.031 232.558 188.228 236.408 188.414 240.257C188.6 244.106 188.792 247.856 188.978 251.656C189.412 248.718 190.07 245.82 190.946 242.991C190.18 241.516 190.047 239.76 189.962 238.076C189.696 232.757 189.579 227.428 189.542 222.099C188.728 222.855 187.903 223.595 187.073 224.308C187.383 225.763 187.591 227.239 187.696 228.726Z" fill="#F35A5E"/>
<path d="M117.017 268.075C115.762 276.988 114.549 286.299 116.693 294.937C116.848 294.413 117.128 293.938 117.507 293.556C118.922 291.75 119.48 289.397 119.901 287.111C122.486 272.984 121.241 258.52 120.656 244.095L119.523 245.454C119.104 245.886 118.746 246.376 118.459 246.912C118.19 247.569 118.044 248.274 118.028 248.988C117.923 250.68 117.979 252.378 118.193 254.058C118.719 257.773 118.504 261.561 117.56 265.186C117.314 266.135 117.133 267.1 117.017 268.075Z" fill="#F35A5E"/>
<path d="M309.4 313.344L313.571 313.294C311.347 300.001 314.555 285.725 311.533 272.426C311.06 270.355 310.469 268.185 310.32 266.081C309.256 269.019 308.038 271.913 307.761 275.016C307.277 280.395 309.714 285.543 310.618 290.855C311.863 298.184 310.177 305.656 309.426 313.056C309.416 313.183 309.411 313.25 309.4 313.344Z" fill="#F35A5E"/>
<path d="M452.821 306.678C447.99 291.733 452.821 275.072 449.326 259.735C448.522 256.217 447.309 252.407 448.794 249.121L446.575 248.419C446.878 247.69 447.187 246.967 447.495 246.21C447.064 245.982 446.663 245.697 446.304 245.36L444.676 260.939C444.405 264.308 443.895 267.651 443.149 270.941C442.229 274.619 440.734 278.12 439.664 281.737C436.807 291.441 437.121 301.796 438.659 311.869L454.619 311.687C454.034 310.03 453.369 308.368 452.821 306.678Z" fill="#F35A5E"/>
<path d="M445.357 158.958L445.399 158.804L445.591 158.157C445.134 157.766 444.629 157.437 444.091 157.18C443.967 157.094 443.848 157.002 443.734 156.904C444.261 157.6 444.851 158.251 445.357 158.958Z" fill="#F35A5E"/>
<path d="M391.639 207.563C391.847 208.248 392.07 208.927 392.32 209.601C392.389 209.789 392.464 209.965 392.538 210.153C392.698 210.004 392.863 209.86 393.033 209.728C392.559 209.049 392.102 208.358 391.682 207.64L391.639 207.563Z" fill="#F35A5E"/>
<path d="M457.2 218.63C458.833 209.728 458.939 200.693 458.647 191.614C458.26 191.983 457.795 192.253 457.29 192.405C456.785 192.556 456.254 192.584 455.737 192.486L455.646 192.459C455.517 193.903 455.258 195.332 454.875 196.727C454.625 197.668 454.438 198.626 454.316 199.594C453.06 208.507 451.847 217.818 453.992 226.456C454.147 225.932 454.427 225.457 454.805 225.075C456.221 223.269 456.779 220.917 457.2 218.63Z" fill="#F35A5E"/>
<path d="M220.643 314.343C220.643 311.449 220.661 308.554 220.697 305.656C220.615 308.557 220.537 311.455 220.463 314.349L220.643 314.343Z" fill="#F35A5E"/>
<path d="M552.181 74.7655C551.826 72.6816 551.406 70.6364 550.92 68.6299C545.759 46.9701 533.677 29.6842 511.55 20.3289C509.653 19.5299 507.681 18.7936 505.634 18.1198C500.978 16.5843 496.22 15.403 491.398 14.5853C444.984 6.52778 405.956 10.3605 370.773 17.6283C368.789 18.0314 366.82 18.4567 364.857 18.8874C315.539 29.7063 273.542 46.4675 228.73 45.004C226.767 44.9433 224.793 44.8439 222.819 44.7113C203.284 43.3638 183.131 38.3989 161.547 27.8396C136.037 15.364 110.096 19.5557 86.6922 34.4116C73.4822 42.7839 61.0809 54.5582 50.0203 68.652L49.983 68.6961C48.4224 70.6843 46.8902 72.7093 45.3864 74.771C9.39543 124.409 -10.5871 198.633 5.80431 256.151C6.39308 258.224 7.0315 260.271 7.71957 262.292C12.4545 276.314 19.4984 289.204 29.1599 300.327C34.7659 306.761 41.956 311.487 49.9564 313.995C51.329 314.432 52.7282 314.796 54.1434 315.1C54.5424 308.119 54.0796 301.139 52.1164 294.467C51.0524 290.839 49.5521 287.349 48.6317 283.67C47.8855 280.38 47.3751 277.037 47.1048 273.669C46.2607 265.569 45.4165 257.469 44.5724 249.369C44.0404 244.366 43.5084 239.346 43.652 234.32C43.7966 229.002 44.6672 223.733 46.2376 218.669C45.4715 217.194 45.3385 215.438 45.2534 213.754C44.9874 208.436 44.8703 203.106 44.8331 197.777C44.0031 198.543 43.1679 199.299 42.3273 200.047L38.0446 203.863C37.4778 204.458 36.7831 204.904 36.0176 205.166C34.1502 205.636 32.4956 203.912 31.2879 202.361C30.0803 200.809 28.7555 199.091 28.0958 197.131C27.5912 195.309 27.395 193.411 27.5159 191.52C27.5585 189.095 27.6755 186.676 27.7979 184.257L28.8194 164.072C29.0109 160.206 29.2024 156.374 29.5376 152.541C29.777 149.78 30.1175 146.969 31.4848 144.616C34.0544 140.198 39.5661 138.651 44.5724 139.027C44.4469 138.772 44.3775 138.491 44.3693 138.204C44.361 137.918 44.414 137.633 44.5245 137.37C44.8366 136.876 45.2854 136.491 45.812 136.266L53.1964 132.162C53.7207 131.817 54.3138 131.6 54.9308 131.527C55.2576 131.516 55.5824 131.586 55.8778 131.732L57.3089 130.693C57.6295 130.434 57.989 130.23 58.3729 130.091C58.8533 129.966 59.3586 129.991 59.8253 130.163C60.1861 129.418 60.3945 128.604 60.4372 127.772C60.4066 126.735 60.1938 125.713 59.8094 124.756C58.0966 123.41 56.7042 121.674 55.7395 119.682C54.7747 117.689 54.2632 115.494 54.2445 113.264C52.6484 112.336 50.5948 111.811 49.9458 109.856C49.5042 108.531 50.0309 107.062 49.85 105.67C49.4967 105.309 49.2274 104.869 49.0626 104.383C48.6051 103.003 49.201 101.467 48.9562 100.032C48.8179 99.2474 48.4242 98.4687 48.5785 97.6845C48.7348 97.129 49.024 96.6237 49.4191 96.2155L54.6488 89.7816C55.8033 88.3678 56.995 86.9153 58.5804 86.0704C62.379 84.0491 66.9278 86.0704 71.1945 86.0704C72.6257 86.0704 74.1047 85.8439 75.4507 86.3189C76.4182 86.7319 77.3079 87.3189 78.0788 88.053L83.931 93.0234C85.8995 94.6802 88.0222 96.6573 88.2138 99.286C88.2591 100.082 88.1469 100.879 87.8839 101.628C88.5631 102.532 88.9818 103.618 89.0916 104.759C89.2246 106.581 88.3734 108.321 87.3945 109.84C85.9245 112.106 84.1306 114.127 82.0743 115.832C81.5929 118.451 80.428 120.883 78.7066 122.862C79.0914 124.79 79.5961 126.69 80.2175 128.551C80.2322 128.581 80.2447 128.612 80.2548 128.644C80.7521 128.674 81.2314 128.848 81.638 129.147C82.0583 129.471 82.4436 129.841 82.7872 130.252C82.9711 129.947 83.243 129.712 83.5639 129.578C84.3513 129.246 85.2345 129.622 86.0059 129.986C88.3521 131.091 90.7409 132.24 92.6508 134.034C93.3478 134.691 93.934 135.464 94.3852 136.321C97.0684 135.91 99.803 136.549 102.057 138.116C106.079 140.976 107.733 146.201 109.133 151.05L112.266 161.924C113.639 166.69 115.022 171.5 115.341 176.459C115.634 180.977 115.038 185.494 114.442 189.973C113.618 196.17 115.559 202.974 115.586 209.231C115.586 210.838 115.586 212.462 115.549 214.091C117.716 212.695 120.285 212.13 122.811 212.495C123.262 211.637 123.848 210.865 124.545 210.208C126.455 208.413 128.844 207.276 131.19 206.16C131.962 205.796 132.845 205.42 133.632 205.751C133.953 205.885 134.225 206.121 134.409 206.425C134.752 206.015 135.138 205.645 135.558 205.321C135.965 205.022 136.444 204.848 136.941 204.818C136.951 204.786 136.964 204.755 136.978 204.724C137.6 202.864 138.105 200.964 138.489 199.036C136.768 197.057 135.603 194.625 135.122 192.006C133.065 190.3 131.271 188.28 129.802 186.014C128.823 184.495 127.971 182.755 128.104 180.933C128.214 179.792 128.633 178.706 129.312 177.801C129.049 177.052 128.937 176.256 128.982 175.46C129.174 172.831 131.297 170.865 133.265 169.197L139.117 164.227C139.888 163.493 140.778 162.906 141.745 162.493C143.097 162.018 144.576 162.244 146.001 162.244C150.258 162.244 154.817 160.234 158.616 162.244C160.212 163.089 161.393 164.542 162.547 165.955L167.777 172.389C168.172 172.797 168.461 173.303 168.618 173.858C168.766 174.642 168.378 175.421 168.24 176.205C167.995 177.641 168.591 179.177 168.133 180.557C167.969 181.043 167.699 181.483 167.346 181.844C167.165 183.236 167.692 184.705 167.25 186.03C166.601 187.985 164.558 188.51 162.952 189.438C162.926 191.659 162.412 193.844 161.448 195.827C160.485 197.811 159.097 199.539 157.392 200.881C157.007 201.838 156.795 202.859 156.764 203.896C156.807 204.728 157.015 205.543 157.376 206.287C157.843 206.115 158.348 206.09 158.828 206.215C159.212 206.354 159.572 206.558 159.892 206.817L161.324 207.856C161.619 207.71 161.944 207.64 162.271 207.651C162.888 207.724 163.481 207.941 164.005 208.286L171.389 212.39C171.712 212.563 172.015 212.772 172.294 213.014C172.352 211.528 172.416 210.037 172.491 208.551L173.528 188.372C173.72 184.506 173.911 180.673 174.246 176.84C174.486 174.079 174.826 171.268 176.193 168.915C178.763 164.497 184.275 162.951 189.281 163.327C189.156 163.071 189.086 162.79 189.078 162.504C189.07 162.217 189.123 161.932 189.233 161.67C189.545 161.175 189.994 160.79 190.521 160.565L197.905 156.462C198.429 156.117 199.022 155.899 199.639 155.827C199.966 155.815 200.291 155.885 200.586 156.031L202.018 154.993C202.338 154.733 202.698 154.53 203.082 154.391C203.562 154.266 204.067 154.291 204.534 154.463C204.895 153.718 205.103 152.904 205.146 152.071C205.115 151.035 204.902 150.013 204.518 149.056C202.805 147.71 201.413 145.974 200.448 143.982C199.483 141.989 198.972 139.793 198.953 137.563C197.357 136.636 195.303 136.111 194.654 134.156C194.213 132.831 194.74 131.362 194.559 129.97C194.205 129.609 193.936 129.169 193.771 128.683C193.314 127.302 193.91 125.767 193.665 124.331C193.488 123.71 193.353 123.077 193.261 122.437C192.68 123.57 192.233 124.771 191.93 126.016C191.18 129.147 191.313 132.427 190.866 135.62C190.707 136.724 190.404 137.906 189.505 138.486C188.808 138.939 187.908 138.9 187.158 139.226C185.903 139.778 185.206 141.214 185.03 142.611C184.855 144.008 185.067 145.428 185.067 146.842C185.067 150.536 183.36 154.358 180.253 156.158C176.161 158.533 171.081 156.959 166.66 155.346C168.63 154.609 170.38 153.348 171.735 151.69L166.872 150.669C169.697 149.297 172.309 147.497 174.624 145.328C175.488 144.614 176.168 143.688 176.603 142.633C177.135 141.081 176.64 139.32 177.135 137.768C177.96 135.111 181.093 134.106 182.689 131.864C184.089 129.909 184.136 127.286 184.131 124.856L184.105 115.589C184.105 112.921 184.269 109.845 186.318 108.227C188.6 106.421 191.835 107.449 194.708 107.432C197.735 107.432 200.618 106.123 203.63 105.775C206.471 105.438 211.211 107.504 211.131 109.845C212.713 110.136 214.313 110.308 215.919 110.359C217.35 110.359 218.829 110.133 220.175 110.607C221.143 111.02 222.033 111.608 222.803 112.342L228.656 117.312C230.624 118.969 232.747 120.946 232.912 123.575C232.957 124.37 232.845 125.167 232.582 125.916C233.261 126.821 233.68 127.906 233.79 129.048C233.923 130.87 233.071 132.61 232.092 134.128C230.623 136.395 228.829 138.415 226.772 140.12C226.291 142.74 225.126 145.172 223.405 147.151C223.789 149.079 224.294 150.979 224.916 152.839C224.93 152.869 224.943 152.901 224.953 152.933C225.45 152.963 225.929 153.137 226.336 153.436C226.756 153.76 227.142 154.13 227.485 154.54C227.669 154.236 227.941 154 228.262 153.866C229.049 153.535 229.932 153.91 230.704 154.275C232.771 155.164 234.735 156.294 236.556 157.644C236.556 157.533 236.556 157.417 236.556 157.307C236.599 154.882 236.716 152.464 236.838 150.045L237.902 129.832C238.094 125.966 238.285 122.133 238.62 118.3C238.86 115.539 239.2 112.728 240.568 110.376C243.137 105.957 248.649 104.411 253.655 104.787C253.53 104.531 253.46 104.25 253.452 103.964C253.444 103.677 253.497 103.392 253.607 103.13C253.919 102.635 254.368 102.25 254.895 102.025L262.279 97.922C262.803 97.5765 263.396 97.3594 264.014 97.2869C264.34 97.2753 264.665 97.3454 264.96 97.4912L266.392 96.4529C266.712 96.1933 267.072 95.99 267.456 95.851C267.936 95.7257 268.441 95.7507 268.908 95.9228C269.269 95.1781 269.477 94.3639 269.52 93.5314C269.489 92.495 269.277 91.4731 268.892 90.5161C267.179 89.1701 265.787 87.434 264.822 85.4415C263.857 83.4491 263.346 81.2534 263.327 79.0235C261.731 78.0957 259.678 77.571 259.028 75.616C258.587 74.2906 259.114 72.8216 258.933 71.4298C258.579 71.0686 258.31 70.6286 258.145 70.1431C257.688 68.7624 258.284 67.2271 258.039 65.7912C257.901 65.007 257.507 64.2283 257.661 63.4441C257.818 62.8887 258.107 62.3833 258.502 61.9751L263.732 55.5412C264.886 54.1274 266.078 52.675 267.663 51.83C271.462 49.8087 276.01 51.83 280.277 51.83C281.708 51.83 283.187 51.6036 284.533 52.0785C285.501 52.4915 286.391 53.0786 287.162 53.8126L293.014 58.783C294.982 60.4398 297.105 62.4169 297.27 65.0457C297.315 65.8414 297.203 66.6383 296.94 67.3873C297.619 68.2918 298.038 69.3774 298.148 70.5186C298.281 72.3411 297.43 74.0807 296.451 75.5994C294.981 77.8657 293.187 79.8862 291.13 81.5915C290.649 84.2108 289.484 86.6426 287.763 88.6218C288.148 90.5498 288.652 92.4499 289.274 94.3101C289.288 94.3404 289.301 94.3718 289.311 94.404C289.808 94.4338 290.288 94.6079 290.694 94.9066C291.114 95.2307 291.5 95.6011 291.843 96.0111C292.027 95.7071 292.299 95.4712 292.62 95.3374C293.407 95.006 294.291 95.3815 295.062 95.746C297.408 96.8506 299.797 97.9993 301.707 99.7941C302.404 100.45 302.99 101.223 303.441 102.081C306.133 101.662 308.879 102.302 311.14 103.875C315.162 106.736 316.816 111.961 318.215 116.809L321.349 127.683C322.722 132.45 324.105 137.26 324.424 142.219C324.695 146.438 324.19 150.663 323.637 154.855C323.77 154.711 323.903 154.568 324.052 154.43C325.962 152.635 328.35 151.497 330.697 150.382C331.468 150.017 332.351 149.641 333.138 149.973C333.459 150.107 333.731 150.343 333.915 150.647C334.259 150.237 334.644 149.866 335.064 149.542C335.471 149.243 335.95 149.069 336.448 149.04C336.458 149.007 336.47 148.976 336.485 148.946C337.106 147.085 337.611 145.185 337.996 143.257C336.274 141.278 335.109 138.846 334.628 136.227C332.572 134.522 330.778 132.501 329.308 130.235C328.329 128.716 327.478 126.977 327.611 125.154C327.721 124.013 328.139 122.927 328.819 122.023C328.556 121.274 328.443 120.477 328.489 119.681C328.68 117.052 330.803 115.086 332.745 113.418L338.597 108.448C339.368 107.714 340.258 107.127 341.225 106.714C342.576 106.239 344.055 106.465 345.481 106.465C347.087 106.414 348.687 106.242 350.269 105.952C350.19 103.61 354.93 101.534 357.771 101.882C360.777 102.241 363.666 103.538 366.693 103.538C369.566 103.538 372.8 102.528 375.083 104.334C377.131 105.952 377.301 109.028 377.296 111.695L377.317 120.996C377.317 123.426 377.36 126.049 378.759 128.004C380.281 130.136 383.191 131.157 384.175 133.526C385.377 130.318 387.005 127.341 389.697 125.43C391.936 123.86 394.656 123.207 397.332 123.597C397.783 122.739 398.369 121.967 399.066 121.31C400.976 119.515 403.365 118.378 405.711 117.262C406.482 116.898 407.366 116.522 408.153 116.854C408.474 116.987 408.746 117.223 408.93 117.527C409.273 117.117 409.659 116.747 410.079 116.423C410.485 116.124 410.965 115.95 411.462 115.92C411.472 115.888 411.485 115.857 411.499 115.826C412.121 113.966 412.625 112.066 413.01 110.138C411.289 108.159 410.124 105.727 409.643 103.108C407.586 101.402 405.792 99.3819 404.322 97.1157C403.343 95.5969 402.492 93.8573 402.625 92.0348C402.735 90.8936 403.154 89.808 403.833 88.9035C403.57 88.1546 403.458 87.3576 403.503 86.5619C403.695 83.9331 405.817 81.967 407.759 80.2992L413.611 75.3288C414.382 74.5948 415.272 74.0077 416.24 73.5947C417.591 73.1198 419.07 73.3462 420.496 73.3462C422.102 73.2948 423.702 73.1232 425.284 72.8326C425.204 70.491 429.944 68.4145 432.785 68.7624C435.791 69.1214 438.68 70.4192 441.707 70.4192C444.58 70.4192 447.815 69.4086 450.097 71.2145C452.145 72.8326 452.316 75.9087 452.31 78.5761L452.332 87.8597C452.332 90.2897 452.374 92.9129 453.773 94.8679C455.369 97.1101 458.503 98.1152 459.328 100.772C459.806 102.329 459.328 104.085 459.86 105.637C460.294 106.692 460.974 107.618 461.839 108.332C463.03 109.448 464.301 110.467 465.643 111.381C465.861 110.646 466.202 109.956 466.648 109.343C466.385 108.594 466.273 107.797 466.318 107.001C466.51 104.372 468.633 102.406 470.574 100.739L476.427 95.7681C477.198 95.0341 478.087 94.447 479.055 94.034C480.406 93.5591 481.885 93.7855 483.311 93.7855C487.567 93.7855 492.126 91.7753 495.925 93.7855C497.521 94.6305 498.702 96.0829 499.857 97.4967L505.086 103.931C505.482 104.339 505.771 104.844 505.927 105.4C506.076 106.184 505.688 106.963 505.549 107.747C505.305 109.183 505.9 110.718 505.443 112.099C505.278 112.584 505.009 113.024 504.656 113.385C504.475 114.777 505.001 116.246 504.56 117.572C503.911 119.527 501.868 120.051 500.261 120.979C500.236 123.2 499.721 125.386 498.758 127.369C497.794 129.352 496.407 131.08 494.701 132.422C494.317 133.379 494.104 134.401 494.074 135.437C494.116 136.27 494.325 137.084 494.685 137.829C495.152 137.656 495.658 137.631 496.138 137.757C496.522 137.896 496.881 138.099 497.202 138.359L498.633 139.397C498.928 139.251 499.253 139.181 499.58 139.193C500.197 139.265 500.79 139.482 501.314 139.828L508.699 143.931C509.225 144.156 509.674 144.541 509.986 145.036C510.097 145.298 510.15 145.583 510.142 145.87C510.133 146.156 510.064 146.437 509.938 146.692C514.945 146.317 520.456 147.858 523.026 152.281C524.393 154.634 524.734 157.467 524.973 160.206C525.308 164.039 525.505 167.888 525.691 171.738L526.697 191.973C526.819 194.391 526.936 196.81 526.979 199.235C527.1 201.126 526.904 203.024 526.399 204.846C525.755 206.806 524.478 208.463 523.207 210.076C521.935 211.688 520.345 213.351 518.477 212.881C517.712 212.619 517.017 212.173 516.45 211.578L512.168 207.762C511.327 207.025 510.492 206.269 509.662 205.492C509.625 210.821 509.508 216.151 509.241 221.469C509.156 223.126 509.023 224.91 508.257 226.384C509.828 231.448 510.698 236.718 510.843 242.035C510.883 246.371 510.648 250.704 510.141 255.008C510.587 254.025 511.036 253.031 511.487 252.026C534.597 200.765 561.257 126.861 552.181 74.7655Z" fill="#F35A5E"/>
<path d="M45.5141 172.356L44.1574 177.829C44.4234 177.481 44.6894 177.139 44.9608 176.796C44.9369 175.425 45.1944 174.064 45.7162 172.803C46.2855 171.616 47.2325 170.677 48.0199 169.628C47.9056 169.726 47.7866 169.818 47.6634 169.904C47.0808 170.161 46.5419 170.513 46.0673 170.948C45.7842 171.369 45.5952 171.85 45.5141 172.356Z" fill="#F35A5E"/>
<path d="M371.779 197.208C372.045 197.55 372.311 197.893 372.582 198.241L371.226 192.79C371.138 192.282 370.942 191.8 370.651 191.382C370.176 190.947 369.638 190.594 369.055 190.338C368.932 190.252 368.813 190.16 368.698 190.062C369.486 191.111 370.433 192.05 371.002 193.237C371.528 194.489 371.793 195.842 371.779 197.208Z" fill="#F35A5E"/>
<path d="M455.316 230.587C455.476 230.438 455.641 230.294 455.811 230.162C455.337 229.482 454.88 228.792 454.46 228.074L454.417 227.997C454.624 228.682 454.848 229.361 455.098 230.035C455.167 230.222 455.226 230.399 455.316 230.587Z" fill="#F35A5E"/>
<path d="M316.625 240.699C316.832 241.384 317.056 242.063 317.306 242.737C317.375 242.924 317.449 243.101 317.524 243.289C317.683 243.14 317.848 242.996 318.019 242.864C317.545 242.184 317.088 241.494 316.667 240.776L316.625 240.699Z" fill="#F35A5E"/>
<path d="M362.495 133.698C362.47 135.919 361.956 138.104 360.992 140.087C360.028 142.071 358.641 143.799 356.936 145.141C356.551 146.098 356.338 147.119 356.308 148.156C356.35 148.988 356.559 149.803 356.92 150.547C357.386 150.375 357.892 150.35 358.372 150.475C358.756 150.614 359.115 150.818 359.436 151.077L360.867 152.116C361.163 151.97 361.487 151.9 361.814 151.911C362.431 151.984 363.024 152.201 363.549 152.546L370.933 156.65C371.46 156.875 371.908 157.26 372.22 157.754C372.331 158.017 372.384 158.302 372.376 158.588C372.367 158.875 372.298 159.156 372.173 159.411C373.756 159.29 375.348 159.372 376.913 159.654C377.48 156.568 378.217 153.518 379.121 150.52C377.353 148.424 376.387 145.728 376.407 142.943C376.407 141.529 376.626 140.109 376.445 138.712C376.264 137.315 375.567 135.868 374.317 135.327C373.556 135.001 372.667 135.04 371.97 134.587C371.071 134.034 370.768 132.808 370.608 131.721C370.146 128.528 370.279 125.248 369.544 122.117C369.242 120.872 368.795 119.671 368.214 118.538C368.122 119.178 367.987 119.811 367.81 120.432C367.565 121.868 368.161 123.403 367.704 124.784C367.539 125.27 367.27 125.71 366.916 126.071C366.735 127.463 367.262 128.932 366.82 130.257C366.145 132.234 364.102 132.759 362.495 133.698Z" fill="#F35A5E"/>
<path d="M391.538 179.16C390.282 188.074 389.069 197.385 391.213 206.022C391.369 205.498 391.649 205.024 392.027 204.641C393.443 202.836 394.001 200.483 394.422 198.197C397.007 184.07 395.762 169.606 395.177 155.181L394.044 156.539C393.625 156.971 393.267 157.462 392.98 157.997C392.711 158.655 392.565 159.359 392.549 160.074C392.444 161.765 392.499 163.463 392.714 165.144C393.24 168.859 393.025 172.647 392.081 176.272C391.835 177.22 391.654 178.185 391.538 179.16Z" fill="#F35A5E"/>
<path d="M383.441 224.898C383.067 225.219 382.629 225.45 382.159 225.575C381.689 225.7 381.199 225.716 380.722 225.622C379.957 225.36 379.262 224.913 378.695 224.319L374.439 220.502C373.598 219.766 372.763 219.01 371.933 218.233C371.896 223.562 371.779 228.891 371.513 234.21C371.428 235.866 371.295 237.65 370.529 239.125C372.099 244.189 372.97 249.458 373.114 254.776C373.242 259.802 372.721 264.822 372.194 269.825C371.353 277.925 370.509 286.025 369.661 294.125C369.391 297.493 368.881 300.836 368.135 304.126C367.4 307.059 366.299 309.875 365.341 312.742L370.773 312.681L377.69 312.604H378.541L390.245 312.471C390.248 312.458 390.248 312.445 390.245 312.432C391.15 307.12 393.586 301.973 393.102 296.593C392.783 293.004 391.176 289.696 390.07 286.277C385.239 271.333 390.07 254.671 386.574 239.335C385.771 235.817 384.558 232.006 386.042 228.72L383.824 228.019C384.127 227.29 384.436 226.566 384.744 225.81C384.27 225.573 383.831 225.266 383.441 224.898Z" fill="#F35A5E"/>
<path d="M340.752 301.79C340.773 305.524 340.796 309.257 340.821 312.99H341.055L340.752 301.79Z" fill="#F35A5E"/>
<path d="M478.544 289.088C478.58 294.729 478.615 300.364 478.65 305.993L479.002 305.778C478.846 300.214 478.693 294.651 478.544 289.088Z" fill="#F35A5E"/>
<path d="M465.648 114.49L464.749 114.678C465.251 115.295 465.81 115.859 466.419 116.362C466.097 115.769 465.838 115.141 465.648 114.49Z" fill="#F35A5E"/>
<path d="M415.766 268.654L415.926 292.987C416.002 294.955 415.882 296.926 415.569 298.869C415.25 300.492 414.665 302.044 414.33 303.662C413.856 305.976 413.915 308.373 413.936 310.743C413.936 311.217 413.936 311.692 413.936 312.167L416.952 312.134C416.559 297.643 416.163 283.15 415.766 268.654Z" fill="#F35A5E"/>
<path d="M509.571 184.506C509.837 184.848 510.103 185.191 510.375 185.539L509.018 180.066C508.93 179.558 508.734 179.076 508.443 178.657C507.969 178.223 507.43 177.87 506.847 177.614C506.724 177.528 506.605 177.436 506.491 177.338C507.278 178.387 508.225 179.326 508.794 180.513C509.324 181.772 509.588 183.133 509.571 184.506Z" fill="#F35A5E"/>
<path d="M437.51 100.562C437.484 102.783 436.97 104.968 436.007 106.952C435.043 108.935 433.655 110.663 431.95 112.005C431.566 112.962 431.353 113.984 431.322 115.02C431.365 115.852 431.573 116.667 431.934 117.411C432.401 117.239 432.906 117.214 433.386 117.34C433.77 117.479 434.13 117.682 434.451 117.941L435.882 118.98C436.177 118.834 436.502 118.764 436.829 118.775C437.446 118.848 438.039 119.065 438.563 119.411L445.947 123.514C446.474 123.739 446.923 124.124 447.235 124.618C447.345 124.881 447.398 125.166 447.39 125.452C447.382 125.739 447.312 126.02 447.187 126.275C452.193 125.9 457.705 127.44 460.275 131.864C461.642 134.217 461.982 137.05 462.222 139.789C462.264 140.292 462.302 140.794 462.339 141.302C464.164 139.75 466.345 138.701 468.494 137.679C469.266 137.315 470.149 136.939 470.936 137.271C471.257 137.405 471.529 137.64 471.713 137.944C472.057 137.534 472.442 137.164 472.862 136.84C473.269 136.541 473.748 136.367 474.245 136.337C474.256 136.305 474.268 136.274 474.283 136.244C474.904 134.383 475.409 132.483 475.794 130.555C474.072 128.576 472.907 126.144 472.426 123.525C470.813 122.176 469.359 120.634 468.095 118.93C464.121 120.272 459.801 121.194 456.237 119.129C453.13 117.328 451.448 113.507 451.448 109.812C451.448 108.398 451.667 106.979 451.486 105.582C451.305 104.185 450.608 102.738 449.358 102.196C448.597 101.871 447.708 101.909 447.011 101.456C446.112 100.904 445.809 99.6781 445.649 98.5901C445.187 95.398 445.32 92.1176 444.585 88.9863C444.283 87.742 443.836 86.5404 443.255 85.4076C443.163 86.048 443.028 86.681 442.851 87.3019C442.606 88.7377 443.202 90.273 442.745 91.6537C442.58 92.1392 442.311 92.5793 441.957 92.9405C441.776 94.3322 442.303 95.8012 441.862 97.1266C441.159 99.0982 439.116 99.6229 437.51 100.562Z" fill="#F35A5E"/>
<path d="M351.482 302.762V316.017H77.4936V302.762C77.4936 301.737 77.886 300.754 78.5844 300.029C79.2828 299.304 80.23 298.896 81.2177 298.896H347.758C348.746 298.896 349.693 299.304 350.392 300.029C351.09 300.754 351.482 301.737 351.482 302.762Z" fill="#3F3D56"/>
<path d="M247.617 105.77C249.649 107.94 251.602 110.447 251.985 113.446C247.654 114.622 243.222 112.413 239.174 110.442C226.645 104.326 213.415 99.8957 199.804 97.2593C198.74 97.0549 197.602 96.8285 196.798 96.0664C195.282 94.625 195.559 90.9911 196.969 89.4944C198.49 87.8818 201.305 88.1138 203.353 87.9978C211.523 87.5681 219.688 88.9285 227.318 91.9904C234.948 95.0523 241.871 99.7472 247.638 105.77H247.617Z" fill="#192534"/>
<path d="M337.831 315.995H229.007C227.555 312.555 226.411 308.983 225.591 305.325C225.315 304.187 225.059 303.038 224.804 301.895C224.58 300.89 224.368 299.879 224.165 298.874C223.548 295.852 223.016 292.816 222.569 289.767C222.14 286.896 221.786 284.015 221.505 281.124C221.229 278.359 221.014 275.585 220.862 272.802C220.862 272.725 220.862 272.647 220.862 272.564C220.798 271.244 220.862 269.803 221.734 268.87C222.5 268.069 223.671 267.892 224.761 267.815C233.806 267.174 242.594 270.576 251.617 270.074C254.065 269.925 256.033 269.521 258.31 270.007C258.67 270.077 259.026 270.172 259.374 270.289C259.906 270.46 260.401 270.643 260.907 270.841C264.37 272.128 267.599 273.752 271.323 274.475C277.665 275.718 284.172 275.475 290.609 275.955C291.141 275.988 291.673 276.033 292.205 276.088C292.859 276.143 293.514 276.215 294.163 276.298C299.679 277.057 305.095 278.465 310.304 280.495C313.113 281.55 315.88 282.743 318.609 284.007C319.391 284.372 320.168 284.736 320.945 285.112C322.328 285.78 323.732 286.487 325.105 287.255C325.637 287.547 326.169 287.846 326.669 288.16C330.803 290.651 334.538 293.744 336.714 297.941C336.879 298.25 337.027 298.565 337.171 298.885C337.315 299.206 337.421 299.476 337.538 299.78C339.438 304.899 338.773 310.422 337.831 315.995Z" fill="#202F42"/>
<path opacity="0.1" d="M337.831 315.995H229.007C227.555 312.555 226.411 308.983 225.591 305.325C225.315 304.187 225.059 303.038 224.804 301.895C224.58 300.89 224.368 299.879 224.165 298.874C223.548 295.852 223.016 292.816 222.569 289.767C222.14 286.896 221.786 284.015 221.505 281.124C221.229 278.359 221.014 275.585 220.862 272.802C220.862 272.725 220.862 272.647 220.862 272.564C220.798 271.244 220.862 269.803 221.734 268.87C222.5 268.069 223.671 267.892 224.761 267.815C233.806 267.174 242.594 270.576 251.617 270.074C254.065 269.925 256.033 269.521 258.31 270.007C258.67 270.077 259.026 270.172 259.374 270.289C259.906 270.46 260.401 270.643 260.907 270.841C264.37 272.128 267.599 273.752 271.323 274.475C277.665 275.718 284.172 275.475 290.609 275.955C291.141 275.988 291.673 276.033 292.205 276.088C292.859 276.143 293.514 276.215 294.163 276.298C299.679 277.057 305.095 278.465 310.304 280.495C313.113 281.55 315.88 282.743 318.609 284.007C319.391 284.372 320.168 284.736 320.945 285.112C322.328 285.78 323.732 286.487 325.105 287.255C325.637 287.547 326.169 287.846 326.669 288.16C330.803 290.651 334.538 293.744 336.714 297.941C336.879 298.25 337.027 298.565 337.171 298.885C337.315 299.206 337.421 299.476 337.538 299.78C339.438 304.899 338.773 310.422 337.831 315.995Z" fill="black"/>
<path d="M238.509 315.995H115.852C113.096 312.847 111.293 308.743 111.74 304.563C111.9 302.825 112.181 301.101 112.58 299.405C112.623 299.222 112.671 299.046 112.718 298.852C113.505 295.642 115.457 292.871 118.166 291.121C122.997 287.901 128.807 286.642 134.127 284.554C136.984 283.45 139.74 282.052 142.597 280.942C146.706 279.405 150.948 278.28 155.264 277.585C155.743 277.502 156.227 277.419 156.706 277.347C157.184 277.275 157.69 277.187 158.185 277.115C160.845 276.718 163.505 276.392 166.192 276.071C172.044 275.359 177.986 274.652 183.876 275.193C188.581 275.701 193.213 276.779 197.676 278.407C201.039 279.573 204.358 280.926 207.657 282.273C212.802 284.383 217.989 286.542 222.58 289.707C222.979 289.983 223.367 290.259 223.756 290.552C226.811 292.855 229.491 295.652 231.693 298.836C232.971 300.661 234.094 302.597 235.051 304.623C236.742 308.214 237.907 312.047 238.509 315.995Z" fill="#202F42"/>
<path d="M203.534 93.3436C201.523 97.9219 198.113 102.069 193.542 103.754C191.111 104.648 188.488 104.809 186.009 105.543C183.53 106.278 181.029 107.796 180.157 110.309C179.837 111.41 179.682 112.556 179.699 113.706C179.322 124.502 179.013 135.724 183.168 145.632C186.759 154.181 193.34 160.935 199.842 167.375C207.449 174.908 215.504 182.545 225.511 185.914C231.364 187.875 238.253 188.09 243.095 184.186C245.084 182.579 246.563 180.408 248.016 178.265C251.208 173.543 254.453 168.755 256.464 163.354C260.587 152.309 259.199 140.004 257.746 128.269C257.738 127.572 257.484 126.902 257.033 126.386C256.469 125.894 255.645 125.96 254.905 126.005C249.729 126.325 244.079 123.569 242.344 118.499C241.6 116.29 241.621 113.927 241.658 111.607L241.86 98.2312C241.86 96.7898 241.898 95.2987 241.376 93.9567C240.466 91.6261 238.184 90.262 235.997 89.1354C228.947 85.4743 221.598 82.4693 214.036 80.1556C210.727 79.1449 208.21 77.4605 206.737 81.1497C205.178 84.9879 205.247 89.4391 203.534 93.3436Z" fill="#FBBEBE"/>
<path opacity="0.1" d="M203.534 93.3436C201.523 97.9219 198.113 102.069 193.542 103.754C191.111 104.648 188.488 104.809 186.009 105.543C183.53 106.278 181.029 107.796 180.157 110.309C179.837 111.41 179.682 112.556 179.699 113.706C179.322 124.502 179.013 135.724 183.168 145.632C186.759 154.181 193.34 160.935 199.842 167.375C207.449 174.908 215.504 182.545 225.511 185.914C231.364 187.875 238.253 188.09 243.095 184.186C245.084 182.579 246.563 180.408 248.016 178.265C251.208 173.543 254.453 168.755 256.464 163.354C260.587 152.309 259.199 140.004 257.746 128.269C257.738 127.572 257.484 126.902 257.033 126.386C256.469 125.894 255.645 125.96 254.905 126.005C249.729 126.325 244.079 123.569 242.344 118.499C241.6 116.29 241.621 113.927 241.658 111.607L241.86 98.2312C241.86 96.7898 241.898 95.2987 241.376 93.9567C240.466 91.6261 238.184 90.262 235.997 89.1354C228.947 85.4743 221.598 82.4693 214.036 80.1556C210.727 79.1449 208.21 77.4605 206.737 81.1497C205.178 84.9879 205.247 89.4391 203.534 93.3436Z" fill="black"/>
<path d="M238.429 104.207C260.172 104.207 277.798 85.9097 277.798 63.3392C277.798 40.7686 260.172 22.4716 238.429 22.4716C216.686 22.4716 199.06 40.7686 199.06 63.3392C199.06 85.9097 216.686 104.207 238.429 104.207Z" fill="#FBBEBE"/>
<path d="M242.169 127.413L237.769 138.751C236.774 141.313 235.763 143.903 234.231 146.162C230.002 152.386 221.67 155.236 214.722 152.839C208.162 150.591 202.342 144.218 195.569 145.748C192.058 146.543 189.26 149.47 187.696 152.828C186.131 156.186 185.631 159.963 185.296 163.68C183.748 180.871 185.328 198.212 189.951 214.797C190.43 216.51 191.015 218.304 192.287 219.486C193.84 220.9 196.07 221.11 198.139 221.231C207.715 221.824 217.309 222.174 226.921 222.281C232.827 222.352 238.759 222.33 244.59 221.381C250.42 220.431 256.001 218.619 261.752 217.426C267.131 216.322 272.637 215.808 277.894 214.201C278.75 213.942 279.655 213.61 280.181 212.87C280.589 212.164 280.775 211.344 280.713 210.523C280.713 207.342 279.761 204.249 278.729 201.256C276.069 193.618 272.962 186.102 271.483 178.133C269.445 167.17 270.642 155.876 270.419 144.71C270.344 140.711 270.078 136.647 268.754 132.886C267.429 129.125 264.923 125.668 261.396 124.049C255.315 121.238 245.079 119.979 242.169 127.413Z" fill="#F35A5E"/>
<path d="M221.936 181.065C219.127 178.591 219.276 174.179 218.941 170.368C218.329 163.222 215.334 156.561 212.387 150.067L203.582 130.649C199.9 122.553 196.133 113.336 199.171 104.947C200.187 102.119 201.927 99.6009 202.821 96.7291C203.715 93.8573 203.534 90.2676 201.267 88.3733C198.384 85.9655 194.122 87.6057 190.861 89.4337C184.865 92.8098 179.085 96.5822 173.555 100.727C172.054 101.832 170.48 103.141 169.99 104.996C169.687 106.151 169.846 107.415 169.421 108.531C168.591 110.74 166.005 111.403 163.797 111.922C154.698 114.099 146.121 118.18 138.593 123.916C131.065 129.651 124.742 136.92 120.012 145.279C118.443 147.991 117.193 150.889 116.288 153.911C115.224 157.776 114.948 161.791 114.692 165.784C114.011 176.056 113.355 186.323 112.724 196.584C112.442 201.129 112.165 205.785 113.362 210.164C114.134 212.981 115.49 215.615 116.065 218.487C117.23 224.457 114.772 230.554 111.702 235.745C108.633 240.936 104.855 245.807 102.929 251.534C101.798 255.178 101.216 258.983 101.206 262.811C100.922 275.733 104.372 288.448 111.112 299.316C117.65 300.316 122.545 293.567 128.551 290.701C137.356 286.509 148.475 289.867 156.748 284.687C158.77 283.422 160.52 281.699 162.659 280.655C164.601 279.711 166.755 279.374 168.878 279.054C176.72 277.877 184.663 276.789 192.542 277.673C203.715 278.927 215.265 284.079 225.772 279.921C228.363 278.893 230.736 277.342 233.337 276.342C242.914 272.658 253.554 277.06 263.753 276.248C262.157 276.16 261.444 274.282 261.146 272.631C260.476 268.967 259.883 265.286 259.369 261.585C258.917 258.377 258.528 255.08 259.236 251.926C259.885 248.999 261.439 246.404 262.742 243.72C266.854 235.27 268.594 225.793 272.121 217.056C273.797 212.892 275.846 208.916 277.835 204.907C285.868 188.449 292.125 171.121 296.493 153.237C291.849 144.583 287.64 135.564 282.996 126.916C281.65 124.409 280.267 121.857 278.208 119.919C275.26 117.113 271.265 115.893 267.418 114.761C264.115 113.783 260.763 112.8 257.31 112.794C253.857 112.789 244.143 109.045 241.812 111.657C239.408 114.352 244.818 123.056 244.696 126.723C244.574 130.39 244.962 134.101 244.377 137.724C243.525 143.009 240.653 147.72 239.349 152.9C238.834 155.352 238.438 157.829 238.163 160.322C237.294 165.898 235.888 171.369 233.965 176.653C233.614 177.765 233.095 178.813 232.428 179.756C229.906 182.96 225.852 181.745 221.936 181.065Z" fill="#192534"/>
<path d="M300.1 239.257C301.111 240.539 302.494 241.417 303.744 242.438C308.666 246.442 311.56 252.534 315.906 257.2C318.098 259.559 320.647 261.53 322.982 263.734C328.414 268.87 332.622 275.215 336.783 281.5C337.847 283.102 338.911 284.742 339.443 286.603C340.374 289.779 339.618 293.319 337.921 296.135C336.224 298.952 333.665 301.105 330.904 302.795C329.463 303.683 327.96 304.458 326.408 305.115C323.216 306.462 320.173 302.812 321.971 299.763C323.113 297.852 324.157 295.879 325.1 293.854C325.701 292.732 326.047 291.481 326.11 290.198C326.068 287.945 324.355 286.034 322.386 285.09C320.418 284.145 318.199 283.985 316.045 283.709C303.86 282.181 292.266 277.393 282.4 269.814C276.814 265.507 271.43 259.194 272.318 252.031C272.978 246.685 277.053 242.433 281.527 239.694C285.162 237.48 289.159 235.982 293.317 235.276C294.487 235.077 297.424 234.243 298.472 235.082C299.403 235.8 299.228 238.153 300.1 239.257Z" fill="#FBBEBE"/>
<path opacity="0.1" d="M300.1 239.257C301.111 240.539 302.494 241.417 303.744 242.438C308.666 246.442 311.56 252.534 315.906 257.2C318.098 259.559 320.647 261.53 322.982 263.734C328.414 268.87 332.622 275.215 336.783 281.5C337.847 283.102 338.911 284.742 339.443 286.603C340.374 289.779 339.618 293.319 337.921 296.135C336.224 298.952 333.665 301.105 330.904 302.795C329.463 303.683 327.96 304.458 326.408 305.115C323.216 306.462 320.173 302.812 321.971 299.763C323.113 297.852 324.157 295.879 325.1 293.854C325.701 292.732 326.047 291.481 326.11 290.198C326.068 287.945 324.355 286.034 322.386 285.09C320.418 284.145 318.199 283.985 316.045 283.709C303.86 282.181 292.266 277.393 282.4 269.814C276.814 265.507 271.43 259.194 272.318 252.031C272.978 246.685 277.053 242.433 281.527 239.694C285.162 237.48 289.159 235.982 293.317 235.276C294.487 235.077 297.424 234.243 298.472 235.082C299.403 235.8 299.228 238.153 300.1 239.257Z" fill="black"/>
<path d="M255.746 40.249C250.426 45.9042 241.882 46.1416 234.263 46.0036L234.513 42.9054L223.798 46.8927C226.576 44.7498 228.958 42.1045 230.832 39.0837C229.443 37.819 227.267 37.8577 225.618 38.7302C223.969 39.6028 222.756 41.1436 221.718 42.7342C218.679 47.4597 216.744 52.8566 216.068 58.495C215.392 64.1335 215.993 69.858 217.824 75.2128C215.696 76.4388 212.982 76.0799 210.939 74.7434C208.896 73.4069 207.471 71.231 206.502 68.9336C205.869 67.4314 205.21 65.6531 203.699 65.1837C202.432 64.7916 201.039 65.5924 200.336 66.7577C199.706 67.9741 199.452 69.3623 199.607 70.7339C199.804 73.9481 202.065 76.9966 202.518 80.1777C202.97 83.3587 207.545 85.8328 205.178 87.9094C204.497 88.5113 197.511 90.1516 196.628 90.008C195.431 89.8147 194.638 88.6163 194.138 87.4731C191.755 82.0388 192.611 75.6878 191.202 69.9C190.068 65.2445 187.515 61.1135 184.998 57.082C184.323 55.9073 183.525 54.8129 182.62 53.8181C181.785 52.9676 180.753 52.2331 180.348 51.0954C179.944 49.9578 180.689 48.3341 181.843 48.5164C179.98 46.646 177.975 44.934 175.848 43.3969C177.954 40.6282 180.015 37.8245 182.03 34.9859C182.721 34.0139 183.439 32.7768 182.934 31.6723C182.639 31.1663 182.223 30.7478 181.726 30.4573L176.225 26.5915C176.103 23.9682 181.248 24.9347 182.04 22.455C182.18 21.796 182.132 21.1091 181.902 20.4779L180.029 13.3868L187.142 16.7336C188.004 17.1422 188.925 17.5564 189.866 17.4129C191.744 17.1312 192.649 14.8227 192.744 12.8511C192.84 10.8796 192.537 8.75887 193.479 7.04133C196.699 6.90879 199.918 6.93272 203.135 7.11312C203.338 5.43261 202.909 3.73552 201.938 2.3747L225.708 1.00508C229.768 0.773131 233.939 0.557754 237.796 1.88319C239.104 2.33604 240.424 2.98771 241.796 2.82756C243.169 2.6674 244.552 1.35301 244.159 -0.0166016C247.721 2.07133 250.98 4.67463 253.836 7.7151C254.607 8.66833 255.539 9.46748 256.586 10.0733C257.651 10.5924 259.108 10.5703 259.917 9.65354C260.566 8.91903 260.891 7.63778 261.848 7.5936C262.444 7.5936 262.912 8.07958 263.29 8.5711C264.649 10.376 265.756 12.371 266.578 14.4969C268.283 14.2582 269.954 13.8019 271.552 13.1383C269.892 14.5908 269.85 17.2969 270.642 19.3955C271.435 21.4941 272.872 23.2613 273.834 25.2716C274.793 27.4306 275.436 29.7255 275.744 32.081C276.229 35.0301 276.234 38.7468 273.712 40.1937C271.52 41.4529 268.802 40.1109 266.796 38.537C261.274 34.2403 260.22 35.4995 255.746 40.249Z" fill="#01E7C0"/>
<path d="M283.565 301.172L320.429 297.72C321.91 297.582 323.283 296.853 324.257 295.686C325.232 294.519 325.732 293.005 325.653 291.463L325.626 290.911C325.565 289.683 325.14 288.505 324.408 287.538C323.677 286.571 322.675 285.862 321.54 285.51L315.582 283.654C315.045 283.487 314.488 283.401 313.927 283.4H300.409C300.039 283.401 299.67 283.438 299.307 283.51C296.451 284.09 283.304 286.774 282.815 287.266C282.554 287.542 280.99 288.757 279.479 289.917C278.575 290.61 277.887 291.564 277.5 292.659C277.113 293.755 277.045 294.944 277.303 296.08L277.415 296.588C277.731 297.996 278.529 299.237 279.66 300.08C280.791 300.923 282.179 301.311 283.565 301.172Z" fill="#464A5F"/>
<path d="M265.562 289.21L280.458 284.792L308.123 280.926C308.123 280.926 325.68 275.955 327.276 291.419L325.786 294.036C325.786 294.036 327.276 284.239 309.187 287.001C309.187 287.001 276.665 285.868 278.032 299.15C278.032 299.139 266.626 296.941 265.562 289.21Z" fill="#F35A5E"/>
<path d="M285.778 279.827C287.835 279.827 289.502 279.579 289.502 279.274C289.502 278.969 287.835 278.722 285.778 278.722C283.722 278.722 282.054 278.969 282.054 279.274C282.054 279.579 283.722 279.827 285.778 279.827Z" fill="#F35A5E"/>
<path d="M319.029 279.551H316.369V284.521H319.029V279.551Z" fill="#F35A5E"/>
<path d="M287.108 279.551H284.448V284.521H287.108V279.551Z" fill="#F35A5E"/>
<path d="M321.131 280.001C321.394 279.289 319.827 278.004 317.632 277.131C315.437 276.259 313.445 276.128 313.182 276.84C312.919 277.552 314.486 278.837 316.681 279.71C318.876 280.583 320.868 280.713 321.131 280.001Z" fill="#F35A5E"/>
<path d="M166.622 288.398C167.761 289.629 168.921 290.883 170.384 291.656C171.832 292.323 173.372 292.746 174.949 292.91C191.065 295.487 207.125 298.37 223.128 301.558C227.634 302.464 232.172 303.403 236.428 305.22C238.599 306.153 240.685 307.313 242.813 308.29C255.049 313.863 268.881 313.504 282.23 313.04C284.842 312.951 287.55 312.841 289.907 311.709C291.668 310.875 293.28 309.29 293.439 307.291C293.716 303.817 289.912 301.768 286.874 300.271C279.623 296.72 273.303 290.944 269.483 283.621C268.802 282.328 268.248 280.589 269.206 279.495C269.924 278.678 271.143 278.672 272.212 278.717C276.681 278.897 281.15 278.849 285.619 278.573C287.933 278.424 290.997 277.286 290.63 274.917C290.471 273.901 289.662 273.144 288.896 272.482C284.869 268.969 280.299 265.352 275.037 265.457C272.276 265.512 269.642 266.605 267.057 267.528C253.128 272.432 238.131 272.702 223.431 272.603C219.835 272.603 216.212 272.531 212.69 271.769C209.797 271.059 206.963 270.112 204.215 268.936C195.298 265.407 186.344 261.856 178.087 256.902C174.805 254.936 171.145 252.661 167.484 253.671C165.842 254.225 164.348 255.171 163.122 256.433C158.765 260.519 155.088 265.523 156.328 271.797C157.589 278.391 162.292 283.704 166.622 288.398Z" fill="#FBBEBE"/>
<path d="M164.25 181.745C165.622 186.356 166.426 191.238 168.788 195.396C171.294 199.815 175.465 203.239 176.912 208.137C177.933 211.605 177.444 215.317 177.444 218.956C177.444 223.082 178.194 227.334 180.391 230.769C181.498 232.503 182.939 233.972 184.2 235.59C189.792 242.77 191.516 252.357 192.212 261.547C186.892 258.421 180.668 255.196 174.906 257.344C172.576 258.217 170.607 259.895 168.777 261.635C165.226 265.001 161.979 268.698 159.078 272.68C157.557 274.762 156.062 277.308 156.722 279.827C153.572 275.077 150.38 270.295 147.933 265.07C146.198 261.337 144.852 257.394 142.772 253.848C140.155 249.391 136.468 245.73 133.366 241.621C126.397 232.387 122.486 220.955 120.587 209.418C118.688 197.882 118.608 186.063 118.666 174.333C118.666 170.467 118.746 166.447 120.316 162.929C121.247 160.836 122.667 159.024 124.077 157.241C125.865 154.971 127.705 152.657 130.137 151.166C137.872 146.438 146.172 154.275 151.343 159.637C157.307 165.812 161.736 173.399 164.25 181.745Z" fill="#192534"/>
<path d="M297.605 155.236C298.322 155.914 298.901 156.735 299.308 157.649C299.712 158.754 299.605 159.969 299.52 161.145C299.016 168.149 299.495 175.192 300.941 182.054C301.808 186.201 302.904 191.001 300.356 194.32C299.962 194.756 299.606 195.227 299.292 195.728C298.11 198.025 300.292 200.527 301.952 202.499C306.995 208.574 307.804 218.078 303.893 225.009C303.154 226.329 302.25 227.577 301.835 229.035C301.554 230.234 301.443 231.47 301.505 232.702L301.526 241.941C295.935 241.163 289.683 240.555 285.188 244.095C281.394 247.077 279.894 252.269 276.676 255.88C273.553 259.36 268.695 261.602 267.477 266.186L267.541 247.094C267.62 244.558 267.488 242.019 267.147 239.506C266.509 235.557 264.854 231.863 263.886 227.986C262.62 222.916 262.54 217.62 262.465 212.379C262.343 203.725 262.226 194.977 263.955 186.511C264.663 183.064 265.668 179.69 266.445 176.261C267.855 170.075 268.573 163.636 271.047 157.826C273.521 152.016 278.378 146.748 284.475 146.124C290.896 145.455 293.62 150.912 297.605 155.236Z" fill="#192534"/>
<path d="M321.42 279.137C323.202 278.069 323.097 274.42 321.187 270.986C319.278 267.553 316.285 265.634 314.504 266.702C312.723 267.769 312.827 271.418 314.737 274.852C316.647 278.286 319.639 280.205 321.42 279.137Z" fill="#FBBEBE"/>
<path opacity="0.1" d="M321.42 279.137C323.202 278.069 323.097 274.42 321.187 270.986C319.278 267.553 316.285 265.634 314.504 266.702C312.723 267.769 312.827 271.418 314.737 274.852C316.647 278.286 319.639 280.205 321.42 279.137Z" fill="black"/>
</g>
<defs>
<clipPath id="clip0">
<rect width="554" height="316" fill="white"/>
</clipPath>
</defs>
</svg>
