<svg width="603" height="412" viewBox="0 0 603 412" fill="none" xmlns="http://www.w3.org/2000/svg">
<path d="M517.681 172.026C525.993 180.732 535.266 182.122 545.5 176.194C541.205 169.319 540.183 161.842 541.327 153.965H521.39C522.274 160.886 522.036 167.332 517.681 172.026Z" fill="#FFB8B8"/>
<path d="M550.6 399.874L561.264 394.317L565.9 335.503V304.474L541.327 304.011L548.282 335.04L550.6 399.874Z" fill="#FFB8B8"/>
<path d="M519.689 399.874L509.025 394.317L504.389 335.503V304.474L528.962 304.011L522.007 335.04L519.689 399.874Z" fill="#FFB8B8"/>
<path d="M503.308 310.958L529.272 308.642L533.445 285.024L538.545 308.179L566.828 306.327C567.446 295.074 565.876 283.493 562.191 271.594L500.063 270.204L503.308 310.958Z" fill="#2F2E41"/>
<path d="M476.321 222.258L445.089 198.236C444.765 197.986 444.409 197.782 444.03 197.628L439.49 195.783C435.844 194.301 428.9 189.373 432.287 184.299C435.017 180.207 445.47 187.536 446.756 190.252C447.162 191.106 447.829 191.811 448.66 192.264L455.007 195.738C455.162 195.822 455.321 195.898 455.484 195.964L479.648 205.747C480.318 206.018 481.043 206.126 481.763 206.061C482.483 205.996 483.177 205.76 483.787 205.374L488.168 202.599C488.792 202.204 489.502 201.967 490.238 201.908C490.973 201.849 491.712 201.97 492.391 202.261C493.069 202.551 493.666 203.003 494.131 203.576C494.595 204.149 494.913 204.826 495.057 205.549L496.505 212.848C496.713 213.899 496.542 214.99 496.023 215.927C495.504 216.865 494.669 217.588 493.667 217.97L480.711 222.902C479.985 223.179 479.2 223.265 478.432 223.152C477.664 223.039 476.937 222.731 476.321 222.258Z" fill="#FFB8B8"/>
<path d="M482.123 204.755C490.77 202.439 489.862 214.506 496.459 220.439L509.43 210.21L501.917 173.878C499.901 174.453 498.047 175.489 496.501 176.903C494.955 178.317 493.759 180.071 493.009 182.026L482.123 204.755Z" fill="#F35A5E"/>
<path d="M498.208 272.52H563.582C553.002 244.042 554.032 214.752 563.041 184.905C563.192 184.409 563.165 183.876 562.966 183.398C562.766 182.92 562.405 182.527 561.946 182.286L543.182 172.489C535.816 177.276 527.9 175.805 519.536 169.247L499.135 174.804C504.689 208.12 504.847 240.751 498.208 272.52Z" fill="#F35A5E"/>
<path d="M514.555 410.751L487.311 411.905C486.125 411.955 484.962 411.565 484.046 410.81C483.13 410.056 482.526 408.989 482.351 407.816C482.173 406.631 482.445 405.423 483.113 404.429C483.781 403.434 484.797 402.725 485.962 402.439L490.583 401.308L508.745 390.793C511.436 393.576 515.141 395.929 519.671 397.933L519.724 405.326C519.734 406.723 519.2 408.07 518.236 409.082C517.272 410.094 515.952 410.692 514.555 410.751Z" fill="#2F2E41"/>
<path d="M555.508 410.338L582.752 411.492C583.938 411.542 585.101 411.152 586.017 410.397C586.932 409.642 587.536 408.576 587.712 407.403C587.889 406.218 587.617 405.01 586.949 404.016C586.281 403.021 585.265 402.311 584.1 402.026L579.479 400.895L561.317 390.38C558.627 393.163 554.921 395.516 550.392 397.52L550.339 404.913C550.329 406.31 550.862 407.656 551.826 408.668C552.79 409.68 554.11 410.279 555.508 410.338Z" fill="#2F2E41"/>
<path d="M529.272 162.301C537.467 162.301 544.109 155.666 544.109 147.481C544.109 139.297 537.467 132.662 529.272 132.662C521.078 132.662 514.436 139.297 514.436 147.481C514.436 155.666 521.078 162.301 529.272 162.301Z" fill="#FFB8B8"/>
<path d="M552.455 267.889L547.553 277.409C547.121 278.249 546.871 279.171 546.821 280.114C546.77 281.057 546.92 282.001 547.261 282.882C547.602 283.763 548.125 284.562 548.797 285.227C549.469 285.892 550.275 286.407 551.16 286.739C552.097 287.09 553.102 287.227 554.099 287.139C555.096 287.052 556.061 286.743 556.923 286.234C557.784 285.726 558.521 285.031 559.079 284.201C559.637 283.37 560.001 282.426 560.146 281.437L562.191 267.426L569.61 232.23L569.146 214.632H554.309C559.37 227.721 556.859 247.027 552.455 267.889Z" fill="#FFB8B8"/>
<path d="M551.991 216.484H571.928L569.034 194.645C568.642 191.683 567.513 188.867 565.75 186.453C563.988 184.039 561.649 182.104 558.946 180.825L551.991 216.484Z" fill="#F35A5E"/>
<path d="M545.046 139.318C545.342 137.339 545.218 135.319 544.68 133.39C544.143 131.462 543.205 129.668 541.927 128.126C539.396 125.134 535.153 122.686 528.114 123.841C512.755 126.361 508.326 139.132 509.831 142.344C511.336 145.556 515.948 153.001 515.948 153.001C515.948 153.001 512.563 145.631 516.237 144.131C519.91 142.631 534.128 136.721 539.09 139.383C540.495 140.088 541.688 141.152 542.547 142.466C543.406 143.781 543.901 145.3 543.982 146.868L545.046 139.318Z" fill="#2F2E41"/>
<path d="M291.105 77.6425L285.14 80.6658C278.269 67.1523 269.166 54.8925 258.214 44.4017C204.431 -7.24358 118.61 -5.55509 66.9044 48.1657C15.199 101.886 16.8895 187.608 70.6727 239.253C80.9092 249.102 92.6363 257.278 105.422 263.479L102.504 269.491C82.2379 259.661 64.604 245.157 51.0594 227.175C37.5149 209.193 28.4485 188.25 24.6094 166.076C20.7703 143.902 22.2686 121.134 28.9806 99.6533C35.6926 78.1722 47.4256 58.5948 63.2101 42.5384C78.9947 26.4821 98.3778 14.4078 119.758 7.31304C141.138 0.218314 163.901 -1.69313 186.167 1.73662C208.433 5.16637 229.562 13.8389 247.809 27.0376C266.056 40.2363 280.897 57.5823 291.105 77.6425Z" fill="#E6E6E6"/>
<path d="M89.2905 201.943C80.5163 211.059 75.727 223.284 75.9764 235.927C76.2257 248.57 81.4932 260.597 90.62 269.361C99.7468 278.125 111.985 282.908 124.643 282.659C137.301 282.41 149.342 277.149 158.116 268.033L166.334 259.494L97.5086 193.405L89.2905 201.943Z" fill="#E6E6E6"/>
<path d="M92.8972 188.555C90.9441 190.589 89.8785 193.314 89.9341 196.131C89.9896 198.949 91.1619 201.629 93.1936 203.585L156.32 264.202C158.355 266.156 161.083 267.222 163.905 267.166C166.727 267.111 169.411 265.938 171.367 263.906C173.323 261.873 174.39 259.148 174.335 256.33C174.279 253.511 173.105 250.83 171.07 248.876L107.944 188.259C105.908 186.309 103.18 185.244 100.359 185.3C97.5385 185.355 94.8548 186.526 92.8972 188.555Z" fill="#535461"/>
<path d="M282.23 139.08L290.448 130.542C299.223 121.426 304.012 109.202 303.762 96.5583C303.513 83.9151 298.246 71.8886 289.119 63.1246C284.6 58.7851 279.269 55.3772 273.431 53.0954C267.594 50.8137 261.363 49.7027 255.096 49.826C242.438 50.0751 230.397 55.3364 221.623 64.4526L213.405 72.991L282.23 139.08Z" fill="#E6E6E6"/>
<path d="M208.372 68.5795C206.419 70.6133 205.353 73.3378 205.409 76.1554C205.465 78.973 206.637 81.6535 208.669 83.6088L271.795 144.226C273.83 146.177 276.558 147.242 279.378 147.185C282.199 147.129 284.881 145.956 286.836 143.925C288.791 141.893 289.859 139.17 289.805 136.352C289.75 133.535 288.578 130.855 286.545 128.901L223.419 68.2834C221.383 66.3327 218.655 65.2683 215.834 65.3238C213.013 65.3793 210.33 66.5502 208.372 68.5795Z" fill="#535461"/>
<path d="M235.001 208.664V203.739C235.001 203.739 256.518 191.65 274 203.739V208.216L235.001 208.664Z" fill="#535461"/>
<path d="M430.889 208.664V203.739C430.889 203.739 452.405 191.65 469.887 203.739V208.216L430.889 208.664Z" fill="#535461"/>
<path d="M299.55 208.217H278.482C278.482 208.217 273.103 201.948 255.173 202.396C237.243 202.844 233.657 208.217 233.657 208.217C233.657 208.217 215.95 220.081 211.916 234.857C211.916 234.857 190.176 300.002 189.728 351.044C189.279 402.086 209.003 409.249 219.312 410.592C229.622 411.936 248.001 410.145 265.931 364.924L273.551 338.507C273.551 338.507 274.896 322.837 291.033 332.687C307.171 342.537 321.515 327.314 321.515 327.314H382.029C382.029 327.314 402.201 339.85 420.579 330C420.579 330 427.751 320.598 434.475 352.387C434.475 352.387 455.095 417.756 486.921 411.04C518.747 404.324 515.161 349.701 515.161 349.701C515.161 349.701 510.903 266.198 493.421 236.648C493.421 236.648 476.611 205.978 465.405 204.635C465.405 204.635 441.199 200.157 431.786 204.187L426.407 208.664L299.55 208.217Z" fill="#E6E6E6"/>
<path d="M250.69 291.047C272.229 291.047 289.689 273.608 289.689 252.094C289.689 230.581 272.229 213.142 250.69 213.142C229.152 213.142 211.692 230.581 211.692 252.094C211.692 273.608 229.152 291.047 250.69 291.047Z" fill="#535461"/>
<path d="M454.198 291.047C475.736 291.047 493.197 273.608 493.197 252.094C493.197 230.581 475.736 213.142 454.198 213.142C432.66 213.142 415.2 230.581 415.2 252.094C415.2 273.608 432.66 291.047 454.198 291.047Z" fill="#535461"/>
<path d="M257.486 243.408L252.286 248.002C251.846 248.389 251.279 248.603 250.693 248.603C250.106 248.603 249.539 248.389 249.099 248.002L243.89 243.408C243.636 243.184 243.431 242.909 243.291 242.6C243.15 242.291 243.076 241.957 243.074 241.618V228.978C243.076 228.34 243.33 227.728 243.782 227.278C244.235 226.827 244.847 226.574 245.486 226.574H255.908C256.546 226.572 257.159 226.825 257.611 227.275C258.064 227.725 258.318 228.336 258.32 228.973V241.609C258.317 241.951 258.241 242.288 258.097 242.598C257.953 242.909 257.745 243.185 257.486 243.408Z" fill="#E6E6E6"/>
<path d="M257.486 260.776L252.286 256.187C251.846 255.8 251.279 255.586 250.693 255.586C250.106 255.586 249.539 255.8 249.099 256.187L243.89 260.781C243.636 261.005 243.431 261.28 243.291 261.589C243.15 261.898 243.076 262.232 243.074 262.571V275.198C243.073 275.835 243.326 276.447 243.776 276.899C244.227 277.351 244.839 277.605 245.477 277.606H255.908C256.546 277.608 257.159 277.355 257.611 276.905C258.064 276.455 258.318 275.844 258.32 275.207V262.576C258.317 262.234 258.241 261.897 258.097 261.586C257.953 261.276 257.745 261 257.486 260.776Z" fill="#E6E6E6"/>
<path d="M241.999 258.891L246.598 253.688C246.985 253.249 247.199 252.683 247.199 252.097C247.199 251.511 246.985 250.945 246.598 250.505L241.999 245.302C241.774 245.048 241.498 244.844 241.189 244.704C240.88 244.563 240.545 244.49 240.206 244.487H227.565C226.926 244.489 226.314 244.743 225.862 245.195C225.411 245.646 225.158 246.258 225.158 246.896V257.306C225.157 257.944 225.409 258.556 225.86 259.008C226.31 259.459 226.922 259.714 227.56 259.715H240.21C240.55 259.711 240.884 259.636 241.193 259.494C241.501 259.352 241.776 259.147 241.999 258.891Z" fill="#E6E6E6"/>
<path d="M259.387 258.891L254.796 253.684C254.408 253.245 254.193 252.679 254.193 252.092C254.193 251.506 254.408 250.94 254.796 250.501L259.395 245.298C259.62 245.043 259.896 244.839 260.205 244.699C260.514 244.558 260.849 244.485 261.189 244.483H273.829C274.468 244.482 275.08 244.734 275.533 245.184C275.985 245.634 276.24 246.245 276.241 246.883V257.302C276.242 257.939 275.99 258.551 275.539 259.003C275.088 259.455 274.477 259.709 273.838 259.711H261.193C260.851 259.71 260.513 259.637 260.201 259.495C259.89 259.354 259.612 259.148 259.387 258.891Z" fill="#E6E6E6"/>
<path d="M303.585 322.837C319.181 322.837 331.825 310.208 331.825 294.629C331.825 279.051 319.181 266.422 303.585 266.422C287.988 266.422 275.344 279.051 275.344 294.629C275.344 310.208 287.988 322.837 303.585 322.837Z" fill="#535461"/>
<path d="M401.304 322.837C416.901 322.837 429.544 310.208 429.544 294.629C429.544 279.051 416.901 266.422 401.304 266.422C385.708 266.422 373.064 279.051 373.064 294.629C373.064 310.208 385.708 322.837 401.304 322.837Z" fill="#535461"/>
<path d="M303.585 313.434C313.982 313.434 322.411 305.015 322.411 294.629C322.411 284.244 313.982 275.824 303.585 275.824C293.187 275.824 284.758 284.244 284.758 294.629C284.758 305.015 293.187 313.434 303.585 313.434Z" fill="#E6E6E6"/>
<path d="M303.585 307.613C301.014 307.613 298.5 306.852 296.362 305.425C294.225 303.999 292.559 301.971 291.575 299.598C290.591 297.226 290.333 294.615 290.835 292.096C291.337 289.577 292.575 287.264 294.393 285.448C296.211 283.632 298.527 282.395 301.049 281.894C303.57 281.393 306.184 281.65 308.559 282.633C310.935 283.616 312.965 285.28 314.393 287.415C315.822 289.551 316.584 292.061 316.584 294.629C316.58 298.072 315.209 301.372 312.772 303.806C310.335 306.24 307.031 307.61 303.585 307.613ZM303.585 282.54C301.191 282.54 298.851 283.249 296.861 284.578C294.87 285.906 293.319 287.794 292.403 290.003C291.487 292.212 291.247 294.643 291.714 296.988C292.181 299.333 293.334 301.487 295.027 303.177C296.719 304.868 298.876 306.019 301.223 306.486C303.571 306.952 306.005 306.713 308.216 305.798C310.428 304.883 312.318 303.333 313.648 301.345C314.978 299.357 315.687 297.02 315.687 294.629C315.684 291.424 314.408 288.351 312.139 286.085C309.87 283.819 306.793 282.544 303.585 282.54Z" fill="#535461"/>
<path d="M401.304 313.434C411.702 313.434 420.131 305.015 420.131 294.629C420.131 284.244 411.702 275.824 401.304 275.824C390.906 275.824 382.477 284.244 382.477 294.629C382.477 305.015 390.906 313.434 401.304 313.434Z" fill="#E6E6E6"/>
<path d="M401.304 307.613C398.733 307.613 396.22 306.852 394.082 305.425C391.945 303.999 390.278 301.971 389.294 299.598C388.311 297.226 388.053 294.615 388.555 292.096C389.056 289.577 390.294 287.264 392.112 285.448C393.93 283.632 396.247 282.395 398.768 281.894C401.29 281.393 403.904 281.65 406.279 282.633C408.654 283.616 410.685 285.28 412.113 287.415C413.541 289.551 414.304 292.061 414.304 294.629C414.3 298.072 412.929 301.372 410.492 303.806C408.055 306.24 404.751 307.61 401.304 307.613ZM401.304 282.54C398.911 282.54 396.571 283.249 394.58 284.578C392.59 285.906 391.039 287.794 390.123 290.003C389.207 292.212 388.967 294.643 389.434 296.988C389.901 299.333 391.054 301.487 392.746 303.177C394.439 304.868 396.595 306.019 398.943 306.486C401.291 306.952 403.724 306.713 405.936 305.798C408.147 304.883 410.038 303.333 411.368 301.345C412.697 299.357 413.407 297.02 413.407 294.629C413.404 291.424 412.127 288.351 409.858 286.085C407.589 283.819 404.513 282.544 401.304 282.54Z" fill="#535461"/>
<path d="M353.341 305.823C357.797 305.823 361.409 302.214 361.409 297.763C361.409 293.312 357.797 289.704 353.341 289.704C348.885 289.704 345.272 293.312 345.272 297.763C345.272 302.214 348.885 305.823 353.341 305.823Z" fill="#535461"/>
<path d="M341.009 272.623C341.982 272.623 342.771 271.835 342.771 270.864C342.771 269.892 341.982 269.104 341.009 269.104C340.036 269.104 339.248 269.892 339.248 270.864C339.248 271.835 340.036 272.623 341.009 272.623Z" fill="#535461"/>
<path d="M347.608 272.623C348.581 272.623 349.369 271.835 349.369 270.864C349.369 269.892 348.581 269.104 347.608 269.104C346.635 269.104 345.846 269.892 345.846 270.864C345.846 271.835 346.635 272.623 347.608 272.623Z" fill="#535461"/>
<path d="M346.729 280.973C347.702 280.973 348.491 280.186 348.491 279.214C348.491 278.242 347.702 277.454 346.729 277.454C345.756 277.454 344.967 278.242 344.967 279.214C344.967 280.186 345.756 280.973 346.729 280.973Z" fill="#535461"/>
<path d="M352.893 281.197C353.883 281.197 354.686 280.395 354.686 279.406C354.686 278.417 353.883 277.615 352.893 277.615C351.902 277.615 351.1 278.417 351.1 279.406C351.1 280.395 351.902 281.197 352.893 281.197Z" fill="#535461"/>
<path d="M359.047 280.973C360.02 280.973 360.809 280.186 360.809 279.214C360.809 278.242 360.02 277.454 359.047 277.454C358.074 277.454 357.286 278.242 357.286 279.214C357.286 280.186 358.074 280.973 359.047 280.973Z" fill="#535461"/>
<path d="M344.089 277.02C345.062 277.02 345.851 276.232 345.851 275.26C345.851 274.288 345.062 273.501 344.089 273.501C343.116 273.501 342.327 274.288 342.327 275.26C342.327 276.232 343.116 277.02 344.089 277.02Z" fill="#535461"/>
<path d="M349.755 277.168C350.745 277.168 351.548 276.366 351.548 275.377C351.548 274.388 350.745 273.586 349.755 273.586C348.765 273.586 347.962 274.388 347.962 275.377C347.962 276.366 348.765 277.168 349.755 277.168Z" fill="#535461"/>
<path d="M355.582 277.168C356.572 277.168 357.375 276.366 357.375 275.377C357.375 274.388 356.572 273.586 355.582 273.586C354.592 273.586 353.789 274.388 353.789 275.377C353.789 276.366 354.592 277.168 355.582 277.168Z" fill="#535461"/>
<path d="M361.687 277.02C362.66 277.02 363.449 276.232 363.449 275.26C363.449 274.288 362.66 273.501 361.687 273.501C360.714 273.501 359.926 274.288 359.926 275.26C359.926 276.232 360.714 277.02 361.687 277.02Z" fill="#535461"/>
<path d="M352.893 272.69C353.883 272.69 354.686 271.888 354.686 270.899C354.686 269.91 353.883 269.108 352.893 269.108C351.902 269.108 351.1 269.91 351.1 270.899C351.1 271.888 351.902 272.69 352.893 272.69Z" fill="#535461"/>
<path d="M359.168 272.69C360.158 272.69 360.961 271.888 360.961 270.899C360.961 269.91 360.158 269.108 359.168 269.108C358.178 269.108 357.375 269.91 357.375 270.899C357.375 271.888 358.178 272.69 359.168 272.69Z" fill="#535461"/>
<path d="M364.328 272.623C365.301 272.623 366.089 271.835 366.089 270.864C366.089 269.892 365.301 269.104 364.328 269.104C363.355 269.104 362.566 269.892 362.566 270.864C362.566 271.835 363.355 272.623 364.328 272.623Z" fill="#535461"/>
<path d="M286.327 212.033C285.497 212.033 284.702 212.363 284.116 212.948C283.53 213.534 283.2 214.328 283.199 215.156V224.559C283.2 225.387 283.53 226.181 284.116 226.767C284.702 227.352 285.497 227.682 286.327 227.683H288.568C289.397 227.682 290.192 227.352 290.778 226.767C291.365 226.181 291.694 225.387 291.695 224.559V215.156C291.694 214.328 291.365 213.534 290.778 212.948C290.192 212.363 289.397 212.033 288.568 212.033H286.327Z" fill="#535461"/>
<path d="M417.217 212.033C416.388 212.033 415.593 212.363 415.007 212.948C414.42 213.534 414.091 214.328 414.09 215.156V224.559C414.091 225.387 414.42 226.181 415.007 226.767C415.593 227.353 416.388 227.682 417.217 227.683H419.459C420.288 227.682 421.083 227.353 421.669 226.767C422.255 226.181 422.585 225.387 422.586 224.559V215.156C422.585 214.328 422.255 213.534 421.669 212.948C421.083 212.363 420.288 212.033 419.459 212.033H417.217Z" fill="#535461"/>
<path d="M454.647 239.11C460.588 239.11 465.405 234.299 465.405 228.365C465.405 222.43 460.588 217.619 454.647 217.619C448.705 217.619 443.889 222.43 443.889 228.365C443.889 234.299 448.705 239.11 454.647 239.11Z" fill="#E6E6E6"/>
<path d="M431.786 261.945C437.727 261.945 442.544 257.134 442.544 251.199C442.544 245.264 437.727 240.453 431.786 240.453C425.844 240.453 421.027 245.264 421.027 251.199C421.027 257.134 425.844 261.945 431.786 261.945Z" fill="#E6E6E6"/>
<path d="M478.404 260.601C484.346 260.601 489.162 255.79 489.162 249.856C489.162 243.921 484.346 239.11 478.404 239.11C472.463 239.11 467.646 243.921 467.646 249.856C467.646 255.79 472.463 260.601 478.404 260.601Z" fill="#E6E6E6"/>
<path d="M456.44 284.331C462.381 284.331 467.198 279.52 467.198 273.586C467.198 267.651 462.381 262.84 456.44 262.84C450.498 262.84 445.682 267.651 445.682 273.586C445.682 279.52 450.498 284.331 456.44 284.331Z" fill="#E6E6E6"/>
<path d="M306.61 205.764C304.206 205.767 301.902 206.722 300.202 208.42C298.502 210.118 297.546 212.42 297.543 214.821V254.893C297.546 257.294 298.502 259.596 300.202 261.294C301.902 262.991 304.206 263.946 306.61 263.949H398.726C401.13 263.946 403.435 262.991 405.135 261.294C406.835 259.596 407.791 257.294 407.793 254.893V214.821C407.791 212.42 406.835 210.118 405.135 208.42C403.435 206.722 401.13 205.767 398.726 205.764H306.61Z" fill="#535461"/>
<path d="M461.955 233.29H447.367L454.41 221.23L461.955 233.29ZM448.928 232.394H460.338L454.436 222.962L448.928 232.394Z" fill="#535461"/>
<path d="M437.837 256.572H425.734V245.826H437.837V256.572ZM426.631 255.676H436.941V246.722H426.631V255.676Z" fill="#535461"/>
<path d="M478.404 256.572C477.074 256.572 475.774 256.178 474.669 255.44C473.563 254.702 472.701 253.653 472.192 252.426C471.683 251.199 471.55 249.848 471.81 248.546C472.069 247.243 472.709 246.046 473.65 245.107C474.59 244.168 475.788 243.528 477.092 243.269C478.397 243.01 479.749 243.143 480.977 243.651C482.206 244.159 483.256 245.02 483.995 246.125C484.734 247.229 485.128 248.527 485.128 249.856C485.126 251.636 484.417 253.343 483.157 254.603C481.896 255.862 480.187 256.57 478.404 256.572ZM478.404 244.035C477.252 244.035 476.125 244.377 475.167 245.016C474.208 245.656 473.462 246.565 473.02 247.628C472.579 248.692 472.464 249.862 472.689 250.991C472.914 252.12 473.469 253.157 474.284 253.972C475.099 254.786 476.137 255.34 477.267 255.564C478.398 255.789 479.569 255.674 480.634 255.233C481.699 254.793 482.609 254.047 483.25 253.089C483.89 252.132 484.232 251.007 484.232 249.856C484.23 248.313 483.615 246.833 482.523 245.742C481.43 244.651 479.949 244.037 478.404 244.035Z" fill="#535461"/>
<path d="M451.602 268.232L450.968 268.865L461.054 278.939L461.687 278.306L451.602 268.232Z" fill="#535461"/>
<path d="M461.284 268.224L450.975 278.076L451.595 278.723L461.904 268.872L461.284 268.224Z" fill="#535461"/>
<path d="M95.2839 103.453C70.8091 110.193 44.0082 115.266 34.405 107.395C39.6629 98.6525 42.6955 90.0351 42.9527 81.5743C43.0107 77.7031 44.5804 74.0076 47.3272 71.2759C49.1457 69.5211 51.3407 68.2034 53.7454 67.4229C56.1501 66.6424 58.7013 66.4197 61.2051 66.7715L67.5569 67.6618C67.7707 67.6918 67.9834 67.7258 68.195 67.7639C71.2438 68.3408 74.0351 69.8569 76.1772 72.0993C78.3193 74.3417 79.7045 77.1978 80.1385 80.2667C81.4767 89.4412 85.9769 97.3836 95.2839 103.453Z" fill="#2F2E41"/>
<path d="M118.893 190.493L128.408 192.453C129.134 192.603 129.819 192.912 130.411 193.359C131.003 193.805 131.488 194.378 131.831 195.036C132.173 195.693 132.365 196.418 132.392 197.159C132.42 197.9 132.281 198.637 131.988 199.318C131.704 199.975 131.281 200.564 130.749 201.045C130.218 201.525 129.588 201.885 128.905 202.101C128.221 202.317 127.499 202.384 126.787 202.296C126.075 202.208 125.391 201.969 124.78 201.594L110.226 192.652L85.5046 134.605L98.3089 130.906L118.893 190.493Z" fill="#A0616A"/>
<path d="M51.1122 266.662L43.9078 268.755L38.4545 257.505L43.9999 254.619L51.1122 266.662Z" fill="#A0616A"/>
<path d="M47.4516 314.86L38.6122 312.523L39.996 297.354L47.6032 297.822L47.4516 314.86Z" fill="#A0616A"/>
<path d="M48.3735 256.146L39.0113 262.3L3.00327 221.618C2.22222 220.736 1.64545 219.692 1.314 218.562C0.982559 217.431 0.904584 216.242 1.08561 215.078C1.26664 213.914 1.70223 212.804 2.36139 211.828C3.02056 210.851 3.8871 210.032 4.89937 209.427L49.7564 182.655L56.6269 202.369L33.2696 224.262L48.3735 256.146Z" fill="#2F2E41"/>
<path d="M56.2579 277.441C56.2344 277.472 56.2109 277.502 56.1873 277.533C55.5889 281.032 54.538 284.224 52.1912 286.535C51.4954 288.102 50.246 289.359 48.6816 290.065C47.1172 290.77 45.3474 290.876 43.7101 290.361C42.166 289.875 40.8387 288.869 39.9554 287.514C39.0721 286.159 38.6875 284.539 38.8675 282.932L40.6169 267.313C44.8135 266.35 48.0142 263.966 49.6342 259.328L53.7127 262.103C54.9197 262.917 55.9478 263.969 56.7343 265.194C57.5209 266.418 58.0494 267.79 58.2876 269.225C58.5257 270.661 58.4686 272.13 58.1196 273.542C57.7707 274.955 57.1372 276.282 56.2579 277.441Z" fill="#2F2E41"/>
<path d="M60.6961 100.108C68.6545 100.108 75.106 93.6644 75.106 85.7153C75.106 77.7662 68.6545 71.3221 60.6961 71.3221C52.7378 71.3221 46.2863 77.7662 46.2863 85.7153C46.2863 93.6644 52.7378 100.108 60.6961 100.108Z" fill="#A0616A"/>
<path d="M73.1751 108.724L50.4581 127.516L48.6888 119.781L52.6539 113.744C53.7543 107.821 53.0439 101.289 51.153 94.3603L65.9743 94.3739C66.6141 99.9728 68.7965 104.857 73.1751 108.724Z" fill="#A0616A"/>
<path d="M79.5709 158.018L48.9027 167.349L46.5167 156.454C40.7694 148.746 38.271 141.711 42.0311 135.971L40.1389 127.331C45.5668 123.062 49.8351 118.695 52.1789 114.163L71.048 106.799L84.9193 107.651L89.0154 121.362L79.5709 158.018Z" fill="#F35A5E"/>
<path d="M101.358 132.439C94.8212 132.37 88.4234 134.328 83.0471 138.043L84.9192 107.651C86.8195 107.905 88.621 108.648 90.1465 109.808C91.6719 110.968 92.8687 112.505 93.6192 114.267L101.358 132.439Z" fill="#F35A5E"/>
<path d="M48.2775 301.452L38.5435 299.059L39.9763 216.446L53.0472 202.149L50.1213 184.024L48.228 163.719L80.156 155.811C90.9477 175.383 97.4706 193.178 87.9492 204.294L48.2775 301.452Z" fill="#2F2E41"/>
<path d="M46.0418 329.345C45.9982 329.363 45.9545 329.379 45.9107 329.396C43.0842 332.675 39.9787 335.348 36.0743 336.287C34.3616 337.487 32.2665 338.015 30.1891 337.77C28.1117 337.524 26.1974 336.524 24.8119 334.958C23.5052 333.482 22.7526 331.598 22.6828 329.629C22.6131 327.659 23.2305 325.727 24.4295 324.162L36.0833 308.952C41.0713 310.58 45.913 310.101 50.5225 306.275L53.0352 311.733C53.7829 313.341 54.1947 315.084 54.2454 316.856C54.2962 318.629 53.9849 320.393 53.3304 322.041C52.676 323.689 51.6922 325.187 50.4391 326.443C49.1859 327.699 47.6898 328.686 46.0418 329.345Z" fill="#2F2E41"/>
<path d="M10.4833 200.43L1.93938 207.737C1.23037 208.343 0.686091 209.118 0.356992 209.991C0.0278921 210.863 -0.0753779 211.805 0.0567527 212.727C0.188883 213.65 0.552141 214.525 1.11285 215.27C1.67356 216.016 2.41357 216.608 3.26429 216.991C4.54497 217.568 5.99737 217.639 7.32786 217.187C8.65836 216.736 9.7677 215.797 10.4316 214.56L16.6101 203.05L44.9442 151.404L34.2877 149.403L10.4833 200.43Z" fill="#A0616A"/>
<path d="M46.6515 152.855C41.1172 151.186 35.9333 150.203 31.9128 151.5C32.7556 141.083 34.4925 131.778 40.1389 127.331L48.1657 128.273L46.6515 152.855Z" fill="#F35A5E"/>
<path d="M76.7826 82.3778L45.9625 80.4837L46.3418 74.3268C57.1004 67.0809 67.3737 67.7123 77.1618 76.221L76.7826 82.3778Z" fill="#2F2E41"/>
</svg>
